SplineFontDB: 3.0
FontName: PressStart2P
FullName: Press Start 2P
FamilyName: Press Start 2P
Weight: Medium
Copyright: (c) 2011 Cody "CodeMan38" Boisclair. Released under the SIL Open Font License.
Version: 2.14
ItalicAngle: 0
UnderlinePosition: 2
UnderlineWidth: 51
Ascent: 1024
Descent: 0
sfntRevision: 0x00020000
LayerCount: 2
Layer: 0 1 "Back"  1
Layer: 1 1 "Fore"  0
XUID: [1021 824 213434779 12779177]
FSType: 8
OS2Version: 4
OS2_WeightWidthSlopeOnly: 0
OS2_UseTypoMetrics: 1
CreationTime: 1307929694
ModificationTime: 1351644407
PfmFamily: 17
TTFWeight: 500
TTFWidth: 5
LineGap: 0
VLineGap: 0
Panose: 2 0 5 3 0 0 0 0 0 0
OS2TypoAscent: 1024
OS2TypoAOffset: 0
OS2TypoDescent: 0
OS2TypoDOffset: 0
OS2TypoLinegap: 0
OS2WinAscent: 1024
OS2WinAOffset: 0
OS2WinDescent: 0
OS2WinDOffset: 0
HheadAscent: 1024
HheadAOffset: 0
HheadDescent: 0
HheadDOffset: 0
OS2SubXSize: 665
OS2SubYSize: 716
OS2SubXOff: 0
OS2SubYOff: 143
OS2SupXSize: 665
OS2SupYSize: 716
OS2SupXOff: 0
OS2SupYOff: 491
OS2StrikeYSize: 51
OS2StrikeYPos: 265
OS2Vendor: 'PfEd'
OS2CodePages: 6000009f.00000000
OS2UnicodeRanges: 800002af.5000604a.00000000.00000000
MarkAttachClasses: 1
DEI: 91125
ShortTable: cvt  2
  34
  648
EndShort
ShortTable: maxp 16
  1
  0
  559
  112
  5
  0
  0
  2
  0
  1
  1
  0
  64
  0
  0
  0
EndShort

StartChar: .notdef
Encoding: 65536 -1 0
Width: 1024
Flags: W
LayerCount: 2
Fore
SplineSet
128 576 m 1,0,-1
 128 1024 l 1,1,-1
 512 1024 l 1,2,-1
 896 1024 l 1,3,-1
 896 576 l 1,4,-1
 896 128 l 1,5,-1
 512 128 l 1,6,-1
 128 128 l 1,7,-1
 128 576 l 1,0,-1
768 704 m 1,8,-1
 768 896 l 1,9,-1
 512 896 l 1,10,-1
 256 896 l 1,11,-1
 256 832 l 1,12,-1
 256 768 l 1,13,-1
 448 768 l 1,14,-1
 640 768 l 1,15,-1
 640 704 l 1,16,-1
 640 640 l 1,17,-1
 512 640 l 1,18,-1
 384 640 l 1,19,-1
 384 576 l 1,20,-1
 384 512 l 1,21,-1
 576 512 l 1,22,-1
 768 512 l 1,23,-1
 768 704 l 1,8,-1
512 320 m 1,24,-1
 512 384 l 1,25,-1
 448 384 l 1,26,-1
 384 384 l 1,27,-1
 384 320 l 1,28,-1
 384 256 l 1,29,-1
 448 256 l 1,30,-1
 512 256 l 1,31,-1
 512 320 l 1,24,-1
EndSplineSet
EndChar

StartChar: exclam
Encoding: 33 33 4
Width: 1024
GlyphClass: 2
Flags: W
LayerCount: 2
Fore
SplineSet
256 192 m 1,0,-1
 256 256 l 1,1,-1
 384 256 l 1,2,-1
 512 256 l 1,3,-1
 512 192 l 1,4,-1
 512 128 l 1,5,-1
 384 128 l 1,6,-1
 256 128 l 1,7,-1
 256 192 l 1,0,-1
256 704 m 1,8,-1
 256 1024 l 1,9,-1
 448 1024 l 1,10,-1
 640 1024 l 1,11,-1
 640 832 l 1,12,-1
 640 640 l 1,13,-1
 576 640 l 1,14,-1
 512 640 l 1,15,-1
 512 512 l 1,16,-1
 512 384 l 1,17,-1
 384 384 l 1,18,-1
 256 384 l 1,19,-1
 256 704 l 1,8,-1
EndSplineSet
EndChar

StartChar: quotedbl
Encoding: 34 34 5
Width: 1024
GlyphClass: 2
Flags: W
LayerCount: 2
Fore
SplineSet
512 832 m 1,0,-1
 512 1024 l 1,1,-1
 640 1024 l 1,2,-1
 768 1024 l 1,3,-1
 768 832 l 1,4,-1
 768 640 l 1,5,-1
 640 640 l 1,6,-1
 512 640 l 1,7,-1
 512 832 l 1,0,-1
128 832 m 1,8,-1
 128 1024 l 1,9,-1
 256 1024 l 1,10,-1
 384 1024 l 1,11,-1
 384 832 l 1,12,-1
 384 640 l 1,13,-1
 256 640 l 1,14,-1
 128 640 l 1,15,-1
 128 832 l 1,8,-1
EndSplineSet
EndChar

StartChar: numbersign
Encoding: 35 35 6
Width: 1024
GlyphClass: 2
Flags: W
LayerCount: 2
Fore
SplineSet
128 960 m 1,0,-1
 128 1024 l 1,1,-1
 256 1024 l 1,2,-1
 384 1024 l 1,3,-1
 384 960 l 1,4,-1
 384 896 l 1,5,-1
 448 896 l 1,6,-1
 512 896 l 1,7,-1
 512 960 l 1,8,-1
 512 1024 l 1,9,-1
 640 1024 l 1,10,-1
 768 1024 l 1,11,-1
 768 960 l 1,12,-1
 768 896 l 1,13,-1
 832 896 l 1,14,-1
 896 896 l 1,15,-1
 896 832 l 1,16,-1
 896 768 l 1,17,-1
 832 768 l 1,18,-1
 768 768 l 1,19,-1
 768 576 l 1,20,-1
 768 384 l 1,21,-1
 832 384 l 1,22,-1
 896 384 l 1,23,-1
 896 320 l 1,24,-1
 896 256 l 1,25,-1
 832 256 l 1,26,-1
 768 256 l 1,27,-1
 768 192 l 1,28,-1
 768 128 l 1,29,-1
 640 128 l 1,30,-1
 512 128 l 1,31,-1
 512 192 l 1,32,-1
 512 256 l 1,33,-1
 448 256 l 1,34,-1
 384 256 l 1,35,-1
 384 192 l 1,36,-1
 384 128 l 1,37,-1
 256 128 l 1,38,-1
 128 128 l 1,39,-1
 128 192 l 1,40,-1
 128 256 l 1,41,-1
 64 256 l 1,42,-1
 0 256 l 1,43,-1
 0 320 l 1,44,-1
 0 384 l 1,45,-1
 64 384 l 1,46,-1
 128 384 l 1,47,-1
 128 576 l 1,48,-1
 128 768 l 1,49,-1
 64 768 l 1,50,-1
 0 768 l 1,51,-1
 0 832 l 1,52,-1
 0 896 l 1,53,-1
 64 896 l 1,54,-1
 128 896 l 1,55,-1
 128 960 l 1,0,-1
512 576 m 1,56,-1
 512 768 l 1,57,-1
 448 768 l 1,58,-1
 384 768 l 1,59,-1
 384 576 l 1,60,-1
 384 384 l 1,61,-1
 448 384 l 1,62,-1
 512 384 l 1,63,-1
 512 576 l 1,56,-1
EndSplineSet
EndChar

StartChar: dollar
Encoding: 36 36 7
Width: 1024
GlyphClass: 2
Flags: W
LayerCount: 2
Fore
SplineSet
384 960 m 1,0,-1
 384 1024 l 1,1,-1
 448 1024 l 1,2,-1
 512 1024 l 1,3,-1
 512 960 l 1,4,-1
 512 896 l 1,5,-1
 640 896 l 1,6,-1
 768 896 l 1,7,-1
 768 832 l 1,8,-1
 768 768 l 1,9,-1
 640 768 l 1,10,-1
 512 768 l 1,11,-1
 512 704 l 1,12,-1
 512 640 l 1,13,-1
 640 640 l 1,14,-1
 768 640 l 1,15,-1
 768 576 l 1,16,-1
 768 512 l 1,17,-1
 832 512 l 1,18,-1
 896 512 l 1,19,-1
 896 448 l 1,20,-1
 896 384 l 1,21,-1
 832 384 l 1,22,-1
 768 384 l 1,23,-1
 768 320 l 1,24,-1
 768 256 l 1,25,-1
 640 256 l 1,26,-1
 512 256 l 1,27,-1
 512 192 l 1,28,-1
 512 128 l 1,29,-1
 448 128 l 1,30,-1
 384 128 l 1,31,-1
 384 192 l 1,32,-1
 384 256 l 1,33,-1
 192 256 l 1,34,-1
 0 256 l 1,35,-1
 0 320 l 1,36,-1
 0 384 l 1,37,-1
 192 384 l 1,38,-1
 384 384 l 1,39,-1
 384 448 l 1,40,-1
 384 512 l 1,41,-1
 256 512 l 1,42,-1
 128 512 l 1,43,-1
 128 576 l 1,44,-1
 128 640 l 1,45,-1
 64 640 l 1,46,-1
 0 640 l 1,47,-1
 0 704 l 1,48,-1
 0 768 l 1,49,-1
 64 768 l 1,50,-1
 128 768 l 1,51,-1
 128 832 l 1,52,-1
 128 896 l 1,53,-1
 256 896 l 1,54,-1
 384 896 l 1,55,-1
 384 960 l 1,0,-1
384 704 m 1,56,-1
 384 768 l 1,57,-1
 320 768 l 1,58,-1
 256 768 l 1,59,-1
 256 704 l 1,60,-1
 256 640 l 1,61,-1
 320 640 l 1,62,-1
 384 640 l 1,63,-1
 384 704 l 1,56,-1
640 448 m 1,64,-1
 640 512 l 1,65,-1
 576 512 l 1,66,-1
 512 512 l 1,67,-1
 512 448 l 1,68,-1
 512 384 l 1,69,-1
 576 384 l 1,70,-1
 640 384 l 1,71,-1
 640 448 l 1,64,-1
EndSplineSet
EndChar

StartChar: percent
Encoding: 37 37 8
Width: 1024
GlyphClass: 2
Flags: W
LayerCount: 2
Fore
SplineSet
640 448 m 1,0,-1
 640 512 l 1,1,-1
 768 512 l 1,2,-1
 896 512 l 1,3,-1
 896 384 l 1,4,-1
 896 256 l 1,5,-1
 832 256 l 1,6,-1
 768 256 l 1,7,-1
 768 192 l 1,8,-1
 768 128 l 1,9,-1
 640 128 l 1,10,-1
 512 128 l 1,11,-1
 512 256 l 1,12,-1
 512 384 l 1,13,-1
 576 384 l 1,14,-1
 640 384 l 1,15,-1
 640 448 l 1,0,-1
768 320 m 1,16,-1
 768 384 l 1,17,-1
 704 384 l 1,18,-1
 640 384 l 1,19,-1
 640 320 l 1,20,-1
 640 256 l 1,21,-1
 704 256 l 1,22,-1
 768 256 l 1,23,-1
 768 320 l 1,16,-1
768 960 m 1,24,-1
 768 1024 l 1,25,-1
 832 1024 l 1,26,-1
 896 1024 l 1,27,-1
 896 960 l 1,28,-1
 896 896 l 1,29,-1
 832 896 l 1,30,-1
 768 896 l 1,31,-1
 768 832 l 1,32,-1
 768 768 l 1,33,-1
 704 768 l 1,34,-1
 640 768 l 1,35,-1
 640 704 l 1,36,-1
 640 640 l 1,37,-1
 576 640 l 1,38,-1
 512 640 l 1,39,-1
 512 576 l 1,40,-1
 512 512 l 1,41,-1
 448 512 l 1,42,-1
 384 512 l 1,43,-1
 384 448 l 1,44,-1
 384 384 l 1,45,-1
 320 384 l 1,46,-1
 256 384 l 1,47,-1
 256 320 l 1,48,-1
 256 256 l 1,49,-1
 192 256 l 1,50,-1
 128 256 l 1,51,-1
 128 192 l 1,52,-1
 128 128 l 1,53,-1
 64 128 l 1,54,-1
 0 128 l 1,55,-1
 0 192 l 1,56,-1
 0 256 l 1,57,-1
 64 256 l 1,58,-1
 128 256 l 1,59,-1
 128 320 l 1,60,-1
 128 384 l 1,61,-1
 192 384 l 1,62,-1
 256 384 l 1,63,-1
 256 448 l 1,64,-1
 256 512 l 1,65,-1
 320 512 l 1,66,-1
 384 512 l 1,67,-1
 384 576 l 1,68,-1
 384 640 l 1,69,-1
 448 640 l 1,70,-1
 512 640 l 1,71,-1
 512 704 l 1,72,-1
 512 768 l 1,73,-1
 576 768 l 1,74,-1
 640 768 l 1,75,-1
 640 832 l 1,76,-1
 640 896 l 1,77,-1
 704 896 l 1,78,-1
 768 896 l 1,79,-1
 768 960 l 1,24,-1
128 960 m 1,80,-1
 128 1024 l 1,81,-1
 256 1024 l 1,82,-1
 384 1024 l 1,83,-1
 384 896 l 1,84,-1
 384 768 l 1,85,-1
 320 768 l 1,86,-1
 256 768 l 1,87,-1
 256 704 l 1,88,-1
 256 640 l 1,89,-1
 128 640 l 1,90,-1
 0 640 l 1,91,-1
 0 768 l 1,92,-1
 0 896 l 1,93,-1
 64 896 l 1,94,-1
 128 896 l 1,95,-1
 128 960 l 1,80,-1
256 832 m 1,96,-1
 256 896 l 1,97,-1
 192 896 l 1,98,-1
 128 896 l 1,99,-1
 128 832 l 1,100,-1
 128 768 l 1,101,-1
 192 768 l 1,102,-1
 256 768 l 1,103,-1
 256 832 l 1,96,-1
EndSplineSet
EndChar

StartChar: ampersand
Encoding: 38 38 9
Width: 1024
GlyphClass: 2
Flags: W
LayerCount: 2
Fore
SplineSet
128 960 m 1,0,-1
 128 1024 l 1,1,-1
 320 1024 l 1,2,-1
 512 1024 l 1,3,-1
 512 960 l 1,4,-1
 512 896 l 1,5,-1
 576 896 l 1,6,-1
 640 896 l 1,7,-1
 640 768 l 1,8,-1
 640 640 l 1,9,-1
 576 640 l 1,10,-1
 512 640 l 1,11,-1
 512 576 l 1,12,-1
 512 512 l 1,13,-1
 576 512 l 1,14,-1
 640 512 l 1,15,-1
 640 448 l 1,16,-1
 640 384 l 1,17,-1
 704 384 l 1,18,-1
 768 384 l 1,19,-1
 768 448 l 1,20,-1
 768 512 l 1,21,-1
 832 512 l 1,22,-1
 896 512 l 1,23,-1
 896 448 l 1,24,-1
 896 384 l 1,25,-1
 832 384 l 1,26,-1
 768 384 l 1,27,-1
 768 320 l 1,28,-1
 768 256 l 1,29,-1
 832 256 l 1,30,-1
 896 256 l 1,31,-1
 896 192 l 1,32,-1
 896 128 l 1,33,-1
 512 128 l 1,34,-1
 128 128 l 1,35,-1
 128 192 l 1,36,-1
 128 256 l 1,37,-1
 64 256 l 1,38,-1
 0 256 l 1,39,-1
 0 384 l 1,40,-1
 0 512 l 1,41,-1
 64 512 l 1,42,-1
 128 512 l 1,43,-1
 128 576 l 1,44,-1
 128 640 l 1,45,-1
 64 640 l 1,46,-1
 0 640 l 1,47,-1
 0 768 l 1,48,-1
 0 896 l 1,49,-1
 64 896 l 1,50,-1
 128 896 l 1,51,-1
 128 960 l 1,0,-1
384 768 m 1,52,-1
 384 896 l 1,53,-1
 320 896 l 1,54,-1
 256 896 l 1,55,-1
 256 768 l 1,56,-1
 256 640 l 1,57,-1
 320 640 l 1,58,-1
 384 640 l 1,59,-1
 384 768 l 1,52,-1
384 448 m 1,60,-1
 384 512 l 1,61,-1
 320 512 l 1,62,-1
 256 512 l 1,63,-1
 256 384 l 1,64,-1
 256 256 l 1,65,-1
 384 256 l 1,66,-1
 512 256 l 1,67,-1
 512 320 l 1,68,-1
 512 384 l 1,69,-1
 448 384 l 1,70,-1
 384 384 l 1,71,-1
 384 448 l 1,60,-1
EndSplineSet
EndChar

StartChar: quotesingle
Encoding: 39 39 10
Width: 1024
GlyphClass: 2
Flags: W
LayerCount: 2
Fore
SplineSet
256 832 m 1,0,-1
 256 1024 l 1,1,-1
 384 1024 l 1,2,-1
 512 1024 l 1,3,-1
 512 832 l 1,4,-1
 512 640 l 1,5,-1
 384 640 l 1,6,-1
 256 640 l 1,7,-1
 256 832 l 1,0,-1
EndSplineSet
EndChar

StartChar: parenleft
Encoding: 40 40 11
Width: 1024
GlyphClass: 2
Flags: W
LayerCount: 2
Fore
SplineSet
512 960 m 1,0,-1
 512 1024 l 1,1,-1
 640 1024 l 1,2,-1
 768 1024 l 1,3,-1
 768 960 l 1,4,-1
 768 896 l 1,5,-1
 704 896 l 1,6,-1
 640 896 l 1,7,-1
 640 832 l 1,8,-1
 640 768 l 1,9,-1
 576 768 l 1,10,-1
 512 768 l 1,11,-1
 512 576 l 1,12,-1
 512 384 l 1,13,-1
 576 384 l 1,14,-1
 640 384 l 1,15,-1
 640 320 l 1,16,-1
 640 256 l 1,17,-1
 704 256 l 1,18,-1
 768 256 l 1,19,-1
 768 192 l 1,20,-1
 768 128 l 1,21,-1
 640 128 l 1,22,-1
 512 128 l 1,23,-1
 512 192 l 1,24,-1
 512 256 l 1,25,-1
 448 256 l 1,26,-1
 384 256 l 1,27,-1
 384 320 l 1,28,-1
 384 384 l 1,29,-1
 320 384 l 1,30,-1
 256 384 l 1,31,-1
 256 576 l 1,32,-1
 256 768 l 1,33,-1
 320 768 l 1,34,-1
 384 768 l 1,35,-1
 384 832 l 1,36,-1
 384 896 l 1,37,-1
 448 896 l 1,38,-1
 512 896 l 1,39,-1
 512 960 l 1,0,-1
EndSplineSet
EndChar

StartChar: parenright
Encoding: 41 41 12
Width: 1024
GlyphClass: 2
Flags: W
LayerCount: 2
Fore
SplineSet
128 960 m 1,0,-1
 128 1024 l 1,1,-1
 256 1024 l 1,2,-1
 384 1024 l 1,3,-1
 384 960 l 1,4,-1
 384 896 l 1,5,-1
 448 896 l 1,6,-1
 512 896 l 1,7,-1
 512 832 l 1,8,-1
 512 768 l 1,9,-1
 576 768 l 1,10,-1
 640 768 l 1,11,-1
 640 576 l 1,12,-1
 640 384 l 1,13,-1
 576 384 l 1,14,-1
 512 384 l 1,15,-1
 512 320 l 1,16,-1
 512 256 l 1,17,-1
 448 256 l 1,18,-1
 384 256 l 1,19,-1
 384 192 l 1,20,-1
 384 128 l 1,21,-1
 256 128 l 1,22,-1
 128 128 l 1,23,-1
 128 192 l 1,24,-1
 128 256 l 1,25,-1
 192 256 l 1,26,-1
 256 256 l 1,27,-1
 256 320 l 1,28,-1
 256 384 l 1,29,-1
 320 384 l 1,30,-1
 384 384 l 1,31,-1
 384 576 l 1,32,-1
 384 768 l 1,33,-1
 320 768 l 1,34,-1
 256 768 l 1,35,-1
 256 832 l 1,36,-1
 256 896 l 1,37,-1
 192 896 l 1,38,-1
 128 896 l 1,39,-1
 128 960 l 1,0,-1
EndSplineSet
EndChar

StartChar: asterisk
Encoding: 42 42 13
Width: 1024
GlyphClass: 2
Flags: W
LayerCount: 2
Fore
SplineSet
128 832 m 1,0,-1
 128 896 l 1,1,-1
 256 896 l 1,2,-1
 384 896 l 1,3,-1
 384 832 l 1,4,-1
 384 768 l 1,5,-1
 448 768 l 1,6,-1
 512 768 l 1,7,-1
 512 832 l 1,8,-1
 512 896 l 1,9,-1
 640 896 l 1,10,-1
 768 896 l 1,11,-1
 768 832 l 1,12,-1
 768 768 l 1,13,-1
 704 768 l 1,14,-1
 640 768 l 1,15,-1
 640 704 l 1,16,-1
 640 640 l 1,17,-1
 768 640 l 1,18,-1
 896 640 l 1,19,-1
 896 576 l 1,20,-1
 896 512 l 1,21,-1
 768 512 l 1,22,-1
 640 512 l 1,23,-1
 640 448 l 1,24,-1
 640 384 l 1,25,-1
 704 384 l 1,26,-1
 768 384 l 1,27,-1
 768 320 l 1,28,-1
 768 256 l 1,29,-1
 640 256 l 1,30,-1
 512 256 l 1,31,-1
 512 320 l 1,32,-1
 512 384 l 1,33,-1
 448 384 l 1,34,-1
 384 384 l 1,35,-1
 384 320 l 1,36,-1
 384 256 l 1,37,-1
 256 256 l 1,38,-1
 128 256 l 1,39,-1
 128 320 l 1,40,-1
 128 384 l 1,41,-1
 192 384 l 1,42,-1
 256 384 l 1,43,-1
 256 448 l 1,44,-1
 256 512 l 1,45,-1
 128 512 l 1,46,-1
 0 512 l 1,47,-1
 0 576 l 1,48,-1
 0 640 l 1,49,-1
 128 640 l 1,50,-1
 256 640 l 1,51,-1
 256 704 l 1,52,-1
 256 768 l 1,53,-1
 192 768 l 1,54,-1
 128 768 l 1,55,-1
 128 832 l 1,0,-1
EndSplineSet
EndChar

StartChar: plus
Encoding: 43 43 14
Width: 1024
GlyphClass: 2
Flags: W
LayerCount: 2
Fore
SplineSet
384 768 m 1,0,-1
 384 896 l 1,1,-1
 512 896 l 1,2,-1
 640 896 l 1,3,-1
 640 768 l 1,4,-1
 640 640 l 1,5,-1
 768 640 l 1,6,-1
 896 640 l 1,7,-1
 896 576 l 1,8,-1
 896 512 l 1,9,-1
 768 512 l 1,10,-1
 640 512 l 1,11,-1
 640 384 l 1,12,-1
 640 256 l 1,13,-1
 512 256 l 1,14,-1
 384 256 l 1,15,-1
 384 384 l 1,16,-1
 384 512 l 1,17,-1
 256 512 l 1,18,-1
 128 512 l 1,19,-1
 128 576 l 1,20,-1
 128 640 l 1,21,-1
 256 640 l 1,22,-1
 384 640 l 1,23,-1
 384 768 l 1,0,-1
EndSplineSet
EndChar

StartChar: comma
Encoding: 44 44 15
Width: 1024
GlyphClass: 2
Flags: W
LayerCount: 2
Fore
SplineSet
256 256 m 1,0,-1
 256 384 l 1,1,-1
 384 384 l 1,2,-1
 512 384 l 1,3,-1
 512 256 l 1,4,-1
 512 128 l 1,5,-1
 448 128 l 1,6,-1
 384 128 l 1,7,-1
 384 64 l 1,8,-1
 384 0 l 1,9,-1
 256 0 l 1,10,-1
 128 0 l 1,11,-1
 128 64 l 1,12,-1
 128 128 l 1,13,-1
 192 128 l 1,14,-1
 256 128 l 1,15,-1
 256 256 l 1,0,-1
EndSplineSet
EndChar

StartChar: hyphen
Encoding: 45 45 16
Width: 1024
GlyphClass: 2
Flags: W
LayerCount: 2
Fore
SplineSet
128 576 m 1,0,-1
 128 640 l 1,1,-1
 512 640 l 1,2,-1
 896 640 l 1,3,-1
 896 576 l 1,4,-1
 896 512 l 1,5,-1
 512 512 l 1,6,-1
 128 512 l 1,7,-1
 128 576 l 1,0,-1
EndSplineSet
EndChar

StartChar: period
Encoding: 46 46 17
Width: 1024
GlyphClass: 2
Flags: W
LayerCount: 2
Fore
SplineSet
256 256 m 1,0,-1
 256 384 l 1,1,-1
 384 384 l 1,2,-1
 512 384 l 1,3,-1
 512 256 l 1,4,-1
 512 128 l 1,5,-1
 384 128 l 1,6,-1
 256 128 l 1,7,-1
 256 256 l 1,0,-1
EndSplineSet
EndChar

StartChar: slash
Encoding: 47 47 18
Width: 1024
GlyphClass: 2
Flags: W
LayerCount: 2
Fore
SplineSet
768 960 m 1,0,-1
 768 1024 l 1,1,-1
 832 1024 l 1,2,-1
 896 1024 l 1,3,-1
 896 960 l 1,4,-1
 896 896 l 1,5,-1
 832 896 l 1,6,-1
 768 896 l 1,7,-1
 768 832 l 1,8,-1
 768 768 l 1,9,-1
 704 768 l 1,10,-1
 640 768 l 1,11,-1
 640 704 l 1,12,-1
 640 640 l 1,13,-1
 576 640 l 1,14,-1
 512 640 l 1,15,-1
 512 576 l 1,16,-1
 512 512 l 1,17,-1
 448 512 l 1,18,-1
 384 512 l 1,19,-1
 384 448 l 1,20,-1
 384 384 l 1,21,-1
 320 384 l 1,22,-1
 256 384 l 1,23,-1
 256 320 l 1,24,-1
 256 256 l 1,25,-1
 192 256 l 1,26,-1
 128 256 l 1,27,-1
 128 192 l 1,28,-1
 128 128 l 1,29,-1
 64 128 l 1,30,-1
 0 128 l 1,31,-1
 0 192 l 1,32,-1
 0 256 l 1,33,-1
 64 256 l 1,34,-1
 128 256 l 1,35,-1
 128 320 l 1,36,-1
 128 384 l 1,37,-1
 192 384 l 1,38,-1
 256 384 l 1,39,-1
 256 448 l 1,40,-1
 256 512 l 1,41,-1
 320 512 l 1,42,-1
 384 512 l 1,43,-1
 384 576 l 1,44,-1
 384 640 l 1,45,-1
 448 640 l 1,46,-1
 512 640 l 1,47,-1
 512 704 l 1,48,-1
 512 768 l 1,49,-1
 576 768 l 1,50,-1
 640 768 l 1,51,-1
 640 832 l 1,52,-1
 640 896 l 1,53,-1
 704 896 l 1,54,-1
 768 896 l 1,55,-1
 768 960 l 1,0,-1
EndSplineSet
EndChar

StartChar: zero
Encoding: 48 48 19
Width: 1024
GlyphClass: 2
Flags: W
LayerCount: 2
Fore
SplineSet
256 960 m 1,0,-1
 256 1024 l 1,1,-1
 448 1024 l 1,2,-1
 640 1024 l 1,3,-1
 640 960 l 1,4,-1
 640 896 l 1,5,-1
 704 896 l 1,6,-1
 768 896 l 1,7,-1
 768 832 l 1,8,-1
 768 768 l 1,9,-1
 832 768 l 1,10,-1
 896 768 l 1,11,-1
 896 576 l 1,12,-1
 896 384 l 1,13,-1
 832 384 l 1,14,-1
 768 384 l 1,15,-1
 768 320 l 1,16,-1
 768 256 l 1,17,-1
 704 256 l 1,18,-1
 640 256 l 1,19,-1
 640 192 l 1,20,-1
 640 128 l 1,21,-1
 448 128 l 1,22,-1
 256 128 l 1,23,-1
 256 192 l 1,24,-1
 256 256 l 1,25,-1
 192 256 l 1,26,-1
 128 256 l 1,27,-1
 128 320 l 1,28,-1
 128 384 l 1,29,-1
 64 384 l 1,30,-1
 0 384 l 1,31,-1
 0 576 l 1,32,-1
 0 768 l 1,33,-1
 64 768 l 1,34,-1
 128 768 l 1,35,-1
 128 832 l 1,36,-1
 128 896 l 1,37,-1
 192 896 l 1,38,-1
 256 896 l 1,39,-1
 256 960 l 1,0,-1
512 832 m 1,40,-1
 512 896 l 1,41,-1
 384 896 l 1,42,-1
 256 896 l 1,43,-1
 256 640 l 1,44,-1
 256 384 l 1,45,-1
 320 384 l 1,46,-1
 384 384 l 1,47,-1
 384 320 l 1,48,-1
 384 256 l 1,49,-1
 512 256 l 1,50,-1
 640 256 l 1,51,-1
 640 512 l 1,52,-1
 640 768 l 1,53,-1
 576 768 l 1,54,-1
 512 768 l 1,55,-1
 512 832 l 1,40,-1
EndSplineSet
EndChar

StartChar: one
Encoding: 49 49 20
Width: 1024
GlyphClass: 2
Flags: W
LayerCount: 2
Fore
SplineSet
384 960 m 1,0,-1
 384 1024 l 1,1,-1
 512 1024 l 1,2,-1
 640 1024 l 1,3,-1
 640 640 l 1,4,-1
 640 256 l 1,5,-1
 768 256 l 1,6,-1
 896 256 l 1,7,-1
 896 192 l 1,8,-1
 896 128 l 1,9,-1
 512 128 l 1,10,-1
 128 128 l 1,11,-1
 128 192 l 1,12,-1
 128 256 l 1,13,-1
 256 256 l 1,14,-1
 384 256 l 1,15,-1
 384 512 l 1,16,-1
 384 768 l 1,17,-1
 320 768 l 1,18,-1
 256 768 l 1,19,-1
 256 832 l 1,20,-1
 256 896 l 1,21,-1
 320 896 l 1,22,-1
 384 896 l 1,23,-1
 384 960 l 1,0,-1
EndSplineSet
EndChar

StartChar: two
Encoding: 50 50 21
Width: 1024
GlyphClass: 2
Flags: W
LayerCount: 2
Fore
SplineSet
128 960 m 1,0,-1
 128 1024 l 1,1,-1
 448 1024 l 1,2,-1
 768 1024 l 1,3,-1
 768 960 l 1,4,-1
 768 896 l 1,5,-1
 832 896 l 1,6,-1
 896 896 l 1,7,-1
 896 768 l 1,8,-1
 896 640 l 1,9,-1
 832 640 l 1,10,-1
 768 640 l 1,11,-1
 768 576 l 1,12,-1
 768 512 l 1,13,-1
 704 512 l 1,14,-1
 640 512 l 1,15,-1
 640 448 l 1,16,-1
 640 384 l 1,17,-1
 512 384 l 1,18,-1
 384 384 l 1,19,-1
 384 320 l 1,20,-1
 384 256 l 1,21,-1
 640 256 l 1,22,-1
 896 256 l 1,23,-1
 896 192 l 1,24,-1
 896 128 l 1,25,-1
 448 128 l 1,26,-1
 0 128 l 1,27,-1
 0 256 l 1,28,-1
 0 384 l 1,29,-1
 64 384 l 1,30,-1
 128 384 l 1,31,-1
 128 448 l 1,32,-1
 128 512 l 1,33,-1
 192 512 l 1,34,-1
 256 512 l 1,35,-1
 256 576 l 1,36,-1
 256 640 l 1,37,-1
 384 640 l 1,38,-1
 512 640 l 1,39,-1
 512 704 l 1,40,-1
 512 768 l 1,41,-1
 576 768 l 1,42,-1
 640 768 l 1,43,-1
 640 832 l 1,44,-1
 640 896 l 1,45,-1
 448 896 l 1,46,-1
 256 896 l 1,47,-1
 256 832 l 1,48,-1
 256 768 l 1,49,-1
 128 768 l 1,50,-1
 0 768 l 1,51,-1
 0 832 l 1,52,-1
 0 896 l 1,53,-1
 64 896 l 1,54,-1
 128 896 l 1,55,-1
 128 960 l 1,0,-1
EndSplineSet
EndChar

StartChar: three
Encoding: 51 51 22
Width: 1024
GlyphClass: 2
Flags: W
LayerCount: 2
Fore
SplineSet
128 960 m 1,0,-1
 128 1024 l 1,1,-1
 512 1024 l 1,2,-1
 896 1024 l 1,3,-1
 896 960 l 1,4,-1
 896 896 l 1,5,-1
 832 896 l 1,6,-1
 768 896 l 1,7,-1
 768 832 l 1,8,-1
 768 768 l 1,9,-1
 704 768 l 1,10,-1
 640 768 l 1,11,-1
 640 704 l 1,12,-1
 640 640 l 1,13,-1
 704 640 l 1,14,-1
 768 640 l 1,15,-1
 768 576 l 1,16,-1
 768 512 l 1,17,-1
 832 512 l 1,18,-1
 896 512 l 1,19,-1
 896 384 l 1,20,-1
 896 256 l 1,21,-1
 832 256 l 1,22,-1
 768 256 l 1,23,-1
 768 192 l 1,24,-1
 768 128 l 1,25,-1
 448 128 l 1,26,-1
 128 128 l 1,27,-1
 128 192 l 1,28,-1
 128 256 l 1,29,-1
 64 256 l 1,30,-1
 0 256 l 1,31,-1
 0 320 l 1,32,-1
 0 384 l 1,33,-1
 128 384 l 1,34,-1
 256 384 l 1,35,-1
 256 320 l 1,36,-1
 256 256 l 1,37,-1
 448 256 l 1,38,-1
 640 256 l 1,39,-1
 640 384 l 1,40,-1
 640 512 l 1,41,-1
 448 512 l 1,42,-1
 256 512 l 1,43,-1
 256 576 l 1,44,-1
 256 640 l 1,45,-1
 320 640 l 1,46,-1
 384 640 l 1,47,-1
 384 704 l 1,48,-1
 384 768 l 1,49,-1
 448 768 l 1,50,-1
 512 768 l 1,51,-1
 512 832 l 1,52,-1
 512 896 l 1,53,-1
 320 896 l 1,54,-1
 128 896 l 1,55,-1
 128 960 l 1,0,-1
EndSplineSet
EndChar

StartChar: four
Encoding: 52 52 23
Width: 1024
GlyphClass: 2
Flags: W
LayerCount: 2
Fore
SplineSet
384 960 m 1,0,-1
 384 1024 l 1,1,-1
 576 1024 l 1,2,-1
 768 1024 l 1,3,-1
 768 768 l 1,4,-1
 768 512 l 1,5,-1
 832 512 l 1,6,-1
 896 512 l 1,7,-1
 896 448 l 1,8,-1
 896 384 l 1,9,-1
 832 384 l 1,10,-1
 768 384 l 1,11,-1
 768 256 l 1,12,-1
 768 128 l 1,13,-1
 640 128 l 1,14,-1
 512 128 l 1,15,-1
 512 256 l 1,16,-1
 512 384 l 1,17,-1
 256 384 l 1,18,-1
 0 384 l 1,19,-1
 0 512 l 1,20,-1
 0 640 l 1,21,-1
 64 640 l 1,22,-1
 128 640 l 1,23,-1
 128 704 l 1,24,-1
 128 768 l 1,25,-1
 192 768 l 1,26,-1
 256 768 l 1,27,-1
 256 832 l 1,28,-1
 256 896 l 1,29,-1
 320 896 l 1,30,-1
 384 896 l 1,31,-1
 384 960 l 1,0,-1
512 640 m 1,32,-1
 512 768 l 1,33,-1
 448 768 l 1,34,-1
 384 768 l 1,35,-1
 384 704 l 1,36,-1
 384 640 l 1,37,-1
 320 640 l 1,38,-1
 256 640 l 1,39,-1
 256 576 l 1,40,-1
 256 512 l 1,41,-1
 384 512 l 1,42,-1
 512 512 l 1,43,-1
 512 640 l 1,32,-1
EndSplineSet
EndChar

StartChar: five
Encoding: 53 53 24
Width: 1024
GlyphClass: 2
Flags: W
LayerCount: 2
Fore
SplineSet
0 832 m 1,0,-1
 0 1024 l 1,1,-1
 384 1024 l 1,2,-1
 768 1024 l 1,3,-1
 768 960 l 1,4,-1
 768 896 l 1,5,-1
 512 896 l 1,6,-1
 256 896 l 1,7,-1
 256 832 l 1,8,-1
 256 768 l 1,9,-1
 512 768 l 1,10,-1
 768 768 l 1,11,-1
 768 704 l 1,12,-1
 768 640 l 1,13,-1
 832 640 l 1,14,-1
 896 640 l 1,15,-1
 896 448 l 1,16,-1
 896 256 l 1,17,-1
 832 256 l 1,18,-1
 768 256 l 1,19,-1
 768 192 l 1,20,-1
 768 128 l 1,21,-1
 448 128 l 1,22,-1
 128 128 l 1,23,-1
 128 192 l 1,24,-1
 128 256 l 1,25,-1
 64 256 l 1,26,-1
 0 256 l 1,27,-1
 0 320 l 1,28,-1
 0 384 l 1,29,-1
 128 384 l 1,30,-1
 256 384 l 1,31,-1
 256 320 l 1,32,-1
 256 256 l 1,33,-1
 448 256 l 1,34,-1
 640 256 l 1,35,-1
 640 448 l 1,36,-1
 640 640 l 1,37,-1
 320 640 l 1,38,-1
 0 640 l 1,39,-1
 0 832 l 1,0,-1
EndSplineSet
EndChar

StartChar: six
Encoding: 54 54 25
Width: 1024
GlyphClass: 2
Flags: W
LayerCount: 2
Fore
SplineSet
256 960 m 1,0,-1
 256 1024 l 1,1,-1
 512 1024 l 1,2,-1
 768 1024 l 1,3,-1
 768 960 l 1,4,-1
 768 896 l 1,5,-1
 576 896 l 1,6,-1
 384 896 l 1,7,-1
 384 832 l 1,8,-1
 384 768 l 1,9,-1
 320 768 l 1,10,-1
 256 768 l 1,11,-1
 256 704 l 1,12,-1
 256 640 l 1,13,-1
 512 640 l 1,14,-1
 768 640 l 1,15,-1
 768 576 l 1,16,-1
 768 512 l 1,17,-1
 832 512 l 1,18,-1
 896 512 l 1,19,-1
 896 384 l 1,20,-1
 896 256 l 1,21,-1
 832 256 l 1,22,-1
 768 256 l 1,23,-1
 768 192 l 1,24,-1
 768 128 l 1,25,-1
 448 128 l 1,26,-1
 128 128 l 1,27,-1
 128 192 l 1,28,-1
 128 256 l 1,29,-1
 64 256 l 1,30,-1
 0 256 l 1,31,-1
 0 512 l 1,32,-1
 0 768 l 1,33,-1
 64 768 l 1,34,-1
 128 768 l 1,35,-1
 128 832 l 1,36,-1
 128 896 l 1,37,-1
 192 896 l 1,38,-1
 256 896 l 1,39,-1
 256 960 l 1,0,-1
640 384 m 1,40,-1
 640 512 l 1,41,-1
 448 512 l 1,42,-1
 256 512 l 1,43,-1
 256 384 l 1,44,-1
 256 256 l 1,45,-1
 448 256 l 1,46,-1
 640 256 l 1,47,-1
 640 384 l 1,40,-1
EndSplineSet
EndChar

StartChar: seven
Encoding: 55 55 26
Width: 1024
GlyphClass: 2
Flags: W
LayerCount: 2
Fore
SplineSet
0 896 m 1,0,-1
 0 1024 l 1,1,-1
 448 1024 l 1,2,-1
 896 1024 l 1,3,-1
 896 896 l 1,4,-1
 896 768 l 1,5,-1
 832 768 l 1,6,-1
 768 768 l 1,7,-1
 768 704 l 1,8,-1
 768 640 l 1,9,-1
 704 640 l 1,10,-1
 640 640 l 1,11,-1
 640 576 l 1,12,-1
 640 512 l 1,13,-1
 576 512 l 1,14,-1
 512 512 l 1,15,-1
 512 320 l 1,16,-1
 512 128 l 1,17,-1
 384 128 l 1,18,-1
 256 128 l 1,19,-1
 256 320 l 1,20,-1
 256 512 l 1,21,-1
 320 512 l 1,22,-1
 384 512 l 1,23,-1
 384 576 l 1,24,-1
 384 640 l 1,25,-1
 448 640 l 1,26,-1
 512 640 l 1,27,-1
 512 704 l 1,28,-1
 512 768 l 1,29,-1
 576 768 l 1,30,-1
 640 768 l 1,31,-1
 640 832 l 1,32,-1
 640 896 l 1,33,-1
 448 896 l 1,34,-1
 256 896 l 1,35,-1
 256 832 l 1,36,-1
 256 768 l 1,37,-1
 128 768 l 1,38,-1
 0 768 l 1,39,-1
 0 896 l 1,0,-1
EndSplineSet
EndChar

StartChar: eight
Encoding: 56 56 27
Width: 1024
GlyphClass: 2
Flags: W
LayerCount: 2
Fore
SplineSet
128 960 m 1,0,-1
 128 1024 l 1,1,-1
 384 1024 l 1,2,-1
 640 1024 l 1,3,-1
 640 960 l 1,4,-1
 640 896 l 1,5,-1
 704 896 l 1,6,-1
 768 896 l 1,7,-1
 768 768 l 1,8,-1
 768 640 l 1,9,-1
 704 640 l 1,10,-1
 640 640 l 1,11,-1
 640 576 l 1,12,-1
 640 512 l 1,13,-1
 768 512 l 1,14,-1
 896 512 l 1,15,-1
 896 384 l 1,16,-1
 896 256 l 1,17,-1
 832 256 l 1,18,-1
 768 256 l 1,19,-1
 768 192 l 1,20,-1
 768 128 l 1,21,-1
 448 128 l 1,22,-1
 128 128 l 1,23,-1
 128 192 l 1,24,-1
 128 256 l 1,25,-1
 64 256 l 1,26,-1
 0 256 l 1,27,-1
 0 384 l 1,28,-1
 0 512 l 1,29,-1
 64 512 l 1,30,-1
 128 512 l 1,31,-1
 128 576 l 1,32,-1
 128 640 l 1,33,-1
 64 640 l 1,34,-1
 0 640 l 1,35,-1
 0 768 l 1,36,-1
 0 896 l 1,37,-1
 64 896 l 1,38,-1
 128 896 l 1,39,-1
 128 960 l 1,0,-1
640 768 m 1,40,-1
 640 896 l 1,41,-1
 448 896 l 1,42,-1
 256 896 l 1,43,-1
 256 832 l 1,44,-1
 256 768 l 1,45,-1
 320 768 l 1,46,-1
 384 768 l 1,47,-1
 384 704 l 1,48,-1
 384 640 l 1,49,-1
 512 640 l 1,50,-1
 640 640 l 1,51,-1
 640 768 l 1,40,-1
384 448 m 1,52,-1
 384 512 l 1,53,-1
 256 512 l 1,54,-1
 128 512 l 1,55,-1
 128 384 l 1,56,-1
 128 256 l 1,57,-1
 384 256 l 1,58,-1
 640 256 l 1,59,-1
 640 320 l 1,60,-1
 640 384 l 1,61,-1
 512 384 l 1,62,-1
 384 384 l 1,63,-1
 384 448 l 1,52,-1
EndSplineSet
EndChar

StartChar: nine
Encoding: 57 57 28
Width: 1024
GlyphClass: 2
Flags: W
LayerCount: 2
Fore
SplineSet
128 960 m 1,0,-1
 128 1024 l 1,1,-1
 448 1024 l 1,2,-1
 768 1024 l 1,3,-1
 768 960 l 1,4,-1
 768 896 l 1,5,-1
 832 896 l 1,6,-1
 896 896 l 1,7,-1
 896 640 l 1,8,-1
 896 384 l 1,9,-1
 832 384 l 1,10,-1
 768 384 l 1,11,-1
 768 320 l 1,12,-1
 768 256 l 1,13,-1
 704 256 l 1,14,-1
 640 256 l 1,15,-1
 640 192 l 1,16,-1
 640 128 l 1,17,-1
 384 128 l 1,18,-1
 128 128 l 1,19,-1
 128 192 l 1,20,-1
 128 256 l 1,21,-1
 320 256 l 1,22,-1
 512 256 l 1,23,-1
 512 320 l 1,24,-1
 512 384 l 1,25,-1
 576 384 l 1,26,-1
 640 384 l 1,27,-1
 640 448 l 1,28,-1
 640 512 l 1,29,-1
 384 512 l 1,30,-1
 128 512 l 1,31,-1
 128 576 l 1,32,-1
 128 640 l 1,33,-1
 64 640 l 1,34,-1
 0 640 l 1,35,-1
 0 768 l 1,36,-1
 0 896 l 1,37,-1
 64 896 l 1,38,-1
 128 896 l 1,39,-1
 128 960 l 1,0,-1
640 768 m 1,40,-1
 640 896 l 1,41,-1
 448 896 l 1,42,-1
 256 896 l 1,43,-1
 256 768 l 1,44,-1
 256 640 l 1,45,-1
 448 640 l 1,46,-1
 640 640 l 1,47,-1
 640 768 l 1,40,-1
EndSplineSet
EndChar

StartChar: colon
Encoding: 58 58 29
Width: 1024
GlyphClass: 2
Flags: W
LayerCount: 2
Fore
SplineSet
256 384 m 1,0,-1
 256 512 l 1,1,-1
 384 512 l 1,2,-1
 512 512 l 1,3,-1
 512 384 l 1,4,-1
 512 256 l 1,5,-1
 384 256 l 1,6,-1
 256 256 l 1,7,-1
 256 384 l 1,0,-1
256 768 m 1,8,-1
 256 896 l 1,9,-1
 384 896 l 1,10,-1
 512 896 l 1,11,-1
 512 768 l 1,12,-1
 512 640 l 1,13,-1
 384 640 l 1,14,-1
 256 640 l 1,15,-1
 256 768 l 1,8,-1
EndSplineSet
EndChar

StartChar: semicolon
Encoding: 59 59 30
Width: 1024
GlyphClass: 2
Flags: W
LayerCount: 2
Fore
SplineSet
256 384 m 1,0,-1
 256 512 l 1,1,-1
 384 512 l 1,2,-1
 512 512 l 1,3,-1
 512 384 l 1,4,-1
 512 256 l 1,5,-1
 448 256 l 1,6,-1
 384 256 l 1,7,-1
 384 192 l 1,8,-1
 384 128 l 1,9,-1
 256 128 l 1,10,-1
 128 128 l 1,11,-1
 128 192 l 1,12,-1
 128 256 l 1,13,-1
 192 256 l 1,14,-1
 256 256 l 1,15,-1
 256 384 l 1,0,-1
256 768 m 1,16,-1
 256 896 l 1,17,-1
 384 896 l 1,18,-1
 512 896 l 1,19,-1
 512 768 l 1,20,-1
 512 640 l 1,21,-1
 384 640 l 1,22,-1
 256 640 l 1,23,-1
 256 768 l 1,16,-1
EndSplineSet
EndChar

StartChar: less
Encoding: 60 60 31
Width: 1024
GlyphClass: 2
Flags: W
LayerCount: 2
Fore
SplineSet
512 960 m 1,0,-1
 512 1024 l 1,1,-1
 640 1024 l 1,2,-1
 768 1024 l 1,3,-1
 768 960 l 1,4,-1
 768 896 l 1,5,-1
 704 896 l 1,6,-1
 640 896 l 1,7,-1
 640 832 l 1,8,-1
 640 768 l 1,9,-1
 576 768 l 1,10,-1
 512 768 l 1,11,-1
 512 704 l 1,12,-1
 512 640 l 1,13,-1
 448 640 l 1,14,-1
 384 640 l 1,15,-1
 384 576 l 1,16,-1
 384 512 l 1,17,-1
 448 512 l 1,18,-1
 512 512 l 1,19,-1
 512 448 l 1,20,-1
 512 384 l 1,21,-1
 576 384 l 1,22,-1
 640 384 l 1,23,-1
 640 320 l 1,24,-1
 640 256 l 1,25,-1
 704 256 l 1,26,-1
 768 256 l 1,27,-1
 768 192 l 1,28,-1
 768 128 l 1,29,-1
 640 128 l 1,30,-1
 512 128 l 1,31,-1
 512 192 l 1,32,-1
 512 256 l 1,33,-1
 448 256 l 1,34,-1
 384 256 l 1,35,-1
 384 320 l 1,36,-1
 384 384 l 1,37,-1
 320 384 l 1,38,-1
 256 384 l 1,39,-1
 256 448 l 1,40,-1
 256 512 l 1,41,-1
 192 512 l 1,42,-1
 128 512 l 1,43,-1
 128 576 l 1,44,-1
 128 640 l 1,45,-1
 192 640 l 1,46,-1
 256 640 l 1,47,-1
 256 704 l 1,48,-1
 256 768 l 1,49,-1
 320 768 l 1,50,-1
 384 768 l 1,51,-1
 384 832 l 1,52,-1
 384 896 l 1,53,-1
 448 896 l 1,54,-1
 512 896 l 1,55,-1
 512 960 l 1,0,-1
EndSplineSet
EndChar

StartChar: equal
Encoding: 61 61 32
Width: 1024
GlyphClass: 2
Flags: W
LayerCount: 2
Fore
SplineSet
0 448 m 1,0,-1
 0 512 l 1,1,-1
 448 512 l 1,2,-1
 896 512 l 1,3,-1
 896 448 l 1,4,-1
 896 384 l 1,5,-1
 448 384 l 1,6,-1
 0 384 l 1,7,-1
 0 448 l 1,0,-1
0 704 m 1,8,-1
 0 768 l 1,9,-1
 448 768 l 1,10,-1
 896 768 l 1,11,-1
 896 704 l 1,12,-1
 896 640 l 1,13,-1
 448 640 l 1,14,-1
 0 640 l 1,15,-1
 0 704 l 1,8,-1
EndSplineSet
EndChar

StartChar: greater
Encoding: 62 62 33
Width: 1024
GlyphClass: 2
Flags: W
LayerCount: 2
Fore
SplineSet
128 960 m 1,0,-1
 128 1024 l 1,1,-1
 256 1024 l 1,2,-1
 384 1024 l 1,3,-1
 384 960 l 1,4,-1
 384 896 l 1,5,-1
 448 896 l 1,6,-1
 512 896 l 1,7,-1
 512 832 l 1,8,-1
 512 768 l 1,9,-1
 576 768 l 1,10,-1
 640 768 l 1,11,-1
 640 704 l 1,12,-1
 640 640 l 1,13,-1
 704 640 l 1,14,-1
 768 640 l 1,15,-1
 768 576 l 1,16,-1
 768 512 l 1,17,-1
 704 512 l 1,18,-1
 640 512 l 1,19,-1
 640 448 l 1,20,-1
 640 384 l 1,21,-1
 576 384 l 1,22,-1
 512 384 l 1,23,-1
 512 320 l 1,24,-1
 512 256 l 1,25,-1
 448 256 l 1,26,-1
 384 256 l 1,27,-1
 384 192 l 1,28,-1
 384 128 l 1,29,-1
 256 128 l 1,30,-1
 128 128 l 1,31,-1
 128 192 l 1,32,-1
 128 256 l 1,33,-1
 192 256 l 1,34,-1
 256 256 l 1,35,-1
 256 320 l 1,36,-1
 256 384 l 1,37,-1
 320 384 l 1,38,-1
 384 384 l 1,39,-1
 384 448 l 1,40,-1
 384 512 l 1,41,-1
 448 512 l 1,42,-1
 512 512 l 1,43,-1
 512 576 l 1,44,-1
 512 640 l 1,45,-1
 448 640 l 1,46,-1
 384 640 l 1,47,-1
 384 704 l 1,48,-1
 384 768 l 1,49,-1
 320 768 l 1,50,-1
 256 768 l 1,51,-1
 256 832 l 1,52,-1
 256 896 l 1,53,-1
 192 896 l 1,54,-1
 128 896 l 1,55,-1
 128 960 l 1,0,-1
EndSplineSet
EndChar

StartChar: question
Encoding: 63 63 34
Width: 1024
GlyphClass: 2
Flags: W
LayerCount: 2
Fore
SplineSet
256 192 m 1,0,-1
 256 256 l 1,1,-1
 448 256 l 1,2,-1
 640 256 l 1,3,-1
 640 192 l 1,4,-1
 640 128 l 1,5,-1
 448 128 l 1,6,-1
 256 128 l 1,7,-1
 256 192 l 1,0,-1
128 960 m 1,8,-1
 128 1024 l 1,9,-1
 448 1024 l 1,10,-1
 768 1024 l 1,11,-1
 768 960 l 1,12,-1
 768 896 l 1,13,-1
 832 896 l 1,14,-1
 896 896 l 1,15,-1
 896 768 l 1,16,-1
 896 640 l 1,17,-1
 832 640 l 1,18,-1
 768 640 l 1,19,-1
 768 576 l 1,20,-1
 768 512 l 1,21,-1
 704 512 l 1,22,-1
 640 512 l 1,23,-1
 640 448 l 1,24,-1
 640 384 l 1,25,-1
 448 384 l 1,26,-1
 256 384 l 1,27,-1
 256 448 l 1,28,-1
 256 512 l 1,29,-1
 384 512 l 1,30,-1
 512 512 l 1,31,-1
 512 576 l 1,32,-1
 512 640 l 1,33,-1
 576 640 l 1,34,-1
 640 640 l 1,35,-1
 640 704 l 1,36,-1
 640 768 l 1,37,-1
 448 768 l 1,38,-1
 256 768 l 1,39,-1
 256 704 l 1,40,-1
 256 640 l 1,41,-1
 128 640 l 1,42,-1
 0 640 l 1,43,-1
 0 768 l 1,44,-1
 0 896 l 1,45,-1
 64 896 l 1,46,-1
 128 896 l 1,47,-1
 128 960 l 1,8,-1
EndSplineSet
EndChar

StartChar: at
Encoding: 64 64 35
Width: 1024
GlyphClass: 2
Flags: W
LayerCount: 2
Fore
SplineSet
128 960 m 1,0,-1
 128 1024 l 1,1,-1
 448 1024 l 1,2,-1
 768 1024 l 1,3,-1
 768 960 l 1,4,-1
 768 896 l 1,5,-1
 832 896 l 1,6,-1
 896 896 l 1,7,-1
 896 640 l 1,8,-1
 896 384 l 1,9,-1
 576 384 l 1,10,-1
 256 384 l 1,11,-1
 256 576 l 1,12,-1
 256 768 l 1,13,-1
 448 768 l 1,14,-1
 640 768 l 1,15,-1
 640 640 l 1,16,-1
 640 512 l 1,17,-1
 704 512 l 1,18,-1
 768 512 l 1,19,-1
 768 704 l 1,20,-1
 768 896 l 1,21,-1
 448 896 l 1,22,-1
 128 896 l 1,23,-1
 128 576 l 1,24,-1
 128 256 l 1,25,-1
 448 256 l 1,26,-1
 768 256 l 1,27,-1
 768 192 l 1,28,-1
 768 128 l 1,29,-1
 448 128 l 1,30,-1
 128 128 l 1,31,-1
 128 192 l 1,32,-1
 128 256 l 1,33,-1
 64 256 l 1,34,-1
 0 256 l 1,35,-1
 0 576 l 1,36,-1
 0 896 l 1,37,-1
 64 896 l 1,38,-1
 128 896 l 1,39,-1
 128 960 l 1,0,-1
512 576 m 1,40,-1
 512 640 l 1,41,-1
 448 640 l 1,42,-1
 384 640 l 1,43,-1
 384 576 l 1,44,-1
 384 512 l 1,45,-1
 448 512 l 1,46,-1
 512 512 l 1,47,-1
 512 576 l 1,40,-1
EndSplineSet
EndChar

StartChar: A
Encoding: 65 65 36
Width: 1024
GlyphClass: 2
Flags: W
LayerCount: 2
Fore
SplineSet
256 960 m 1,0,-1
 256 1024 l 1,1,-1
 448 1024 l 1,2,-1
 640 1024 l 1,3,-1
 640 960 l 1,4,-1
 640 896 l 1,5,-1
 704 896 l 1,6,-1
 768 896 l 1,7,-1
 768 832 l 1,8,-1
 768 768 l 1,9,-1
 832 768 l 1,10,-1
 896 768 l 1,11,-1
 896 448 l 1,12,-1
 896 128 l 1,13,-1
 768 128 l 1,14,-1
 640 128 l 1,15,-1
 640 256 l 1,16,-1
 640 384 l 1,17,-1
 448 384 l 1,18,-1
 256 384 l 1,19,-1
 256 256 l 1,20,-1
 256 128 l 1,21,-1
 128 128 l 1,22,-1
 0 128 l 1,23,-1
 0 448 l 1,24,-1
 0 768 l 1,25,-1
 64 768 l 1,26,-1
 128 768 l 1,27,-1
 128 832 l 1,28,-1
 128 896 l 1,29,-1
 192 896 l 1,30,-1
 256 896 l 1,31,-1
 256 960 l 1,0,-1
512 832 m 1,32,-1
 512 896 l 1,33,-1
 448 896 l 1,34,-1
 384 896 l 1,35,-1
 384 832 l 1,36,-1
 384 768 l 1,37,-1
 320 768 l 1,38,-1
 256 768 l 1,39,-1
 256 640 l 1,40,-1
 256 512 l 1,41,-1
 448 512 l 1,42,-1
 640 512 l 1,43,-1
 640 640 l 1,44,-1
 640 768 l 1,45,-1
 576 768 l 1,46,-1
 512 768 l 1,47,-1
 512 832 l 1,32,-1
EndSplineSet
EndChar

StartChar: B
Encoding: 66 66 37
Width: 1024
GlyphClass: 2
Flags: W
LayerCount: 2
Fore
SplineSet
0 576 m 1,0,-1
 0 1024 l 1,1,-1
 384 1024 l 1,2,-1
 768 1024 l 1,3,-1
 768 960 l 1,4,-1
 768 896 l 1,5,-1
 832 896 l 1,6,-1
 896 896 l 1,7,-1
 896 768 l 1,8,-1
 896 640 l 1,9,-1
 832 640 l 1,10,-1
 768 640 l 1,11,-1
 768 576 l 1,12,-1
 768 512 l 1,13,-1
 832 512 l 1,14,-1
 896 512 l 1,15,-1
 896 384 l 1,16,-1
 896 256 l 1,17,-1
 832 256 l 1,18,-1
 768 256 l 1,19,-1
 768 192 l 1,20,-1
 768 128 l 1,21,-1
 384 128 l 1,22,-1
 0 128 l 1,23,-1
 0 576 l 1,0,-1
640 768 m 1,24,-1
 640 896 l 1,25,-1
 448 896 l 1,26,-1
 256 896 l 1,27,-1
 256 768 l 1,28,-1
 256 640 l 1,29,-1
 448 640 l 1,30,-1
 640 640 l 1,31,-1
 640 768 l 1,24,-1
640 384 m 1,32,-1
 640 512 l 1,33,-1
 448 512 l 1,34,-1
 256 512 l 1,35,-1
 256 384 l 1,36,-1
 256 256 l 1,37,-1
 448 256 l 1,38,-1
 640 256 l 1,39,-1
 640 384 l 1,32,-1
EndSplineSet
EndChar

StartChar: C
Encoding: 67 67 38
Width: 1024
GlyphClass: 2
Flags: W
LayerCount: 2
Fore
SplineSet
256 960 m 1,0,-1
 256 1024 l 1,1,-1
 512 1024 l 1,2,-1
 768 1024 l 1,3,-1
 768 960 l 1,4,-1
 768 896 l 1,5,-1
 832 896 l 1,6,-1
 896 896 l 1,7,-1
 896 832 l 1,8,-1
 896 768 l 1,9,-1
 768 768 l 1,10,-1
 640 768 l 1,11,-1
 640 832 l 1,12,-1
 640 896 l 1,13,-1
 512 896 l 1,14,-1
 384 896 l 1,15,-1
 384 832 l 1,16,-1
 384 768 l 1,17,-1
 320 768 l 1,18,-1
 256 768 l 1,19,-1
 256 576 l 1,20,-1
 256 384 l 1,21,-1
 320 384 l 1,22,-1
 384 384 l 1,23,-1
 384 320 l 1,24,-1
 384 256 l 1,25,-1
 512 256 l 1,26,-1
 640 256 l 1,27,-1
 640 320 l 1,28,-1
 640 384 l 1,29,-1
 768 384 l 1,30,-1
 896 384 l 1,31,-1
 896 320 l 1,32,-1
 896 256 l 1,33,-1
 832 256 l 1,34,-1
 768 256 l 1,35,-1
 768 192 l 1,36,-1
 768 128 l 1,37,-1
 512 128 l 1,38,-1
 256 128 l 1,39,-1
 256 192 l 1,40,-1
 256 256 l 1,41,-1
 192 256 l 1,42,-1
 128 256 l 1,43,-1
 128 320 l 1,44,-1
 128 384 l 1,45,-1
 64 384 l 1,46,-1
 0 384 l 1,47,-1
 0 576 l 1,48,-1
 0 768 l 1,49,-1
 64 768 l 1,50,-1
 128 768 l 1,51,-1
 128 832 l 1,52,-1
 128 896 l 1,53,-1
 192 896 l 1,54,-1
 256 896 l 1,55,-1
 256 960 l 1,0,-1
EndSplineSet
EndChar

StartChar: D
Encoding: 68 68 39
Width: 1024
GlyphClass: 2
Flags: W
LayerCount: 2
Fore
SplineSet
0 576 m 1,0,-1
 0 1024 l 1,1,-1
 320 1024 l 1,2,-1
 640 1024 l 1,3,-1
 640 960 l 1,4,-1
 640 896 l 1,5,-1
 704 896 l 1,6,-1
 768 896 l 1,7,-1
 768 832 l 1,8,-1
 768 768 l 1,9,-1
 832 768 l 1,10,-1
 896 768 l 1,11,-1
 896 576 l 1,12,-1
 896 384 l 1,13,-1
 832 384 l 1,14,-1
 768 384 l 1,15,-1
 768 320 l 1,16,-1
 768 256 l 1,17,-1
 704 256 l 1,18,-1
 640 256 l 1,19,-1
 640 192 l 1,20,-1
 640 128 l 1,21,-1
 320 128 l 1,22,-1
 0 128 l 1,23,-1
 0 576 l 1,0,-1
512 832 m 1,24,-1
 512 896 l 1,25,-1
 384 896 l 1,26,-1
 256 896 l 1,27,-1
 256 576 l 1,28,-1
 256 256 l 1,29,-1
 384 256 l 1,30,-1
 512 256 l 1,31,-1
 512 320 l 1,32,-1
 512 384 l 1,33,-1
 576 384 l 1,34,-1
 640 384 l 1,35,-1
 640 576 l 1,36,-1
 640 768 l 1,37,-1
 576 768 l 1,38,-1
 512 768 l 1,39,-1
 512 832 l 1,24,-1
EndSplineSet
EndChar

StartChar: E
Encoding: 69 69 40
Width: 1024
GlyphClass: 2
Flags: W
LayerCount: 2
Fore
SplineSet
0 576 m 1,0,-1
 0 1024 l 1,1,-1
 448 1024 l 1,2,-1
 896 1024 l 1,3,-1
 896 960 l 1,4,-1
 896 896 l 1,5,-1
 576 896 l 1,6,-1
 256 896 l 1,7,-1
 256 768 l 1,8,-1
 256 640 l 1,9,-1
 512 640 l 1,10,-1
 768 640 l 1,11,-1
 768 576 l 1,12,-1
 768 512 l 1,13,-1
 512 512 l 1,14,-1
 256 512 l 1,15,-1
 256 384 l 1,16,-1
 256 256 l 1,17,-1
 576 256 l 1,18,-1
 896 256 l 1,19,-1
 896 192 l 1,20,-1
 896 128 l 1,21,-1
 448 128 l 1,22,-1
 0 128 l 1,23,-1
 0 576 l 1,0,-1
EndSplineSet
EndChar

StartChar: F
Encoding: 70 70 41
Width: 1024
GlyphClass: 2
Flags: W
LayerCount: 2
Fore
SplineSet
0 576 m 1,0,-1
 0 1024 l 1,1,-1
 448 1024 l 1,2,-1
 896 1024 l 1,3,-1
 896 960 l 1,4,-1
 896 896 l 1,5,-1
 576 896 l 1,6,-1
 256 896 l 1,7,-1
 256 768 l 1,8,-1
 256 640 l 1,9,-1
 512 640 l 1,10,-1
 768 640 l 1,11,-1
 768 576 l 1,12,-1
 768 512 l 1,13,-1
 512 512 l 1,14,-1
 256 512 l 1,15,-1
 256 320 l 1,16,-1
 256 128 l 1,17,-1
 128 128 l 1,18,-1
 0 128 l 1,19,-1
 0 576 l 1,0,-1
EndSplineSet
EndChar

StartChar: G
Encoding: 71 71 42
Width: 1024
GlyphClass: 2
Flags: W
LayerCount: 2
Fore
SplineSet
256 960 m 1,0,-1
 256 1024 l 1,1,-1
 576 1024 l 1,2,-1
 896 1024 l 1,3,-1
 896 960 l 1,4,-1
 896 896 l 1,5,-1
 640 896 l 1,6,-1
 384 896 l 1,7,-1
 384 832 l 1,8,-1
 384 768 l 1,9,-1
 320 768 l 1,10,-1
 256 768 l 1,11,-1
 256 576 l 1,12,-1
 256 384 l 1,13,-1
 320 384 l 1,14,-1
 384 384 l 1,15,-1
 384 320 l 1,16,-1
 384 256 l 1,17,-1
 512 256 l 1,18,-1
 640 256 l 1,19,-1
 640 384 l 1,20,-1
 640 512 l 1,21,-1
 576 512 l 1,22,-1
 512 512 l 1,23,-1
 512 576 l 1,24,-1
 512 640 l 1,25,-1
 704 640 l 1,26,-1
 896 640 l 1,27,-1
 896 384 l 1,28,-1
 896 128 l 1,29,-1
 576 128 l 1,30,-1
 256 128 l 1,31,-1
 256 192 l 1,32,-1
 256 256 l 1,33,-1
 192 256 l 1,34,-1
 128 256 l 1,35,-1
 128 320 l 1,36,-1
 128 384 l 1,37,-1
 64 384 l 1,38,-1
 0 384 l 1,39,-1
 0 576 l 1,40,-1
 0 768 l 1,41,-1
 64 768 l 1,42,-1
 128 768 l 1,43,-1
 128 832 l 1,44,-1
 128 896 l 1,45,-1
 192 896 l 1,46,-1
 256 896 l 1,47,-1
 256 960 l 1,0,-1
EndSplineSet
EndChar

StartChar: H
Encoding: 72 72 43
Width: 1024
GlyphClass: 2
Flags: W
LayerCount: 2
Fore
SplineSet
0 576 m 1,0,-1
 0 1024 l 1,1,-1
 128 1024 l 1,2,-1
 256 1024 l 1,3,-1
 256 832 l 1,4,-1
 256 640 l 1,5,-1
 448 640 l 1,6,-1
 640 640 l 1,7,-1
 640 832 l 1,8,-1
 640 1024 l 1,9,-1
 768 1024 l 1,10,-1
 896 1024 l 1,11,-1
 896 576 l 1,12,-1
 896 128 l 1,13,-1
 768 128 l 1,14,-1
 640 128 l 1,15,-1
 640 320 l 1,16,-1
 640 512 l 1,17,-1
 448 512 l 1,18,-1
 256 512 l 1,19,-1
 256 320 l 1,20,-1
 256 128 l 1,21,-1
 128 128 l 1,22,-1
 0 128 l 1,23,-1
 0 576 l 1,0,-1
EndSplineSet
EndChar

StartChar: I
Encoding: 73 73 44
Width: 1024
GlyphClass: 2
Flags: W
LayerCount: 2
Fore
SplineSet
128 960 m 1,0,-1
 128 1024 l 1,1,-1
 512 1024 l 1,2,-1
 896 1024 l 1,3,-1
 896 960 l 1,4,-1
 896 896 l 1,5,-1
 768 896 l 1,6,-1
 640 896 l 1,7,-1
 640 576 l 1,8,-1
 640 256 l 1,9,-1
 768 256 l 1,10,-1
 896 256 l 1,11,-1
 896 192 l 1,12,-1
 896 128 l 1,13,-1
 512 128 l 1,14,-1
 128 128 l 1,15,-1
 128 192 l 1,16,-1
 128 256 l 1,17,-1
 256 256 l 1,18,-1
 384 256 l 1,19,-1
 384 576 l 1,20,-1
 384 896 l 1,21,-1
 256 896 l 1,22,-1
 128 896 l 1,23,-1
 128 960 l 1,0,-1
EndSplineSet
EndChar

StartChar: J
Encoding: 74 74 45
Width: 1024
GlyphClass: 2
Flags: W
LayerCount: 2
Fore
SplineSet
640 640 m 1,0,-1
 640 1024 l 1,1,-1
 768 1024 l 1,2,-1
 896 1024 l 1,3,-1
 896 640 l 1,4,-1
 896 256 l 1,5,-1
 832 256 l 1,6,-1
 768 256 l 1,7,-1
 768 192 l 1,8,-1
 768 128 l 1,9,-1
 448 128 l 1,10,-1
 128 128 l 1,11,-1
 128 192 l 1,12,-1
 128 256 l 1,13,-1
 64 256 l 1,14,-1
 0 256 l 1,15,-1
 0 320 l 1,16,-1
 0 384 l 1,17,-1
 128 384 l 1,18,-1
 256 384 l 1,19,-1
 256 320 l 1,20,-1
 256 256 l 1,21,-1
 448 256 l 1,22,-1
 640 256 l 1,23,-1
 640 640 l 1,0,-1
EndSplineSet
EndChar

StartChar: K
Encoding: 75 75 46
Width: 1024
GlyphClass: 2
Flags: W
LayerCount: 2
Fore
SplineSet
0 576 m 1,0,-1
 0 1024 l 1,1,-1
 128 1024 l 1,2,-1
 256 1024 l 1,3,-1
 256 832 l 1,4,-1
 256 640 l 1,5,-1
 320 640 l 1,6,-1
 384 640 l 1,7,-1
 384 704 l 1,8,-1
 384 768 l 1,9,-1
 448 768 l 1,10,-1
 512 768 l 1,11,-1
 512 832 l 1,12,-1
 512 896 l 1,13,-1
 576 896 l 1,14,-1
 640 896 l 1,15,-1
 640 960 l 1,16,-1
 640 1024 l 1,17,-1
 768 1024 l 1,18,-1
 896 1024 l 1,19,-1
 896 960 l 1,20,-1
 896 896 l 1,21,-1
 832 896 l 1,22,-1
 768 896 l 1,23,-1
 768 832 l 1,24,-1
 768 768 l 1,25,-1
 704 768 l 1,26,-1
 640 768 l 1,27,-1
 640 704 l 1,28,-1
 640 640 l 1,29,-1
 576 640 l 1,30,-1
 512 640 l 1,31,-1
 512 576 l 1,32,-1
 512 512 l 1,33,-1
 576 512 l 1,34,-1
 640 512 l 1,35,-1
 640 448 l 1,36,-1
 640 384 l 1,37,-1
 704 384 l 1,38,-1
 768 384 l 1,39,-1
 768 320 l 1,40,-1
 768 256 l 1,41,-1
 832 256 l 1,42,-1
 896 256 l 1,43,-1
 896 192 l 1,44,-1
 896 128 l 1,45,-1
 704 128 l 1,46,-1
 512 128 l 1,47,-1
 512 192 l 1,48,-1
 512 256 l 1,49,-1
 448 256 l 1,50,-1
 384 256 l 1,51,-1
 384 320 l 1,52,-1
 384 384 l 1,53,-1
 320 384 l 1,54,-1
 256 384 l 1,55,-1
 256 256 l 1,56,-1
 256 128 l 1,57,-1
 128 128 l 1,58,-1
 0 128 l 1,59,-1
 0 576 l 1,0,-1
EndSplineSet
EndChar

StartChar: L
Encoding: 76 76 47
Width: 1024
GlyphClass: 2
Flags: W
LayerCount: 2
Fore
SplineSet
128 576 m 1,0,-1
 128 1024 l 1,1,-1
 256 1024 l 1,2,-1
 384 1024 l 1,3,-1
 384 640 l 1,4,-1
 384 256 l 1,5,-1
 640 256 l 1,6,-1
 896 256 l 1,7,-1
 896 192 l 1,8,-1
 896 128 l 1,9,-1
 512 128 l 1,10,-1
 128 128 l 1,11,-1
 128 576 l 1,0,-1
EndSplineSet
EndChar

StartChar: M
Encoding: 77 77 48
Width: 1024
GlyphClass: 2
Flags: W
LayerCount: 2
Fore
SplineSet
0 576 m 1,0,-1
 0 1024 l 1,1,-1
 128 1024 l 1,2,-1
 256 1024 l 1,3,-1
 256 960 l 1,4,-1
 256 896 l 1,5,-1
 320 896 l 1,6,-1
 384 896 l 1,7,-1
 384 832 l 1,8,-1
 384 768 l 1,9,-1
 448 768 l 1,10,-1
 512 768 l 1,11,-1
 512 832 l 1,12,-1
 512 896 l 1,13,-1
 576 896 l 1,14,-1
 640 896 l 1,15,-1
 640 960 l 1,16,-1
 640 1024 l 1,17,-1
 768 1024 l 1,18,-1
 896 1024 l 1,19,-1
 896 576 l 1,20,-1
 896 128 l 1,21,-1
 768 128 l 1,22,-1
 640 128 l 1,23,-1
 640 320 l 1,24,-1
 640 512 l 1,25,-1
 576 512 l 1,26,-1
 512 512 l 1,27,-1
 512 448 l 1,28,-1
 512 384 l 1,29,-1
 448 384 l 1,30,-1
 384 384 l 1,31,-1
 384 448 l 1,32,-1
 384 512 l 1,33,-1
 320 512 l 1,34,-1
 256 512 l 1,35,-1
 256 320 l 1,36,-1
 256 128 l 1,37,-1
 128 128 l 1,38,-1
 0 128 l 1,39,-1
 0 576 l 1,0,-1
EndSplineSet
EndChar

StartChar: N
Encoding: 78 78 49
Width: 1024
GlyphClass: 2
Flags: W
LayerCount: 2
Fore
SplineSet
0 576 m 1,0,-1
 0 1024 l 1,1,-1
 128 1024 l 1,2,-1
 256 1024 l 1,3,-1
 256 960 l 1,4,-1
 256 896 l 1,5,-1
 320 896 l 1,6,-1
 384 896 l 1,7,-1
 384 832 l 1,8,-1
 384 768 l 1,9,-1
 448 768 l 1,10,-1
 512 768 l 1,11,-1
 512 704 l 1,12,-1
 512 640 l 1,13,-1
 576 640 l 1,14,-1
 640 640 l 1,15,-1
 640 832 l 1,16,-1
 640 1024 l 1,17,-1
 768 1024 l 1,18,-1
 896 1024 l 1,19,-1
 896 576 l 1,20,-1
 896 128 l 1,21,-1
 768 128 l 1,22,-1
 640 128 l 1,23,-1
 640 192 l 1,24,-1
 640 256 l 1,25,-1
 576 256 l 1,26,-1
 512 256 l 1,27,-1
 512 320 l 1,28,-1
 512 384 l 1,29,-1
 448 384 l 1,30,-1
 384 384 l 1,31,-1
 384 448 l 1,32,-1
 384 512 l 1,33,-1
 320 512 l 1,34,-1
 256 512 l 1,35,-1
 256 320 l 1,36,-1
 256 128 l 1,37,-1
 128 128 l 1,38,-1
 0 128 l 1,39,-1
 0 576 l 1,0,-1
EndSplineSet
EndChar

StartChar: O
Encoding: 79 79 50
Width: 1024
GlyphClass: 2
Flags: W
LayerCount: 2
Fore
SplineSet
128 960 m 1,0,-1
 128 1024 l 1,1,-1
 448 1024 l 1,2,-1
 768 1024 l 1,3,-1
 768 960 l 1,4,-1
 768 896 l 1,5,-1
 832 896 l 1,6,-1
 896 896 l 1,7,-1
 896 576 l 1,8,-1
 896 256 l 1,9,-1
 832 256 l 1,10,-1
 768 256 l 1,11,-1
 768 192 l 1,12,-1
 768 128 l 1,13,-1
 448 128 l 1,14,-1
 128 128 l 1,15,-1
 128 192 l 1,16,-1
 128 256 l 1,17,-1
 64 256 l 1,18,-1
 0 256 l 1,19,-1
 0 576 l 1,20,-1
 0 896 l 1,21,-1
 64 896 l 1,22,-1
 128 896 l 1,23,-1
 128 960 l 1,0,-1
640 576 m 1,24,-1
 640 896 l 1,25,-1
 448 896 l 1,26,-1
 256 896 l 1,27,-1
 256 576 l 1,28,-1
 256 256 l 1,29,-1
 448 256 l 1,30,-1
 640 256 l 1,31,-1
 640 576 l 1,24,-1
EndSplineSet
EndChar

StartChar: P
Encoding: 80 80 51
Width: 1024
GlyphClass: 2
Flags: W
LayerCount: 2
Fore
SplineSet
0 576 m 1,0,-1
 0 1024 l 1,1,-1
 384 1024 l 1,2,-1
 768 1024 l 1,3,-1
 768 960 l 1,4,-1
 768 896 l 1,5,-1
 832 896 l 1,6,-1
 896 896 l 1,7,-1
 896 704 l 1,8,-1
 896 512 l 1,9,-1
 832 512 l 1,10,-1
 768 512 l 1,11,-1
 768 448 l 1,12,-1
 768 384 l 1,13,-1
 512 384 l 1,14,-1
 256 384 l 1,15,-1
 256 256 l 1,16,-1
 256 128 l 1,17,-1
 128 128 l 1,18,-1
 0 128 l 1,19,-1
 0 576 l 1,0,-1
640 704 m 1,20,-1
 640 896 l 1,21,-1
 448 896 l 1,22,-1
 256 896 l 1,23,-1
 256 704 l 1,24,-1
 256 512 l 1,25,-1
 448 512 l 1,26,-1
 640 512 l 1,27,-1
 640 704 l 1,20,-1
EndSplineSet
EndChar

StartChar: Q
Encoding: 81 81 52
Width: 1024
GlyphClass: 2
Flags: W
LayerCount: 2
Fore
SplineSet
128 960 m 1,0,-1
 128 1024 l 1,1,-1
 448 1024 l 1,2,-1
 768 1024 l 1,3,-1
 768 960 l 1,4,-1
 768 896 l 1,5,-1
 832 896 l 1,6,-1
 896 896 l 1,7,-1
 896 640 l 1,8,-1
 896 384 l 1,9,-1
 832 384 l 1,10,-1
 768 384 l 1,11,-1
 768 320 l 1,12,-1
 768 256 l 1,13,-1
 832 256 l 1,14,-1
 896 256 l 1,15,-1
 896 192 l 1,16,-1
 896 128 l 1,17,-1
 832 128 l 1,18,-1
 768 128 l 1,19,-1
 768 192 l 1,20,-1
 768 256 l 1,21,-1
 704 256 l 1,22,-1
 640 256 l 1,23,-1
 640 192 l 1,24,-1
 640 128 l 1,25,-1
 384 128 l 1,26,-1
 128 128 l 1,27,-1
 128 192 l 1,28,-1
 128 256 l 1,29,-1
 64 256 l 1,30,-1
 0 256 l 1,31,-1
 0 576 l 1,32,-1
 0 896 l 1,33,-1
 64 896 l 1,34,-1
 128 896 l 1,35,-1
 128 960 l 1,0,-1
640 704 m 1,36,-1
 640 896 l 1,37,-1
 448 896 l 1,38,-1
 256 896 l 1,39,-1
 256 576 l 1,40,-1
 256 256 l 1,41,-1
 384 256 l 1,42,-1
 512 256 l 1,43,-1
 512 320 l 1,44,-1
 512 384 l 1,45,-1
 448 384 l 1,46,-1
 384 384 l 1,47,-1
 384 448 l 1,48,-1
 384 512 l 1,49,-1
 512 512 l 1,50,-1
 640 512 l 1,51,-1
 640 704 l 1,36,-1
EndSplineSet
EndChar

StartChar: R
Encoding: 82 82 53
Width: 1024
GlyphClass: 2
Flags: W
LayerCount: 2
Fore
SplineSet
0 576 m 1,0,-1
 0 1024 l 1,1,-1
 384 1024 l 1,2,-1
 768 1024 l 1,3,-1
 768 960 l 1,4,-1
 768 896 l 1,5,-1
 832 896 l 1,6,-1
 896 896 l 1,7,-1
 896 704 l 1,8,-1
 896 512 l 1,9,-1
 768 512 l 1,10,-1
 640 512 l 1,11,-1
 640 448 l 1,12,-1
 640 384 l 1,13,-1
 704 384 l 1,14,-1
 768 384 l 1,15,-1
 768 320 l 1,16,-1
 768 256 l 1,17,-1
 832 256 l 1,18,-1
 896 256 l 1,19,-1
 896 192 l 1,20,-1
 896 128 l 1,21,-1
 704 128 l 1,22,-1
 512 128 l 1,23,-1
 512 192 l 1,24,-1
 512 256 l 1,25,-1
 448 256 l 1,26,-1
 384 256 l 1,27,-1
 384 320 l 1,28,-1
 384 384 l 1,29,-1
 320 384 l 1,30,-1
 256 384 l 1,31,-1
 256 256 l 1,32,-1
 256 128 l 1,33,-1
 128 128 l 1,34,-1
 0 128 l 1,35,-1
 0 576 l 1,0,-1
640 768 m 1,36,-1
 640 896 l 1,37,-1
 448 896 l 1,38,-1
 256 896 l 1,39,-1
 256 704 l 1,40,-1
 256 512 l 1,41,-1
 384 512 l 1,42,-1
 512 512 l 1,43,-1
 512 576 l 1,44,-1
 512 640 l 1,45,-1
 576 640 l 1,46,-1
 640 640 l 1,47,-1
 640 768 l 1,36,-1
EndSplineSet
EndChar

StartChar: S
Encoding: 83 83 54
Width: 1024
GlyphClass: 2
Flags: W
LayerCount: 2
Fore
SplineSet
128 960 m 1,0,-1
 128 1024 l 1,1,-1
 384 1024 l 1,2,-1
 640 1024 l 1,3,-1
 640 960 l 1,4,-1
 640 896 l 1,5,-1
 704 896 l 1,6,-1
 768 896 l 1,7,-1
 768 832 l 1,8,-1
 768 768 l 1,9,-1
 640 768 l 1,10,-1
 512 768 l 1,11,-1
 512 832 l 1,12,-1
 512 896 l 1,13,-1
 384 896 l 1,14,-1
 256 896 l 1,15,-1
 256 768 l 1,16,-1
 256 640 l 1,17,-1
 512 640 l 1,18,-1
 768 640 l 1,19,-1
 768 576 l 1,20,-1
 768 512 l 1,21,-1
 832 512 l 1,22,-1
 896 512 l 1,23,-1
 896 384 l 1,24,-1
 896 256 l 1,25,-1
 832 256 l 1,26,-1
 768 256 l 1,27,-1
 768 192 l 1,28,-1
 768 128 l 1,29,-1
 448 128 l 1,30,-1
 128 128 l 1,31,-1
 128 192 l 1,32,-1
 128 256 l 1,33,-1
 64 256 l 1,34,-1
 0 256 l 1,35,-1
 0 320 l 1,36,-1
 0 384 l 1,37,-1
 128 384 l 1,38,-1
 256 384 l 1,39,-1
 256 320 l 1,40,-1
 256 256 l 1,41,-1
 448 256 l 1,42,-1
 640 256 l 1,43,-1
 640 384 l 1,44,-1
 640 512 l 1,45,-1
 384 512 l 1,46,-1
 128 512 l 1,47,-1
 128 576 l 1,48,-1
 128 640 l 1,49,-1
 64 640 l 1,50,-1
 0 640 l 1,51,-1
 0 768 l 1,52,-1
 0 896 l 1,53,-1
 64 896 l 1,54,-1
 128 896 l 1,55,-1
 128 960 l 1,0,-1
EndSplineSet
EndChar

StartChar: T
Encoding: 84 84 55
Width: 1024
GlyphClass: 2
Flags: W
LayerCount: 2
Fore
SplineSet
128 960 m 1,0,-1
 128 1024 l 1,1,-1
 512 1024 l 1,2,-1
 896 1024 l 1,3,-1
 896 960 l 1,4,-1
 896 896 l 1,5,-1
 768 896 l 1,6,-1
 640 896 l 1,7,-1
 640 512 l 1,8,-1
 640 128 l 1,9,-1
 512 128 l 1,10,-1
 384 128 l 1,11,-1
 384 512 l 1,12,-1
 384 896 l 1,13,-1
 256 896 l 1,14,-1
 128 896 l 1,15,-1
 128 960 l 1,0,-1
EndSplineSet
EndChar

StartChar: U
Encoding: 85 85 56
Width: 1024
GlyphClass: 2
Flags: W
LayerCount: 2
Fore
SplineSet
0 640 m 1,0,-1
 0 1024 l 1,1,-1
 128 1024 l 1,2,-1
 256 1024 l 1,3,-1
 256 640 l 1,4,-1
 256 256 l 1,5,-1
 448 256 l 1,6,-1
 640 256 l 1,7,-1
 640 640 l 1,8,-1
 640 1024 l 1,9,-1
 768 1024 l 1,10,-1
 896 1024 l 1,11,-1
 896 640 l 1,12,-1
 896 256 l 1,13,-1
 832 256 l 1,14,-1
 768 256 l 1,15,-1
 768 192 l 1,16,-1
 768 128 l 1,17,-1
 448 128 l 1,18,-1
 128 128 l 1,19,-1
 128 192 l 1,20,-1
 128 256 l 1,21,-1
 64 256 l 1,22,-1
 0 256 l 1,23,-1
 0 640 l 1,0,-1
EndSplineSet
EndChar

StartChar: V
Encoding: 86 86 57
Width: 1024
GlyphClass: 2
Flags: W
LayerCount: 2
Fore
SplineSet
0 768 m 1,0,-1
 0 1024 l 1,1,-1
 128 1024 l 1,2,-1
 256 1024 l 1,3,-1
 256 832 l 1,4,-1
 256 640 l 1,5,-1
 320 640 l 1,6,-1
 384 640 l 1,7,-1
 384 576 l 1,8,-1
 384 512 l 1,9,-1
 448 512 l 1,10,-1
 512 512 l 1,11,-1
 512 576 l 1,12,-1
 512 640 l 1,13,-1
 576 640 l 1,14,-1
 640 640 l 1,15,-1
 640 832 l 1,16,-1
 640 1024 l 1,17,-1
 768 1024 l 1,18,-1
 896 1024 l 1,19,-1
 896 768 l 1,20,-1
 896 512 l 1,21,-1
 832 512 l 1,22,-1
 768 512 l 1,23,-1
 768 448 l 1,24,-1
 768 384 l 1,25,-1
 704 384 l 1,26,-1
 640 384 l 1,27,-1
 640 320 l 1,28,-1
 640 256 l 1,29,-1
 576 256 l 1,30,-1
 512 256 l 1,31,-1
 512 192 l 1,32,-1
 512 128 l 1,33,-1
 448 128 l 1,34,-1
 384 128 l 1,35,-1
 384 192 l 1,36,-1
 384 256 l 1,37,-1
 320 256 l 1,38,-1
 256 256 l 1,39,-1
 256 320 l 1,40,-1
 256 384 l 1,41,-1
 192 384 l 1,42,-1
 128 384 l 1,43,-1
 128 448 l 1,44,-1
 128 512 l 1,45,-1
 64 512 l 1,46,-1
 0 512 l 1,47,-1
 0 768 l 1,0,-1
EndSplineSet
EndChar

StartChar: W
Encoding: 87 87 58
Width: 1024
GlyphClass: 2
Flags: W
LayerCount: 2
Fore
SplineSet
0 576 m 1,0,-1
 0 1024 l 1,1,-1
 128 1024 l 1,2,-1
 256 1024 l 1,3,-1
 256 832 l 1,4,-1
 256 640 l 1,5,-1
 320 640 l 1,6,-1
 384 640 l 1,7,-1
 384 704 l 1,8,-1
 384 768 l 1,9,-1
 448 768 l 1,10,-1
 512 768 l 1,11,-1
 512 704 l 1,12,-1
 512 640 l 1,13,-1
 576 640 l 1,14,-1
 640 640 l 1,15,-1
 640 832 l 1,16,-1
 640 1024 l 1,17,-1
 768 1024 l 1,18,-1
 896 1024 l 1,19,-1
 896 576 l 1,20,-1
 896 128 l 1,21,-1
 768 128 l 1,22,-1
 640 128 l 1,23,-1
 640 192 l 1,24,-1
 640 256 l 1,25,-1
 576 256 l 1,26,-1
 512 256 l 1,27,-1
 512 320 l 1,28,-1
 512 384 l 1,29,-1
 448 384 l 1,30,-1
 384 384 l 1,31,-1
 384 320 l 1,32,-1
 384 256 l 1,33,-1
 320 256 l 1,34,-1
 256 256 l 1,35,-1
 256 192 l 1,36,-1
 256 128 l 1,37,-1
 128 128 l 1,38,-1
 0 128 l 1,39,-1
 0 576 l 1,0,-1
EndSplineSet
EndChar

StartChar: X
Encoding: 88 88 59
Width: 1024
GlyphClass: 2
Flags: W
LayerCount: 2
Fore
SplineSet
0 896 m 1,0,-1
 0 1024 l 1,1,-1
 128 1024 l 1,2,-1
 256 1024 l 1,3,-1
 256 960 l 1,4,-1
 256 896 l 1,5,-1
 320 896 l 1,6,-1
 384 896 l 1,7,-1
 384 832 l 1,8,-1
 384 768 l 1,9,-1
 448 768 l 1,10,-1
 512 768 l 1,11,-1
 512 832 l 1,12,-1
 512 896 l 1,13,-1
 576 896 l 1,14,-1
 640 896 l 1,15,-1
 640 960 l 1,16,-1
 640 1024 l 1,17,-1
 768 1024 l 1,18,-1
 896 1024 l 1,19,-1
 896 896 l 1,20,-1
 896 768 l 1,21,-1
 832 768 l 1,22,-1
 768 768 l 1,23,-1
 768 704 l 1,24,-1
 768 640 l 1,25,-1
 704 640 l 1,26,-1
 640 640 l 1,27,-1
 640 576 l 1,28,-1
 640 512 l 1,29,-1
 704 512 l 1,30,-1
 768 512 l 1,31,-1
 768 448 l 1,32,-1
 768 384 l 1,33,-1
 832 384 l 1,34,-1
 896 384 l 1,35,-1
 896 256 l 1,36,-1
 896 128 l 1,37,-1
 768 128 l 1,38,-1
 640 128 l 1,39,-1
 640 192 l 1,40,-1
 640 256 l 1,41,-1
 576 256 l 1,42,-1
 512 256 l 1,43,-1
 512 320 l 1,44,-1
 512 384 l 1,45,-1
 448 384 l 1,46,-1
 384 384 l 1,47,-1
 384 320 l 1,48,-1
 384 256 l 1,49,-1
 320 256 l 1,50,-1
 256 256 l 1,51,-1
 256 192 l 1,52,-1
 256 128 l 1,53,-1
 128 128 l 1,54,-1
 0 128 l 1,55,-1
 0 256 l 1,56,-1
 0 384 l 1,57,-1
 64 384 l 1,58,-1
 128 384 l 1,59,-1
 128 448 l 1,60,-1
 128 512 l 1,61,-1
 192 512 l 1,62,-1
 256 512 l 1,63,-1
 256 576 l 1,64,-1
 256 640 l 1,65,-1
 192 640 l 1,66,-1
 128 640 l 1,67,-1
 128 704 l 1,68,-1
 128 768 l 1,69,-1
 64 768 l 1,70,-1
 0 768 l 1,71,-1
 0 896 l 1,0,-1
EndSplineSet
EndChar

StartChar: Y
Encoding: 89 89 60
Width: 1024
GlyphClass: 2
Flags: W
LayerCount: 2
Fore
SplineSet
128 832 m 1,0,-1
 128 1024 l 1,1,-1
 256 1024 l 1,2,-1
 384 1024 l 1,3,-1
 384 832 l 1,4,-1
 384 640 l 1,5,-1
 512 640 l 1,6,-1
 640 640 l 1,7,-1
 640 832 l 1,8,-1
 640 1024 l 1,9,-1
 768 1024 l 1,10,-1
 896 1024 l 1,11,-1
 896 832 l 1,12,-1
 896 640 l 1,13,-1
 832 640 l 1,14,-1
 768 640 l 1,15,-1
 768 576 l 1,16,-1
 768 512 l 1,17,-1
 704 512 l 1,18,-1
 640 512 l 1,19,-1
 640 320 l 1,20,-1
 640 128 l 1,21,-1
 512 128 l 1,22,-1
 384 128 l 1,23,-1
 384 320 l 1,24,-1
 384 512 l 1,25,-1
 320 512 l 1,26,-1
 256 512 l 1,27,-1
 256 576 l 1,28,-1
 256 640 l 1,29,-1
 192 640 l 1,30,-1
 128 640 l 1,31,-1
 128 832 l 1,0,-1
EndSplineSet
EndChar

StartChar: Z
Encoding: 90 90 61
Width: 1024
GlyphClass: 2
Flags: W
LayerCount: 2
Fore
SplineSet
0 960 m 1,0,-1
 0 1024 l 1,1,-1
 448 1024 l 1,2,-1
 896 1024 l 1,3,-1
 896 896 l 1,4,-1
 896 768 l 1,5,-1
 832 768 l 1,6,-1
 768 768 l 1,7,-1
 768 704 l 1,8,-1
 768 640 l 1,9,-1
 704 640 l 1,10,-1
 640 640 l 1,11,-1
 640 576 l 1,12,-1
 640 512 l 1,13,-1
 576 512 l 1,14,-1
 512 512 l 1,15,-1
 512 448 l 1,16,-1
 512 384 l 1,17,-1
 448 384 l 1,18,-1
 384 384 l 1,19,-1
 384 320 l 1,20,-1
 384 256 l 1,21,-1
 640 256 l 1,22,-1
 896 256 l 1,23,-1
 896 192 l 1,24,-1
 896 128 l 1,25,-1
 448 128 l 1,26,-1
 0 128 l 1,27,-1
 0 256 l 1,28,-1
 0 384 l 1,29,-1
 64 384 l 1,30,-1
 128 384 l 1,31,-1
 128 448 l 1,32,-1
 128 512 l 1,33,-1
 192 512 l 1,34,-1
 256 512 l 1,35,-1
 256 576 l 1,36,-1
 256 640 l 1,37,-1
 320 640 l 1,38,-1
 384 640 l 1,39,-1
 384 704 l 1,40,-1
 384 768 l 1,41,-1
 448 768 l 1,42,-1
 512 768 l 1,43,-1
 512 832 l 1,44,-1
 512 896 l 1,45,-1
 256 896 l 1,46,-1
 0 896 l 1,47,-1
 0 960 l 1,0,-1
EndSplineSet
EndChar

StartChar: bracketleft
Encoding: 91 91 62
Width: 1024
GlyphClass: 2
Flags: W
LayerCount: 2
Fore
SplineSet
256 576 m 1,0,-1
 256 1024 l 1,1,-1
 512 1024 l 1,2,-1
 768 1024 l 1,3,-1
 768 960 l 1,4,-1
 768 896 l 1,5,-1
 640 896 l 1,6,-1
 512 896 l 1,7,-1
 512 576 l 1,8,-1
 512 256 l 1,9,-1
 640 256 l 1,10,-1
 768 256 l 1,11,-1
 768 192 l 1,12,-1
 768 128 l 1,13,-1
 512 128 l 1,14,-1
 256 128 l 1,15,-1
 256 576 l 1,0,-1
EndSplineSet
EndChar

StartChar: backslash
Encoding: 92 92 63
Width: 1024
GlyphClass: 2
Flags: W
LayerCount: 2
Fore
SplineSet
0 960 m 1,0,-1
 0 1024 l 1,1,-1
 64 1024 l 1,2,-1
 128 1024 l 1,3,-1
 128 960 l 1,4,-1
 128 896 l 1,5,-1
 192 896 l 1,6,-1
 256 896 l 1,7,-1
 256 832 l 1,8,-1
 256 768 l 1,9,-1
 320 768 l 1,10,-1
 384 768 l 1,11,-1
 384 704 l 1,12,-1
 384 640 l 1,13,-1
 448 640 l 1,14,-1
 512 640 l 1,15,-1
 512 576 l 1,16,-1
 512 512 l 1,17,-1
 576 512 l 1,18,-1
 640 512 l 1,19,-1
 640 448 l 1,20,-1
 640 384 l 1,21,-1
 704 384 l 1,22,-1
 768 384 l 1,23,-1
 768 320 l 1,24,-1
 768 256 l 1,25,-1
 832 256 l 1,26,-1
 896 256 l 1,27,-1
 896 192 l 1,28,-1
 896 128 l 1,29,-1
 832 128 l 1,30,-1
 768 128 l 1,31,-1
 768 192 l 1,32,-1
 768 256 l 1,33,-1
 704 256 l 1,34,-1
 640 256 l 1,35,-1
 640 320 l 1,36,-1
 640 384 l 1,37,-1
 576 384 l 1,38,-1
 512 384 l 1,39,-1
 512 448 l 1,40,-1
 512 512 l 1,41,-1
 448 512 l 1,42,-1
 384 512 l 1,43,-1
 384 576 l 1,44,-1
 384 640 l 1,45,-1
 320 640 l 1,46,-1
 256 640 l 1,47,-1
 256 704 l 1,48,-1
 256 768 l 1,49,-1
 192 768 l 1,50,-1
 128 768 l 1,51,-1
 128 832 l 1,52,-1
 128 896 l 1,53,-1
 64 896 l 1,54,-1
 0 896 l 1,55,-1
 0 960 l 1,0,-1
EndSplineSet
EndChar

StartChar: bracketright
Encoding: 93 93 64
Width: 1024
GlyphClass: 2
Flags: W
LayerCount: 2
Fore
SplineSet
128 960 m 1,0,-1
 128 1024 l 1,1,-1
 384 1024 l 1,2,-1
 640 1024 l 1,3,-1
 640 576 l 1,4,-1
 640 128 l 1,5,-1
 384 128 l 1,6,-1
 128 128 l 1,7,-1
 128 192 l 1,8,-1
 128 256 l 1,9,-1
 256 256 l 1,10,-1
 384 256 l 1,11,-1
 384 576 l 1,12,-1
 384 896 l 1,13,-1
 256 896 l 1,14,-1
 128 896 l 1,15,-1
 128 960 l 1,0,-1
EndSplineSet
EndChar

StartChar: asciicircum
Encoding: 94 94 65
Width: 1024
GlyphClass: 2
Flags: W
LayerCount: 2
Fore
SplineSet
256 960 m 1,0,-1
 256 1024 l 1,1,-1
 448 1024 l 1,2,-1
 640 1024 l 1,3,-1
 640 960 l 1,4,-1
 640 896 l 1,5,-1
 704 896 l 1,6,-1
 768 896 l 1,7,-1
 768 832 l 1,8,-1
 768 768 l 1,9,-1
 640 768 l 1,10,-1
 512 768 l 1,11,-1
 512 832 l 1,12,-1
 512 896 l 1,13,-1
 448 896 l 1,14,-1
 384 896 l 1,15,-1
 384 832 l 1,16,-1
 384 768 l 1,17,-1
 256 768 l 1,18,-1
 128 768 l 1,19,-1
 128 832 l 1,20,-1
 128 896 l 1,21,-1
 192 896 l 1,22,-1
 256 896 l 1,23,-1
 256 960 l 1,0,-1
EndSplineSet
EndChar

StartChar: underscore
Encoding: 95 95 66
Width: 1024
GlyphClass: 2
Flags: W
LayerCount: 2
Fore
SplineSet
0 64 m 1,0,-1
 0 128 l 1,1,-1
 448 128 l 1,2,-1
 896 128 l 1,3,-1
 896 64 l 1,4,-1
 896 0 l 1,5,-1
 448 0 l 1,6,-1
 0 0 l 1,7,-1
 0 64 l 1,0,-1
EndSplineSet
EndChar

StartChar: grave
Encoding: 96 96 67
Width: 1024
GlyphClass: 2
Flags: W
LayerCount: 2
Fore
SplineSet
384 960 m 1,0,-1
 384 1024 l 1,1,-1
 448 1024 l 1,2,-1
 512 1024 l 1,3,-1
 512 960 l 1,4,-1
 512 896 l 1,5,-1
 576 896 l 1,6,-1
 640 896 l 1,7,-1
 640 832 l 1,8,-1
 640 768 l 1,9,-1
 576 768 l 1,10,-1
 512 768 l 1,11,-1
 512 832 l 1,12,-1
 512 896 l 1,13,-1
 448 896 l 1,14,-1
 384 896 l 1,15,-1
 384 960 l 1,0,-1
EndSplineSet
EndChar

StartChar: a
Encoding: 97 97 68
Width: 1024
GlyphClass: 2
Flags: W
LayerCount: 2
Fore
SplineSet
128 704 m 1,0,-1
 128 768 l 1,1,-1
 448 768 l 1,2,-1
 768 768 l 1,3,-1
 768 704 l 1,4,-1
 768 640 l 1,5,-1
 832 640 l 1,6,-1
 896 640 l 1,7,-1
 896 384 l 1,8,-1
 896 128 l 1,9,-1
 512 128 l 1,10,-1
 128 128 l 1,11,-1
 128 192 l 1,12,-1
 128 256 l 1,13,-1
 64 256 l 1,14,-1
 0 256 l 1,15,-1
 0 320 l 1,16,-1
 0 384 l 1,17,-1
 64 384 l 1,18,-1
 128 384 l 1,19,-1
 128 448 l 1,20,-1
 128 512 l 1,21,-1
 384 512 l 1,22,-1
 640 512 l 1,23,-1
 640 576 l 1,24,-1
 640 640 l 1,25,-1
 384 640 l 1,26,-1
 128 640 l 1,27,-1
 128 704 l 1,0,-1
640 320 m 1,28,-1
 640 384 l 1,29,-1
 448 384 l 1,30,-1
 256 384 l 1,31,-1
 256 320 l 1,32,-1
 256 256 l 1,33,-1
 448 256 l 1,34,-1
 640 256 l 1,35,-1
 640 320 l 1,28,-1
EndSplineSet
EndChar

StartChar: b
Encoding: 98 98 69
Width: 1024
GlyphClass: 2
Flags: W
LayerCount: 2
Fore
SplineSet
0 640 m 1,0,-1
 0 1024 l 1,1,-1
 128 1024 l 1,2,-1
 256 1024 l 1,3,-1
 256 896 l 1,4,-1
 256 768 l 1,5,-1
 512 768 l 1,6,-1
 768 768 l 1,7,-1
 768 704 l 1,8,-1
 768 640 l 1,9,-1
 832 640 l 1,10,-1
 896 640 l 1,11,-1
 896 448 l 1,12,-1
 896 256 l 1,13,-1
 832 256 l 1,14,-1
 768 256 l 1,15,-1
 768 192 l 1,16,-1
 768 128 l 1,17,-1
 448 128 l 1,18,-1
 128 128 l 1,19,-1
 128 192 l 1,20,-1
 128 256 l 1,21,-1
 64 256 l 1,22,-1
 0 256 l 1,23,-1
 0 640 l 1,0,-1
640 448 m 1,24,-1
 640 640 l 1,25,-1
 448 640 l 1,26,-1
 256 640 l 1,27,-1
 256 448 l 1,28,-1
 256 256 l 1,29,-1
 448 256 l 1,30,-1
 640 256 l 1,31,-1
 640 448 l 1,24,-1
EndSplineSet
EndChar

StartChar: c
Encoding: 99 99 70
Width: 1024
GlyphClass: 2
Flags: W
LayerCount: 2
Fore
SplineSet
128 704 m 1,0,-1
 128 768 l 1,1,-1
 512 768 l 1,2,-1
 896 768 l 1,3,-1
 896 704 l 1,4,-1
 896 640 l 1,5,-1
 576 640 l 1,6,-1
 256 640 l 1,7,-1
 256 448 l 1,8,-1
 256 256 l 1,9,-1
 576 256 l 1,10,-1
 896 256 l 1,11,-1
 896 192 l 1,12,-1
 896 128 l 1,13,-1
 512 128 l 1,14,-1
 128 128 l 1,15,-1
 128 192 l 1,16,-1
 128 256 l 1,17,-1
 64 256 l 1,18,-1
 0 256 l 1,19,-1
 0 448 l 1,20,-1
 0 640 l 1,21,-1
 64 640 l 1,22,-1
 128 640 l 1,23,-1
 128 704 l 1,0,-1
EndSplineSet
EndChar

StartChar: d
Encoding: 100 100 71
Width: 1024
GlyphClass: 2
Flags: W
LayerCount: 2
Fore
SplineSet
640 896 m 1,0,-1
 640 1024 l 1,1,-1
 768 1024 l 1,2,-1
 896 1024 l 1,3,-1
 896 576 l 1,4,-1
 896 128 l 1,5,-1
 512 128 l 1,6,-1
 128 128 l 1,7,-1
 128 192 l 1,8,-1
 128 256 l 1,9,-1
 64 256 l 1,10,-1
 0 256 l 1,11,-1
 0 448 l 1,12,-1
 0 640 l 1,13,-1
 64 640 l 1,14,-1
 128 640 l 1,15,-1
 128 704 l 1,16,-1
 128 768 l 1,17,-1
 384 768 l 1,18,-1
 640 768 l 1,19,-1
 640 896 l 1,0,-1
640 448 m 1,20,-1
 640 640 l 1,21,-1
 448 640 l 1,22,-1
 256 640 l 1,23,-1
 256 448 l 1,24,-1
 256 256 l 1,25,-1
 448 256 l 1,26,-1
 640 256 l 1,27,-1
 640 448 l 1,20,-1
EndSplineSet
EndChar

StartChar: e
Encoding: 101 101 72
Width: 1024
GlyphClass: 2
Flags: W
LayerCount: 2
Fore
SplineSet
128 704 m 1,0,-1
 128 768 l 1,1,-1
 448 768 l 1,2,-1
 768 768 l 1,3,-1
 768 704 l 1,4,-1
 768 640 l 1,5,-1
 832 640 l 1,6,-1
 896 640 l 1,7,-1
 896 512 l 1,8,-1
 896 384 l 1,9,-1
 576 384 l 1,10,-1
 256 384 l 1,11,-1
 256 320 l 1,12,-1
 256 256 l 1,13,-1
 512 256 l 1,14,-1
 768 256 l 1,15,-1
 768 192 l 1,16,-1
 768 128 l 1,17,-1
 448 128 l 1,18,-1
 128 128 l 1,19,-1
 128 192 l 1,20,-1
 128 256 l 1,21,-1
 64 256 l 1,22,-1
 0 256 l 1,23,-1
 0 448 l 1,24,-1
 0 640 l 1,25,-1
 64 640 l 1,26,-1
 128 640 l 1,27,-1
 128 704 l 1,0,-1
640 576 m 1,28,-1
 640 640 l 1,29,-1
 448 640 l 1,30,-1
 256 640 l 1,31,-1
 256 576 l 1,32,-1
 256 512 l 1,33,-1
 448 512 l 1,34,-1
 640 512 l 1,35,-1
 640 576 l 1,28,-1
EndSplineSet
EndChar

StartChar: f
Encoding: 102 102 73
Width: 1024
GlyphClass: 2
Flags: W
LayerCount: 2
Fore
SplineSet
512 960 m 1,0,-1
 512 1024 l 1,1,-1
 704 1024 l 1,2,-1
 896 1024 l 1,3,-1
 896 960 l 1,4,-1
 896 896 l 1,5,-1
 768 896 l 1,6,-1
 640 896 l 1,7,-1
 640 832 l 1,8,-1
 640 768 l 1,9,-1
 768 768 l 1,10,-1
 896 768 l 1,11,-1
 896 704 l 1,12,-1
 896 640 l 1,13,-1
 768 640 l 1,14,-1
 640 640 l 1,15,-1
 640 384 l 1,16,-1
 640 128 l 1,17,-1
 512 128 l 1,18,-1
 384 128 l 1,19,-1
 384 384 l 1,20,-1
 384 640 l 1,21,-1
 256 640 l 1,22,-1
 128 640 l 1,23,-1
 128 704 l 1,24,-1
 128 768 l 1,25,-1
 256 768 l 1,26,-1
 384 768 l 1,27,-1
 384 832 l 1,28,-1
 384 896 l 1,29,-1
 448 896 l 1,30,-1
 512 896 l 1,31,-1
 512 960 l 1,0,-1
EndSplineSet
EndChar

StartChar: g
Encoding: 103 103 74
Width: 1024
GlyphClass: 2
Flags: W
LayerCount: 2
Fore
SplineSet
128 704 m 1,0,-1
 128 768 l 1,1,-1
 512 768 l 1,2,-1
 896 768 l 1,3,-1
 896 448 l 1,4,-1
 896 128 l 1,5,-1
 832 128 l 1,6,-1
 768 128 l 1,7,-1
 768 64 l 1,8,-1
 768 0 l 1,9,-1
 448 0 l 1,10,-1
 128 0 l 1,11,-1
 128 64 l 1,12,-1
 128 128 l 1,13,-1
 384 128 l 1,14,-1
 640 128 l 1,15,-1
 640 192 l 1,16,-1
 640 256 l 1,17,-1
 384 256 l 1,18,-1
 128 256 l 1,19,-1
 128 320 l 1,20,-1
 128 384 l 1,21,-1
 64 384 l 1,22,-1
 0 384 l 1,23,-1
 0 512 l 1,24,-1
 0 640 l 1,25,-1
 64 640 l 1,26,-1
 128 640 l 1,27,-1
 128 704 l 1,0,-1
640 512 m 1,28,-1
 640 640 l 1,29,-1
 448 640 l 1,30,-1
 256 640 l 1,31,-1
 256 512 l 1,32,-1
 256 384 l 1,33,-1
 448 384 l 1,34,-1
 640 384 l 1,35,-1
 640 512 l 1,28,-1
EndSplineSet
EndChar

StartChar: h
Encoding: 104 104 75
Width: 1024
GlyphClass: 2
Flags: W
LayerCount: 2
Fore
SplineSet
0 576 m 1,0,-1
 0 1024 l 1,1,-1
 128 1024 l 1,2,-1
 256 1024 l 1,3,-1
 256 896 l 1,4,-1
 256 768 l 1,5,-1
 512 768 l 1,6,-1
 768 768 l 1,7,-1
 768 704 l 1,8,-1
 768 640 l 1,9,-1
 832 640 l 1,10,-1
 896 640 l 1,11,-1
 896 384 l 1,12,-1
 896 128 l 1,13,-1
 768 128 l 1,14,-1
 640 128 l 1,15,-1
 640 384 l 1,16,-1
 640 640 l 1,17,-1
 448 640 l 1,18,-1
 256 640 l 1,19,-1
 256 384 l 1,20,-1
 256 128 l 1,21,-1
 128 128 l 1,22,-1
 0 128 l 1,23,-1
 0 576 l 1,0,-1
EndSplineSet
EndChar

StartChar: i
Encoding: 105 105 76
Width: 1024
GlyphClass: 2
Flags: W
LayerCount: 2
Fore
SplineSet
256 704 m 1,0,-1
 256 768 l 1,1,-1
 448 768 l 1,2,-1
 640 768 l 1,3,-1
 640 512 l 1,4,-1
 640 256 l 1,5,-1
 768 256 l 1,6,-1
 896 256 l 1,7,-1
 896 192 l 1,8,-1
 896 128 l 1,9,-1
 512 128 l 1,10,-1
 128 128 l 1,11,-1
 128 192 l 1,12,-1
 128 256 l 1,13,-1
 256 256 l 1,14,-1
 384 256 l 1,15,-1
 384 448 l 1,16,-1
 384 640 l 1,17,-1
 320 640 l 1,18,-1
 256 640 l 1,19,-1
 256 704 l 1,0,-1
384 960 m 1,20,-1
 384 1024 l 1,21,-1
 512 1024 l 1,22,-1
 640 1024 l 1,23,-1
 640 960 l 1,24,-1
 640 896 l 1,25,-1
 512 896 l 1,26,-1
 384 896 l 1,27,-1
 384 960 l 1,20,-1
EndSplineSet
EndChar

StartChar: j
Encoding: 106 106 77
Width: 1024
GlyphClass: 2
Flags: W
LayerCount: 2
Fore
SplineSet
384 704 m 1,0,-1
 384 768 l 1,1,-1
 576 768 l 1,2,-1
 768 768 l 1,3,-1
 768 448 l 1,4,-1
 768 128 l 1,5,-1
 704 128 l 1,6,-1
 640 128 l 1,7,-1
 640 64 l 1,8,-1
 640 0 l 1,9,-1
 384 0 l 1,10,-1
 128 0 l 1,11,-1
 128 64 l 1,12,-1
 128 128 l 1,13,-1
 320 128 l 1,14,-1
 512 128 l 1,15,-1
 512 384 l 1,16,-1
 512 640 l 1,17,-1
 448 640 l 1,18,-1
 384 640 l 1,19,-1
 384 704 l 1,0,-1
512 960 m 1,20,-1
 512 1024 l 1,21,-1
 640 1024 l 1,22,-1
 768 1024 l 1,23,-1
 768 960 l 1,24,-1
 768 896 l 1,25,-1
 640 896 l 1,26,-1
 512 896 l 1,27,-1
 512 960 l 1,20,-1
EndSplineSet
EndChar

StartChar: k
Encoding: 107 107 78
Width: 1024
GlyphClass: 2
Flags: W
LayerCount: 2
Fore
SplineSet
0 576 m 1,0,-1
 0 1024 l 1,1,-1
 128 1024 l 1,2,-1
 256 1024 l 1,3,-1
 256 832 l 1,4,-1
 256 640 l 1,5,-1
 384 640 l 1,6,-1
 512 640 l 1,7,-1
 512 704 l 1,8,-1
 512 768 l 1,9,-1
 704 768 l 1,10,-1
 896 768 l 1,11,-1
 896 704 l 1,12,-1
 896 640 l 1,13,-1
 832 640 l 1,14,-1
 768 640 l 1,15,-1
 768 576 l 1,16,-1
 768 512 l 1,17,-1
 704 512 l 1,18,-1
 640 512 l 1,19,-1
 640 448 l 1,20,-1
 640 384 l 1,21,-1
 704 384 l 1,22,-1
 768 384 l 1,23,-1
 768 320 l 1,24,-1
 768 256 l 1,25,-1
 832 256 l 1,26,-1
 896 256 l 1,27,-1
 896 192 l 1,28,-1
 896 128 l 1,29,-1
 704 128 l 1,30,-1
 512 128 l 1,31,-1
 512 192 l 1,32,-1
 512 256 l 1,33,-1
 448 256 l 1,34,-1
 384 256 l 1,35,-1
 384 320 l 1,36,-1
 384 384 l 1,37,-1
 320 384 l 1,38,-1
 256 384 l 1,39,-1
 256 256 l 1,40,-1
 256 128 l 1,41,-1
 128 128 l 1,42,-1
 0 128 l 1,43,-1
 0 576 l 1,0,-1
EndSplineSet
EndChar

StartChar: l
Encoding: 108 108 79
Width: 1024
GlyphClass: 2
Flags: W
LayerCount: 2
Fore
SplineSet
256 960 m 1,0,-1
 256 1024 l 1,1,-1
 448 1024 l 1,2,-1
 640 1024 l 1,3,-1
 640 640 l 1,4,-1
 640 256 l 1,5,-1
 768 256 l 1,6,-1
 896 256 l 1,7,-1
 896 192 l 1,8,-1
 896 128 l 1,9,-1
 512 128 l 1,10,-1
 128 128 l 1,11,-1
 128 192 l 1,12,-1
 128 256 l 1,13,-1
 256 256 l 1,14,-1
 384 256 l 1,15,-1
 384 576 l 1,16,-1
 384 896 l 1,17,-1
 320 896 l 1,18,-1
 256 896 l 1,19,-1
 256 960 l 1,0,-1
EndSplineSet
EndChar

StartChar: m
Encoding: 109 109 80
Width: 1024
GlyphClass: 2
Flags: W
LayerCount: 2
Fore
SplineSet
0 448 m 1,0,-1
 0 768 l 1,1,-1
 384 768 l 1,2,-1
 768 768 l 1,3,-1
 768 704 l 1,4,-1
 768 640 l 1,5,-1
 832 640 l 1,6,-1
 896 640 l 1,7,-1
 896 384 l 1,8,-1
 896 128 l 1,9,-1
 768 128 l 1,10,-1
 640 128 l 1,11,-1
 640 384 l 1,12,-1
 640 640 l 1,13,-1
 576 640 l 1,14,-1
 512 640 l 1,15,-1
 512 384 l 1,16,-1
 512 128 l 1,17,-1
 384 128 l 1,18,-1
 256 128 l 1,19,-1
 256 384 l 1,20,-1
 256 640 l 1,21,-1
 192 640 l 1,22,-1
 128 640 l 1,23,-1
 128 384 l 1,24,-1
 128 128 l 1,25,-1
 64 128 l 1,26,-1
 0 128 l 1,27,-1
 0 448 l 1,0,-1
EndSplineSet
EndChar

StartChar: n
Encoding: 110 110 81
Width: 1024
GlyphClass: 2
Flags: W
LayerCount: 2
Fore
SplineSet
0 448 m 1,0,-1
 0 768 l 1,1,-1
 384 768 l 1,2,-1
 768 768 l 1,3,-1
 768 704 l 1,4,-1
 768 640 l 1,5,-1
 832 640 l 1,6,-1
 896 640 l 1,7,-1
 896 384 l 1,8,-1
 896 128 l 1,9,-1
 768 128 l 1,10,-1
 640 128 l 1,11,-1
 640 384 l 1,12,-1
 640 640 l 1,13,-1
 448 640 l 1,14,-1
 256 640 l 1,15,-1
 256 384 l 1,16,-1
 256 128 l 1,17,-1
 128 128 l 1,18,-1
 0 128 l 1,19,-1
 0 448 l 1,0,-1
EndSplineSet
EndChar

StartChar: o
Encoding: 111 111 82
Width: 1024
GlyphClass: 2
Flags: W
LayerCount: 2
Fore
SplineSet
128 704 m 1,0,-1
 128 768 l 1,1,-1
 448 768 l 1,2,-1
 768 768 l 1,3,-1
 768 704 l 1,4,-1
 768 640 l 1,5,-1
 832 640 l 1,6,-1
 896 640 l 1,7,-1
 896 448 l 1,8,-1
 896 256 l 1,9,-1
 832 256 l 1,10,-1
 768 256 l 1,11,-1
 768 192 l 1,12,-1
 768 128 l 1,13,-1
 448 128 l 1,14,-1
 128 128 l 1,15,-1
 128 192 l 1,16,-1
 128 256 l 1,17,-1
 64 256 l 1,18,-1
 0 256 l 1,19,-1
 0 448 l 1,20,-1
 0 640 l 1,21,-1
 64 640 l 1,22,-1
 128 640 l 1,23,-1
 128 704 l 1,0,-1
640 448 m 1,24,-1
 640 640 l 1,25,-1
 448 640 l 1,26,-1
 256 640 l 1,27,-1
 256 448 l 1,28,-1
 256 256 l 1,29,-1
 448 256 l 1,30,-1
 640 256 l 1,31,-1
 640 448 l 1,24,-1
EndSplineSet
EndChar

StartChar: p
Encoding: 112 112 83
Width: 1024
GlyphClass: 2
Flags: W
LayerCount: 2
Fore
SplineSet
0 384 m 1,0,-1
 0 768 l 1,1,-1
 384 768 l 1,2,-1
 768 768 l 1,3,-1
 768 704 l 1,4,-1
 768 640 l 1,5,-1
 832 640 l 1,6,-1
 896 640 l 1,7,-1
 896 512 l 1,8,-1
 896 384 l 1,9,-1
 832 384 l 1,10,-1
 768 384 l 1,11,-1
 768 320 l 1,12,-1
 768 256 l 1,13,-1
 512 256 l 1,14,-1
 256 256 l 1,15,-1
 256 128 l 1,16,-1
 256 0 l 1,17,-1
 128 0 l 1,18,-1
 0 0 l 1,19,-1
 0 384 l 1,0,-1
640 512 m 1,20,-1
 640 640 l 1,21,-1
 448 640 l 1,22,-1
 256 640 l 1,23,-1
 256 512 l 1,24,-1
 256 384 l 1,25,-1
 448 384 l 1,26,-1
 640 384 l 1,27,-1
 640 512 l 1,20,-1
EndSplineSet
EndChar

StartChar: q
Encoding: 113 113 84
Width: 1024
GlyphClass: 2
Flags: W
LayerCount: 2
Fore
SplineSet
128 704 m 1,0,-1
 128 768 l 1,1,-1
 512 768 l 1,2,-1
 896 768 l 1,3,-1
 896 384 l 1,4,-1
 896 0 l 1,5,-1
 768 0 l 1,6,-1
 640 0 l 1,7,-1
 640 128 l 1,8,-1
 640 256 l 1,9,-1
 384 256 l 1,10,-1
 128 256 l 1,11,-1
 128 320 l 1,12,-1
 128 384 l 1,13,-1
 64 384 l 1,14,-1
 0 384 l 1,15,-1
 0 512 l 1,16,-1
 0 640 l 1,17,-1
 64 640 l 1,18,-1
 128 640 l 1,19,-1
 128 704 l 1,0,-1
640 512 m 1,20,-1
 640 640 l 1,21,-1
 448 640 l 1,22,-1
 256 640 l 1,23,-1
 256 512 l 1,24,-1
 256 384 l 1,25,-1
 448 384 l 1,26,-1
 640 384 l 1,27,-1
 640 512 l 1,20,-1
EndSplineSet
EndChar

StartChar: r
Encoding: 114 114 85
Width: 1024
GlyphClass: 2
Flags: W
LayerCount: 2
Fore
SplineSet
128 448 m 1,0,-1
 128 768 l 1,1,-1
 256 768 l 1,2,-1
 384 768 l 1,3,-1
 384 704 l 1,4,-1
 384 640 l 1,5,-1
 448 640 l 1,6,-1
 512 640 l 1,7,-1
 512 704 l 1,8,-1
 512 768 l 1,9,-1
 704 768 l 1,10,-1
 896 768 l 1,11,-1
 896 704 l 1,12,-1
 896 640 l 1,13,-1
 704 640 l 1,14,-1
 512 640 l 1,15,-1
 512 576 l 1,16,-1
 512 512 l 1,17,-1
 448 512 l 1,18,-1
 384 512 l 1,19,-1
 384 320 l 1,20,-1
 384 128 l 1,21,-1
 256 128 l 1,22,-1
 128 128 l 1,23,-1
 128 448 l 1,0,-1
EndSplineSet
EndChar

StartChar: s
Encoding: 115 115 86
Width: 1024
GlyphClass: 2
Flags: W
LayerCount: 2
Fore
SplineSet
128 704 m 1,0,-1
 128 768 l 1,1,-1
 448 768 l 1,2,-1
 768 768 l 1,3,-1
 768 704 l 1,4,-1
 768 640 l 1,5,-1
 512 640 l 1,6,-1
 256 640 l 1,7,-1
 256 576 l 1,8,-1
 256 512 l 1,9,-1
 512 512 l 1,10,-1
 768 512 l 1,11,-1
 768 448 l 1,12,-1
 768 384 l 1,13,-1
 832 384 l 1,14,-1
 896 384 l 1,15,-1
 896 320 l 1,16,-1
 896 256 l 1,17,-1
 832 256 l 1,18,-1
 768 256 l 1,19,-1
 768 192 l 1,20,-1
 768 128 l 1,21,-1
 384 128 l 1,22,-1
 0 128 l 1,23,-1
 0 192 l 1,24,-1
 0 256 l 1,25,-1
 320 256 l 1,26,-1
 640 256 l 1,27,-1
 640 320 l 1,28,-1
 640 384 l 1,29,-1
 384 384 l 1,30,-1
 128 384 l 1,31,-1
 128 448 l 1,32,-1
 128 512 l 1,33,-1
 64 512 l 1,34,-1
 0 512 l 1,35,-1
 0 576 l 1,36,-1
 0 640 l 1,37,-1
 64 640 l 1,38,-1
 128 640 l 1,39,-1
 128 704 l 1,0,-1
EndSplineSet
EndChar

StartChar: t
Encoding: 116 116 87
Width: 1024
GlyphClass: 2
Flags: W
LayerCount: 2
Fore
SplineSet
384 896 m 1,0,-1
 384 1024 l 1,1,-1
 512 1024 l 1,2,-1
 640 1024 l 1,3,-1
 640 896 l 1,4,-1
 640 768 l 1,5,-1
 768 768 l 1,6,-1
 896 768 l 1,7,-1
 896 704 l 1,8,-1
 896 640 l 1,9,-1
 768 640 l 1,10,-1
 640 640 l 1,11,-1
 640 384 l 1,12,-1
 640 128 l 1,13,-1
 512 128 l 1,14,-1
 384 128 l 1,15,-1
 384 384 l 1,16,-1
 384 640 l 1,17,-1
 256 640 l 1,18,-1
 128 640 l 1,19,-1
 128 704 l 1,20,-1
 128 768 l 1,21,-1
 256 768 l 1,22,-1
 384 768 l 1,23,-1
 384 896 l 1,0,-1
EndSplineSet
EndChar

StartChar: u
Encoding: 117 117 88
Width: 1024
GlyphClass: 2
Flags: W
LayerCount: 2
Fore
SplineSet
0 512 m 1,0,-1
 0 768 l 1,1,-1
 128 768 l 1,2,-1
 256 768 l 1,3,-1
 256 512 l 1,4,-1
 256 256 l 1,5,-1
 448 256 l 1,6,-1
 640 256 l 1,7,-1
 640 512 l 1,8,-1
 640 768 l 1,9,-1
 768 768 l 1,10,-1
 896 768 l 1,11,-1
 896 448 l 1,12,-1
 896 128 l 1,13,-1
 512 128 l 1,14,-1
 128 128 l 1,15,-1
 128 192 l 1,16,-1
 128 256 l 1,17,-1
 64 256 l 1,18,-1
 0 256 l 1,19,-1
 0 512 l 1,0,-1
EndSplineSet
EndChar

StartChar: v
Encoding: 118 118 89
Width: 1024
GlyphClass: 2
Flags: W
LayerCount: 2
Fore
SplineSet
128 576 m 1,0,-1
 128 768 l 1,1,-1
 256 768 l 1,2,-1
 384 768 l 1,3,-1
 384 576 l 1,4,-1
 384 384 l 1,5,-1
 512 384 l 1,6,-1
 640 384 l 1,7,-1
 640 576 l 1,8,-1
 640 768 l 1,9,-1
 768 768 l 1,10,-1
 896 768 l 1,11,-1
 896 576 l 1,12,-1
 896 384 l 1,13,-1
 832 384 l 1,14,-1
 768 384 l 1,15,-1
 768 320 l 1,16,-1
 768 256 l 1,17,-1
 704 256 l 1,18,-1
 640 256 l 1,19,-1
 640 192 l 1,20,-1
 640 128 l 1,21,-1
 512 128 l 1,22,-1
 384 128 l 1,23,-1
 384 192 l 1,24,-1
 384 256 l 1,25,-1
 320 256 l 1,26,-1
 256 256 l 1,27,-1
 256 320 l 1,28,-1
 256 384 l 1,29,-1
 192 384 l 1,30,-1
 128 384 l 1,31,-1
 128 576 l 1,0,-1
EndSplineSet
EndChar

StartChar: w
Encoding: 119 119 90
Width: 1024
GlyphClass: 2
Flags: W
LayerCount: 2
Fore
SplineSet
0 512 m 1,0,-1
 0 768 l 1,1,-1
 64 768 l 1,2,-1
 128 768 l 1,3,-1
 128 512 l 1,4,-1
 128 256 l 1,5,-1
 192 256 l 1,6,-1
 256 256 l 1,7,-1
 256 512 l 1,8,-1
 256 768 l 1,9,-1
 384 768 l 1,10,-1
 512 768 l 1,11,-1
 512 512 l 1,12,-1
 512 256 l 1,13,-1
 576 256 l 1,14,-1
 640 256 l 1,15,-1
 640 512 l 1,16,-1
 640 768 l 1,17,-1
 768 768 l 1,18,-1
 896 768 l 1,19,-1
 896 448 l 1,20,-1
 896 128 l 1,21,-1
 512 128 l 1,22,-1
 128 128 l 1,23,-1
 128 192 l 1,24,-1
 128 256 l 1,25,-1
 64 256 l 1,26,-1
 0 256 l 1,27,-1
 0 512 l 1,0,-1
EndSplineSet
EndChar

StartChar: x
Encoding: 120 120 91
Width: 1024
GlyphClass: 2
Flags: W
LayerCount: 2
Fore
SplineSet
0 640 m 1,0,-1
 0 768 l 1,1,-1
 128 768 l 1,2,-1
 256 768 l 1,3,-1
 256 704 l 1,4,-1
 256 640 l 1,5,-1
 448 640 l 1,6,-1
 640 640 l 1,7,-1
 640 704 l 1,8,-1
 640 768 l 1,9,-1
 768 768 l 1,10,-1
 896 768 l 1,11,-1
 896 640 l 1,12,-1
 896 512 l 1,13,-1
 768 512 l 1,14,-1
 640 512 l 1,15,-1
 640 448 l 1,16,-1
 640 384 l 1,17,-1
 768 384 l 1,18,-1
 896 384 l 1,19,-1
 896 256 l 1,20,-1
 896 128 l 1,21,-1
 768 128 l 1,22,-1
 640 128 l 1,23,-1
 640 192 l 1,24,-1
 640 256 l 1,25,-1
 448 256 l 1,26,-1
 256 256 l 1,27,-1
 256 192 l 1,28,-1
 256 128 l 1,29,-1
 128 128 l 1,30,-1
 0 128 l 1,31,-1
 0 256 l 1,32,-1
 0 384 l 1,33,-1
 128 384 l 1,34,-1
 256 384 l 1,35,-1
 256 448 l 1,36,-1
 256 512 l 1,37,-1
 128 512 l 1,38,-1
 0 512 l 1,39,-1
 0 640 l 1,0,-1
EndSplineSet
EndChar

StartChar: y
Encoding: 121 121 92
Width: 1024
GlyphClass: 2
Flags: W
LayerCount: 2
Fore
SplineSet
0 576 m 1,0,-1
 0 768 l 1,1,-1
 128 768 l 1,2,-1
 256 768 l 1,3,-1
 256 576 l 1,4,-1
 256 384 l 1,5,-1
 448 384 l 1,6,-1
 640 384 l 1,7,-1
 640 576 l 1,8,-1
 640 768 l 1,9,-1
 768 768 l 1,10,-1
 896 768 l 1,11,-1
 896 448 l 1,12,-1
 896 128 l 1,13,-1
 832 128 l 1,14,-1
 768 128 l 1,15,-1
 768 64 l 1,16,-1
 768 0 l 1,17,-1
 448 0 l 1,18,-1
 128 0 l 1,19,-1
 128 64 l 1,20,-1
 128 128 l 1,21,-1
 384 128 l 1,22,-1
 640 128 l 1,23,-1
 640 192 l 1,24,-1
 640 256 l 1,25,-1
 384 256 l 1,26,-1
 128 256 l 1,27,-1
 128 320 l 1,28,-1
 128 384 l 1,29,-1
 64 384 l 1,30,-1
 0 384 l 1,31,-1
 0 576 l 1,0,-1
EndSplineSet
EndChar

StartChar: z
Encoding: 122 122 93
Width: 1024
GlyphClass: 2
Flags: W
LayerCount: 2
Fore
SplineSet
0 704 m 1,0,-1
 0 768 l 1,1,-1
 448 768 l 1,2,-1
 896 768 l 1,3,-1
 896 704 l 1,4,-1
 896 640 l 1,5,-1
 832 640 l 1,6,-1
 768 640 l 1,7,-1
 768 576 l 1,8,-1
 768 512 l 1,9,-1
 704 512 l 1,10,-1
 640 512 l 1,11,-1
 640 448 l 1,12,-1
 640 384 l 1,13,-1
 576 384 l 1,14,-1
 512 384 l 1,15,-1
 512 320 l 1,16,-1
 512 256 l 1,17,-1
 704 256 l 1,18,-1
 896 256 l 1,19,-1
 896 192 l 1,20,-1
 896 128 l 1,21,-1
 448 128 l 1,22,-1
 0 128 l 1,23,-1
 0 192 l 1,24,-1
 0 256 l 1,25,-1
 64 256 l 1,26,-1
 128 256 l 1,27,-1
 128 320 l 1,28,-1
 128 384 l 1,29,-1
 192 384 l 1,30,-1
 256 384 l 1,31,-1
 256 448 l 1,32,-1
 256 512 l 1,33,-1
 320 512 l 1,34,-1
 384 512 l 1,35,-1
 384 576 l 1,36,-1
 384 640 l 1,37,-1
 192 640 l 1,38,-1
 0 640 l 1,39,-1
 0 704 l 1,0,-1
EndSplineSet
EndChar

StartChar: braceleft
Encoding: 123 123 94
Width: 1024
GlyphClass: 2
Flags: W
LayerCount: 2
Fore
SplineSet
512 960 m 1,0,-1
 512 1024 l 1,1,-1
 640 1024 l 1,2,-1
 768 1024 l 1,3,-1
 768 960 l 1,4,-1
 768 896 l 1,5,-1
 704 896 l 1,6,-1
 640 896 l 1,7,-1
 640 768 l 1,8,-1
 640 640 l 1,9,-1
 576 640 l 1,10,-1
 512 640 l 1,11,-1
 512 576 l 1,12,-1
 512 512 l 1,13,-1
 576 512 l 1,14,-1
 640 512 l 1,15,-1
 640 384 l 1,16,-1
 640 256 l 1,17,-1
 704 256 l 1,18,-1
 768 256 l 1,19,-1
 768 192 l 1,20,-1
 768 128 l 1,21,-1
 640 128 l 1,22,-1
 512 128 l 1,23,-1
 512 192 l 1,24,-1
 512 256 l 1,25,-1
 448 256 l 1,26,-1
 384 256 l 1,27,-1
 384 384 l 1,28,-1
 384 512 l 1,29,-1
 320 512 l 1,30,-1
 256 512 l 1,31,-1
 256 576 l 1,32,-1
 256 640 l 1,33,-1
 320 640 l 1,34,-1
 384 640 l 1,35,-1
 384 768 l 1,36,-1
 384 896 l 1,37,-1
 448 896 l 1,38,-1
 512 896 l 1,39,-1
 512 960 l 1,0,-1
EndSplineSet
EndChar

StartChar: bar
Encoding: 124 124 95
Width: 1024
GlyphClass: 2
Flags: W
LayerCount: 2
Fore
SplineSet
384 576 m 1,0,-1
 384 1024 l 1,1,-1
 512 1024 l 1,2,-1
 640 1024 l 1,3,-1
 640 576 l 1,4,-1
 640 128 l 1,5,-1
 512 128 l 1,6,-1
 384 128 l 1,7,-1
 384 576 l 1,0,-1
EndSplineSet
EndChar

StartChar: braceright
Encoding: 125 125 96
Width: 1024
GlyphClass: 2
Flags: W
LayerCount: 2
Fore
SplineSet
128 960 m 1,0,-1
 128 1024 l 1,1,-1
 256 1024 l 1,2,-1
 384 1024 l 1,3,-1
 384 960 l 1,4,-1
 384 896 l 1,5,-1
 448 896 l 1,6,-1
 512 896 l 1,7,-1
 512 768 l 1,8,-1
 512 640 l 1,9,-1
 576 640 l 1,10,-1
 640 640 l 1,11,-1
 640 576 l 1,12,-1
 640 512 l 1,13,-1
 576 512 l 1,14,-1
 512 512 l 1,15,-1
 512 384 l 1,16,-1
 512 256 l 1,17,-1
 448 256 l 1,18,-1
 384 256 l 1,19,-1
 384 192 l 1,20,-1
 384 128 l 1,21,-1
 256 128 l 1,22,-1
 128 128 l 1,23,-1
 128 192 l 1,24,-1
 128 256 l 1,25,-1
 192 256 l 1,26,-1
 256 256 l 1,27,-1
 256 384 l 1,28,-1
 256 512 l 1,29,-1
 320 512 l 1,30,-1
 384 512 l 1,31,-1
 384 576 l 1,32,-1
 384 640 l 1,33,-1
 320 640 l 1,34,-1
 256 640 l 1,35,-1
 256 768 l 1,36,-1
 256 896 l 1,37,-1
 192 896 l 1,38,-1
 128 896 l 1,39,-1
 128 960 l 1,0,-1
EndSplineSet
EndChar

StartChar: asciitilde
Encoding: 126 126 97
Width: 1024
GlyphClass: 2
Flags: W
LayerCount: 2
Fore
SplineSet
128 704 m 1,0,-1
 128 768 l 1,1,-1
 320 768 l 1,2,-1
 512 768 l 1,3,-1
 512 704 l 1,4,-1
 512 640 l 1,5,-1
 576 640 l 1,6,-1
 640 640 l 1,7,-1
 640 576 l 1,8,-1
 640 512 l 1,9,-1
 704 512 l 1,10,-1
 768 512 l 1,11,-1
 768 576 l 1,12,-1
 768 640 l 1,13,-1
 832 640 l 1,14,-1
 896 640 l 1,15,-1
 896 576 l 1,16,-1
 896 512 l 1,17,-1
 832 512 l 1,18,-1
 768 512 l 1,19,-1
 768 448 l 1,20,-1
 768 384 l 1,21,-1
 576 384 l 1,22,-1
 384 384 l 1,23,-1
 384 448 l 1,24,-1
 384 512 l 1,25,-1
 320 512 l 1,26,-1
 256 512 l 1,27,-1
 256 576 l 1,28,-1
 256 640 l 1,29,-1
 192 640 l 1,30,-1
 128 640 l 1,31,-1
 128 576 l 1,32,-1
 128 512 l 1,33,-1
 64 512 l 1,34,-1
 0 512 l 1,35,-1
 0 576 l 1,36,-1
 0 640 l 1,37,-1
 64 640 l 1,38,-1
 128 640 l 1,39,-1
 128 704 l 1,0,-1
EndSplineSet
EndChar

StartChar: uni007F
Encoding: 127 127 98
Width: 1024
GlyphClass: 2
Flags: W
LayerCount: 2
Fore
SplineSet
512 256 m 1,0,-1
 512 384 l 1,1,-1
 640 384 l 1,2,-1
 768 384 l 1,3,-1
 768 256 l 1,4,-1
 768 128 l 1,5,-1
 640 128 l 1,6,-1
 512 128 l 1,7,-1
 512 256 l 1,0,-1
128 256 m 1,8,-1
 128 384 l 1,9,-1
 256 384 l 1,10,-1
 384 384 l 1,11,-1
 384 256 l 1,12,-1
 384 128 l 1,13,-1
 256 128 l 1,14,-1
 128 128 l 1,15,-1
 128 256 l 1,8,-1
EndSplineSet
EndChar

StartChar: exclamdown
Encoding: 161 161 100
Width: 1024
GlyphClass: 2
Flags: W
LayerCount: 2
Fore
SplineSet
384 640 m 1,0,-1
 384 768 l 1,1,-1
 512 768 l 1,2,-1
 640 768 l 1,3,-1
 640 448 l 1,4,-1
 640 128 l 1,5,-1
 448 128 l 1,6,-1
 256 128 l 1,7,-1
 256 320 l 1,8,-1
 256 512 l 1,9,-1
 320 512 l 1,10,-1
 384 512 l 1,11,-1
 384 640 l 1,0,-1
384 960 m 1,12,-1
 384 1024 l 1,13,-1
 512 1024 l 1,14,-1
 640 1024 l 1,15,-1
 640 960 l 1,16,-1
 640 896 l 1,17,-1
 512 896 l 1,18,-1
 384 896 l 1,19,-1
 384 960 l 1,12,-1
EndSplineSet
EndChar

StartChar: cent
Encoding: 162 162 101
Width: 1024
GlyphClass: 2
Flags: W
LayerCount: 2
Fore
SplineSet
384 960 m 1,0,-1
 384 1024 l 1,1,-1
 448 1024 l 1,2,-1
 512 1024 l 1,3,-1
 512 960 l 1,4,-1
 512 896 l 1,5,-1
 640 896 l 1,6,-1
 768 896 l 1,7,-1
 768 832 l 1,8,-1
 768 768 l 1,9,-1
 832 768 l 1,10,-1
 896 768 l 1,11,-1
 896 704 l 1,12,-1
 896 640 l 1,13,-1
 768 640 l 1,14,-1
 640 640 l 1,15,-1
 640 704 l 1,16,-1
 640 768 l 1,17,-1
 576 768 l 1,18,-1
 512 768 l 1,19,-1
 512 576 l 1,20,-1
 512 384 l 1,21,-1
 576 384 l 1,22,-1
 640 384 l 1,23,-1
 640 448 l 1,24,-1
 640 512 l 1,25,-1
 768 512 l 1,26,-1
 896 512 l 1,27,-1
 896 448 l 1,28,-1
 896 384 l 1,29,-1
 832 384 l 1,30,-1
 768 384 l 1,31,-1
 768 320 l 1,32,-1
 768 256 l 1,33,-1
 640 256 l 1,34,-1
 512 256 l 1,35,-1
 512 192 l 1,36,-1
 512 128 l 1,37,-1
 448 128 l 1,38,-1
 384 128 l 1,39,-1
 384 192 l 1,40,-1
 384 256 l 1,41,-1
 256 256 l 1,42,-1
 128 256 l 1,43,-1
 128 320 l 1,44,-1
 128 384 l 1,45,-1
 64 384 l 1,46,-1
 0 384 l 1,47,-1
 0 576 l 1,48,-1
 0 768 l 1,49,-1
 64 768 l 1,50,-1
 128 768 l 1,51,-1
 128 832 l 1,52,-1
 128 896 l 1,53,-1
 256 896 l 1,54,-1
 384 896 l 1,55,-1
 384 960 l 1,0,-1
384 576 m 1,56,-1
 384 768 l 1,57,-1
 320 768 l 1,58,-1
 256 768 l 1,59,-1
 256 576 l 1,60,-1
 256 384 l 1,61,-1
 320 384 l 1,62,-1
 384 384 l 1,63,-1
 384 576 l 1,56,-1
EndSplineSet
EndChar

StartChar: sterling
Encoding: 163 163 102
Width: 1024
GlyphClass: 2
Flags: W
LayerCount: 2
Fore
SplineSet
256 960 m 1,0,-1
 256 1024 l 1,1,-1
 512 1024 l 1,2,-1
 768 1024 l 1,3,-1
 768 960 l 1,4,-1
 768 896 l 1,5,-1
 832 896 l 1,6,-1
 896 896 l 1,7,-1
 896 832 l 1,8,-1
 896 768 l 1,9,-1
 768 768 l 1,10,-1
 640 768 l 1,11,-1
 640 832 l 1,12,-1
 640 896 l 1,13,-1
 512 896 l 1,14,-1
 384 896 l 1,15,-1
 384 768 l 1,16,-1
 384 640 l 1,17,-1
 576 640 l 1,18,-1
 768 640 l 1,19,-1
 768 576 l 1,20,-1
 768 512 l 1,21,-1
 576 512 l 1,22,-1
 384 512 l 1,23,-1
 384 384 l 1,24,-1
 384 256 l 1,25,-1
 640 256 l 1,26,-1
 896 256 l 1,27,-1
 896 192 l 1,28,-1
 896 128 l 1,29,-1
 448 128 l 1,30,-1
 0 128 l 1,31,-1
 0 192 l 1,32,-1
 0 256 l 1,33,-1
 64 256 l 1,34,-1
 128 256 l 1,35,-1
 128 384 l 1,36,-1
 128 512 l 1,37,-1
 64 512 l 1,38,-1
 0 512 l 1,39,-1
 0 576 l 1,40,-1
 0 640 l 1,41,-1
 64 640 l 1,42,-1
 128 640 l 1,43,-1
 128 768 l 1,44,-1
 128 896 l 1,45,-1
 192 896 l 1,46,-1
 256 896 l 1,47,-1
 256 960 l 1,0,-1
EndSplineSet
EndChar

StartChar: currency
Encoding: 164 164 103
Width: 1024
GlyphClass: 2
Flags: W
LayerCount: 2
Fore
SplineSet
128 832 m 1,0,-1
 128 896 l 1,1,-1
 192 896 l 1,2,-1
 256 896 l 1,3,-1
 256 832 l 1,4,-1
 256 768 l 1,5,-1
 320 768 l 1,6,-1
 384 768 l 1,7,-1
 384 832 l 1,8,-1
 384 896 l 1,9,-1
 512 896 l 1,10,-1
 640 896 l 1,11,-1
 640 832 l 1,12,-1
 640 768 l 1,13,-1
 704 768 l 1,14,-1
 768 768 l 1,15,-1
 768 832 l 1,16,-1
 768 896 l 1,17,-1
 832 896 l 1,18,-1
 896 896 l 1,19,-1
 896 832 l 1,20,-1
 896 768 l 1,21,-1
 832 768 l 1,22,-1
 768 768 l 1,23,-1
 768 576 l 1,24,-1
 768 384 l 1,25,-1
 832 384 l 1,26,-1
 896 384 l 1,27,-1
 896 320 l 1,28,-1
 896 256 l 1,29,-1
 832 256 l 1,30,-1
 768 256 l 1,31,-1
 768 320 l 1,32,-1
 768 384 l 1,33,-1
 704 384 l 1,34,-1
 640 384 l 1,35,-1
 640 320 l 1,36,-1
 640 256 l 1,37,-1
 512 256 l 1,38,-1
 384 256 l 1,39,-1
 384 320 l 1,40,-1
 384 384 l 1,41,-1
 320 384 l 1,42,-1
 256 384 l 1,43,-1
 256 320 l 1,44,-1
 256 256 l 1,45,-1
 192 256 l 1,46,-1
 128 256 l 1,47,-1
 128 320 l 1,48,-1
 128 384 l 1,49,-1
 192 384 l 1,50,-1
 256 384 l 1,51,-1
 256 576 l 1,52,-1
 256 768 l 1,53,-1
 192 768 l 1,54,-1
 128 768 l 1,55,-1
 128 832 l 1,0,-1
640 576 m 1,56,-1
 640 768 l 1,57,-1
 512 768 l 1,58,-1
 384 768 l 1,59,-1
 384 576 l 1,60,-1
 384 384 l 1,61,-1
 512 384 l 1,62,-1
 640 384 l 1,63,-1
 640 576 l 1,56,-1
EndSplineSet
EndChar

StartChar: yen
Encoding: 165 165 104
Width: 1024
GlyphClass: 2
Flags: W
LayerCount: 2
Fore
SplineSet
128 896 m 1,0,-1
 128 1024 l 1,1,-1
 256 1024 l 1,2,-1
 384 1024 l 1,3,-1
 384 896 l 1,4,-1
 384 768 l 1,5,-1
 512 768 l 1,6,-1
 640 768 l 1,7,-1
 640 896 l 1,8,-1
 640 1024 l 1,9,-1
 768 1024 l 1,10,-1
 896 1024 l 1,11,-1
 896 896 l 1,12,-1
 896 768 l 1,13,-1
 832 768 l 1,14,-1
 768 768 l 1,15,-1
 768 704 l 1,16,-1
 768 640 l 1,17,-1
 832 640 l 1,18,-1
 896 640 l 1,19,-1
 896 576 l 1,20,-1
 896 512 l 1,21,-1
 768 512 l 1,22,-1
 640 512 l 1,23,-1
 640 448 l 1,24,-1
 640 384 l 1,25,-1
 768 384 l 1,26,-1
 896 384 l 1,27,-1
 896 320 l 1,28,-1
 896 256 l 1,29,-1
 768 256 l 1,30,-1
 640 256 l 1,31,-1
 640 192 l 1,32,-1
 640 128 l 1,33,-1
 512 128 l 1,34,-1
 384 128 l 1,35,-1
 384 192 l 1,36,-1
 384 256 l 1,37,-1
 256 256 l 1,38,-1
 128 256 l 1,39,-1
 128 320 l 1,40,-1
 128 384 l 1,41,-1
 256 384 l 1,42,-1
 384 384 l 1,43,-1
 384 448 l 1,44,-1
 384 512 l 1,45,-1
 256 512 l 1,46,-1
 128 512 l 1,47,-1
 128 576 l 1,48,-1
 128 640 l 1,49,-1
 192 640 l 1,50,-1
 256 640 l 1,51,-1
 256 704 l 1,52,-1
 256 768 l 1,53,-1
 192 768 l 1,54,-1
 128 768 l 1,55,-1
 128 896 l 1,0,-1
EndSplineSet
EndChar

StartChar: brokenbar
Encoding: 166 166 105
Width: 1024
GlyphClass: 2
Flags: W
LayerCount: 2
Fore
SplineSet
384 320 m 1,0,-1
 384 512 l 1,1,-1
 512 512 l 1,2,-1
 640 512 l 1,3,-1
 640 320 l 1,4,-1
 640 128 l 1,5,-1
 512 128 l 1,6,-1
 384 128 l 1,7,-1
 384 320 l 1,0,-1
384 832 m 1,8,-1
 384 1024 l 1,9,-1
 512 1024 l 1,10,-1
 640 1024 l 1,11,-1
 640 832 l 1,12,-1
 640 640 l 1,13,-1
 512 640 l 1,14,-1
 384 640 l 1,15,-1
 384 832 l 1,8,-1
EndSplineSet
EndChar

StartChar: section
Encoding: 167 167 106
Width: 1024
GlyphClass: 2
Flags: W
LayerCount: 2
Fore
SplineSet
256 960 m 1,0,-1
 256 1024 l 1,1,-1
 512 1024 l 1,2,-1
 768 1024 l 1,3,-1
 768 960 l 1,4,-1
 768 896 l 1,5,-1
 832 896 l 1,6,-1
 896 896 l 1,7,-1
 896 832 l 1,8,-1
 896 768 l 1,9,-1
 768 768 l 1,10,-1
 640 768 l 1,11,-1
 640 704 l 1,12,-1
 640 640 l 1,13,-1
 704 640 l 1,14,-1
 768 640 l 1,15,-1
 768 576 l 1,16,-1
 768 512 l 1,17,-1
 832 512 l 1,18,-1
 896 512 l 1,19,-1
 896 384 l 1,20,-1
 896 256 l 1,21,-1
 832 256 l 1,22,-1
 768 256 l 1,23,-1
 768 192 l 1,24,-1
 768 128 l 1,25,-1
 512 128 l 1,26,-1
 256 128 l 1,27,-1
 256 192 l 1,28,-1
 256 256 l 1,29,-1
 192 256 l 1,30,-1
 128 256 l 1,31,-1
 128 320 l 1,32,-1
 128 384 l 1,33,-1
 256 384 l 1,34,-1
 384 384 l 1,35,-1
 384 448 l 1,36,-1
 384 512 l 1,37,-1
 320 512 l 1,38,-1
 256 512 l 1,39,-1
 256 576 l 1,40,-1
 256 640 l 1,41,-1
 192 640 l 1,42,-1
 128 640 l 1,43,-1
 128 768 l 1,44,-1
 128 896 l 1,45,-1
 192 896 l 1,46,-1
 256 896 l 1,47,-1
 256 960 l 1,0,-1
640 832 m 1,48,-1
 640 896 l 1,49,-1
 512 896 l 1,50,-1
 384 896 l 1,51,-1
 384 832 l 1,52,-1
 384 768 l 1,53,-1
 512 768 l 1,54,-1
 640 768 l 1,55,-1
 640 832 l 1,48,-1
640 576 m 1,56,-1
 640 640 l 1,57,-1
 512 640 l 1,58,-1
 384 640 l 1,59,-1
 384 576 l 1,60,-1
 384 512 l 1,61,-1
 512 512 l 1,62,-1
 640 512 l 1,63,-1
 640 576 l 1,56,-1
640 320 m 1,64,-1
 640 384 l 1,65,-1
 512 384 l 1,66,-1
 384 384 l 1,67,-1
 384 320 l 1,68,-1
 384 256 l 1,69,-1
 512 256 l 1,70,-1
 640 256 l 1,71,-1
 640 320 l 1,64,-1
EndSplineSet
EndChar

StartChar: dieresis
Encoding: 168 168 107
Width: 1024
GlyphClass: 2
Flags: W
LayerCount: 2
Fore
SplineSet
512 960 m 1,0,-1
 512 1024 l 1,1,-1
 640 1024 l 1,2,-1
 768 1024 l 1,3,-1
 768 960 l 1,4,-1
 768 896 l 1,5,-1
 640 896 l 1,6,-1
 512 896 l 1,7,-1
 512 960 l 1,0,-1
128 960 m 1,8,-1
 128 1024 l 1,9,-1
 256 1024 l 1,10,-1
 384 1024 l 1,11,-1
 384 960 l 1,12,-1
 384 896 l 1,13,-1
 256 896 l 1,14,-1
 128 896 l 1,15,-1
 128 960 l 1,8,-1
EndSplineSet
EndChar

StartChar: copyright
Encoding: 169 169 108
Width: 1024
GlyphClass: 2
Flags: W
LayerCount: 2
Fore
SplineSet
384 704 m 1,0,-1
 384 768 l 1,1,-1
 512 768 l 1,2,-1
 640 768 l 1,3,-1
 640 704 l 1,4,-1
 640 640 l 1,5,-1
 512 640 l 1,6,-1
 384 640 l 1,7,-1
 384 512 l 1,8,-1
 384 384 l 1,9,-1
 512 384 l 1,10,-1
 640 384 l 1,11,-1
 640 320 l 1,12,-1
 640 256 l 1,13,-1
 512 256 l 1,14,-1
 384 256 l 1,15,-1
 384 320 l 1,16,-1
 384 384 l 1,17,-1
 320 384 l 1,18,-1
 256 384 l 1,19,-1
 256 512 l 1,20,-1
 256 640 l 1,21,-1
 320 640 l 1,22,-1
 384 640 l 1,23,-1
 384 704 l 1,0,-1
256 960 m 1,24,-1
 256 1024 l 1,25,-1
 512 1024 l 1,26,-1
 768 1024 l 1,27,-1
 768 960 l 1,28,-1
 768 896 l 1,29,-1
 832 896 l 1,30,-1
 896 896 l 1,31,-1
 896 832 l 1,32,-1
 896 768 l 1,33,-1
 960 768 l 1,34,-1
 1024 768 l 1,35,-1
 1024 512 l 1,36,-1
 1024 256 l 1,37,-1
 960 256 l 1,38,-1
 896 256 l 1,39,-1
 896 192 l 1,40,-1
 896 128 l 1,41,-1
 832 128 l 1,42,-1
 768 128 l 1,43,-1
 768 64 l 1,44,-1
 768 0 l 1,45,-1
 512 0 l 1,46,-1
 256 0 l 1,47,-1
 256 64 l 1,48,-1
 256 128 l 1,49,-1
 192 128 l 1,50,-1
 128 128 l 1,51,-1
 128 192 l 1,52,-1
 128 256 l 1,53,-1
 64 256 l 1,54,-1
 0 256 l 1,55,-1
 0 512 l 1,56,-1
 0 768 l 1,57,-1
 64 768 l 1,58,-1
 128 768 l 1,59,-1
 128 832 l 1,60,-1
 128 896 l 1,61,-1
 192 896 l 1,62,-1
 256 896 l 1,63,-1
 256 960 l 1,24,-1
768 832 m 1,64,-1
 768 896 l 1,65,-1
 512 896 l 1,66,-1
 256 896 l 1,67,-1
 256 832 l 1,68,-1
 256 768 l 1,69,-1
 192 768 l 1,70,-1
 128 768 l 1,71,-1
 128 512 l 1,72,-1
 128 256 l 1,73,-1
 192 256 l 1,74,-1
 256 256 l 1,75,-1
 256 192 l 1,76,-1
 256 128 l 1,77,-1
 512 128 l 1,78,-1
 768 128 l 1,79,-1
 768 192 l 1,80,-1
 768 256 l 1,81,-1
 832 256 l 1,82,-1
 896 256 l 1,83,-1
 896 512 l 1,84,-1
 896 768 l 1,85,-1
 832 768 l 1,86,-1
 768 768 l 1,87,-1
 768 832 l 1,64,-1
EndSplineSet
EndChar

StartChar: ordfeminine
Encoding: 170 170 109
Width: 1024
GlyphClass: 2
Flags: W
LayerCount: 2
Fore
SplineSet
128 960 m 1,0,-1
 128 1024 l 1,1,-1
 384 1024 l 1,2,-1
 640 1024 l 1,3,-1
 640 960 l 1,4,-1
 640 896 l 1,5,-1
 704 896 l 1,6,-1
 768 896 l 1,7,-1
 768 704 l 1,8,-1
 768 512 l 1,9,-1
 512 512 l 1,10,-1
 256 512 l 1,11,-1
 256 576 l 1,12,-1
 256 640 l 1,13,-1
 192 640 l 1,14,-1
 128 640 l 1,15,-1
 128 704 l 1,16,-1
 128 768 l 1,17,-1
 192 768 l 1,18,-1
 256 768 l 1,19,-1
 256 832 l 1,20,-1
 256 896 l 1,21,-1
 192 896 l 1,22,-1
 128 896 l 1,23,-1
 128 960 l 1,0,-1
512 704 m 1,24,-1
 512 768 l 1,25,-1
 448 768 l 1,26,-1
 384 768 l 1,27,-1
 384 704 l 1,28,-1
 384 640 l 1,29,-1
 448 640 l 1,30,-1
 512 640 l 1,31,-1
 512 704 l 1,24,-1
EndSplineSet
EndChar

StartChar: guillemotleft
Encoding: 171 171 110
Width: 1024
GlyphClass: 2
Flags: W
LayerCount: 2
Fore
SplineSet
256 832 m 1,0,-1
 256 896 l 1,1,-1
 384 896 l 1,2,-1
 512 896 l 1,3,-1
 512 832 l 1,4,-1
 512 768 l 1,5,-1
 576 768 l 1,6,-1
 640 768 l 1,7,-1
 640 832 l 1,8,-1
 640 896 l 1,9,-1
 768 896 l 1,10,-1
 896 896 l 1,11,-1
 896 832 l 1,12,-1
 896 768 l 1,13,-1
 832 768 l 1,14,-1
 768 768 l 1,15,-1
 768 704 l 1,16,-1
 768 640 l 1,17,-1
 704 640 l 1,18,-1
 640 640 l 1,19,-1
 640 576 l 1,20,-1
 640 512 l 1,21,-1
 704 512 l 1,22,-1
 768 512 l 1,23,-1
 768 448 l 1,24,-1
 768 384 l 1,25,-1
 832 384 l 1,26,-1
 896 384 l 1,27,-1
 896 320 l 1,28,-1
 896 256 l 1,29,-1
 768 256 l 1,30,-1
 640 256 l 1,31,-1
 640 320 l 1,32,-1
 640 384 l 1,33,-1
 576 384 l 1,34,-1
 512 384 l 1,35,-1
 512 320 l 1,36,-1
 512 256 l 1,37,-1
 384 256 l 1,38,-1
 256 256 l 1,39,-1
 256 320 l 1,40,-1
 256 384 l 1,41,-1
 192 384 l 1,42,-1
 128 384 l 1,43,-1
 128 448 l 1,44,-1
 128 512 l 1,45,-1
 64 512 l 1,46,-1
 0 512 l 1,47,-1
 0 576 l 1,48,-1
 0 640 l 1,49,-1
 64 640 l 1,50,-1
 128 640 l 1,51,-1
 128 704 l 1,52,-1
 128 768 l 1,53,-1
 192 768 l 1,54,-1
 256 768 l 1,55,-1
 256 832 l 1,0,-1
512 704 m 1,56,-1
 512 768 l 1,57,-1
 448 768 l 1,58,-1
 384 768 l 1,59,-1
 384 704 l 1,60,-1
 384 640 l 1,61,-1
 320 640 l 1,62,-1
 256 640 l 1,63,-1
 256 576 l 1,64,-1
 256 512 l 1,65,-1
 320 512 l 1,66,-1
 384 512 l 1,67,-1
 384 448 l 1,68,-1
 384 384 l 1,69,-1
 448 384 l 1,70,-1
 512 384 l 1,71,-1
 512 448 l 1,72,-1
 512 512 l 1,73,-1
 448 512 l 1,74,-1
 384 512 l 1,75,-1
 384 576 l 1,76,-1
 384 640 l 1,77,-1
 448 640 l 1,78,-1
 512 640 l 1,79,-1
 512 704 l 1,56,-1
EndSplineSet
EndChar

StartChar: logicalnot
Encoding: 172 172 111
Width: 1024
GlyphClass: 2
Flags: W
LayerCount: 2
Fore
SplineSet
128 704 m 1,0,-1
 128 768 l 1,1,-1
 512 768 l 1,2,-1
 896 768 l 1,3,-1
 896 576 l 1,4,-1
 896 384 l 1,5,-1
 768 384 l 1,6,-1
 640 384 l 1,7,-1
 640 512 l 1,8,-1
 640 640 l 1,9,-1
 384 640 l 1,10,-1
 128 640 l 1,11,-1
 128 704 l 1,0,-1
EndSplineSet
EndChar

StartChar: uni00AD
Encoding: 173 173 112
Width: 1024
GlyphClass: 2
Flags: W
LayerCount: 2
Fore
SplineSet
128 576 m 1,0,-1
 128 640 l 1,1,-1
 512 640 l 1,2,-1
 896 640 l 1,3,-1
 896 576 l 1,4,-1
 896 512 l 1,5,-1
 512 512 l 1,6,-1
 128 512 l 1,7,-1
 128 576 l 1,0,-1
EndSplineSet
EndChar

StartChar: registered
Encoding: 174 174 113
Width: 1024
GlyphClass: 2
Flags: W
LayerCount: 2
Fore
SplineSet
256 512 m 1,0,-1
 256 768 l 1,1,-1
 448 768 l 1,2,-1
 640 768 l 1,3,-1
 640 704 l 1,4,-1
 640 640 l 1,5,-1
 704 640 l 1,6,-1
 768 640 l 1,7,-1
 768 576 l 1,8,-1
 768 512 l 1,9,-1
 704 512 l 1,10,-1
 640 512 l 1,11,-1
 640 448 l 1,12,-1
 640 384 l 1,13,-1
 704 384 l 1,14,-1
 768 384 l 1,15,-1
 768 320 l 1,16,-1
 768 256 l 1,17,-1
 704 256 l 1,18,-1
 640 256 l 1,19,-1
 640 320 l 1,20,-1
 640 384 l 1,21,-1
 512 384 l 1,22,-1
 384 384 l 1,23,-1
 384 320 l 1,24,-1
 384 256 l 1,25,-1
 320 256 l 1,26,-1
 256 256 l 1,27,-1
 256 512 l 1,0,-1
640 576 m 1,28,-1
 640 640 l 1,29,-1
 512 640 l 1,30,-1
 384 640 l 1,31,-1
 384 576 l 1,32,-1
 384 512 l 1,33,-1
 512 512 l 1,34,-1
 640 512 l 1,35,-1
 640 576 l 1,28,-1
256 960 m 1,36,-1
 256 1024 l 1,37,-1
 512 1024 l 1,38,-1
 768 1024 l 1,39,-1
 768 960 l 1,40,-1
 768 896 l 1,41,-1
 832 896 l 1,42,-1
 896 896 l 1,43,-1
 896 832 l 1,44,-1
 896 768 l 1,45,-1
 960 768 l 1,46,-1
 1024 768 l 1,47,-1
 1024 512 l 1,48,-1
 1024 256 l 1,49,-1
 960 256 l 1,50,-1
 896 256 l 1,51,-1
 896 192 l 1,52,-1
 896 128 l 1,53,-1
 832 128 l 1,54,-1
 768 128 l 1,55,-1
 768 64 l 1,56,-1
 768 0 l 1,57,-1
 512 0 l 1,58,-1
 256 0 l 1,59,-1
 256 64 l 1,60,-1
 256 128 l 1,61,-1
 192 128 l 1,62,-1
 128 128 l 1,63,-1
 128 192 l 1,64,-1
 128 256 l 1,65,-1
 64 256 l 1,66,-1
 0 256 l 1,67,-1
 0 512 l 1,68,-1
 0 768 l 1,69,-1
 64 768 l 1,70,-1
 128 768 l 1,71,-1
 128 832 l 1,72,-1
 128 896 l 1,73,-1
 192 896 l 1,74,-1
 256 896 l 1,75,-1
 256 960 l 1,36,-1
768 832 m 1,76,-1
 768 896 l 1,77,-1
 512 896 l 1,78,-1
 256 896 l 1,79,-1
 256 832 l 1,80,-1
 256 768 l 1,81,-1
 192 768 l 1,82,-1
 128 768 l 1,83,-1
 128 512 l 1,84,-1
 128 256 l 1,85,-1
 192 256 l 1,86,-1
 256 256 l 1,87,-1
 256 192 l 1,88,-1
 256 128 l 1,89,-1
 512 128 l 1,90,-1
 768 128 l 1,91,-1
 768 192 l 1,92,-1
 768 256 l 1,93,-1
 832 256 l 1,94,-1
 896 256 l 1,95,-1
 896 512 l 1,96,-1
 896 768 l 1,97,-1
 832 768 l 1,98,-1
 768 768 l 1,99,-1
 768 832 l 1,76,-1
EndSplineSet
EndChar

StartChar: macron
Encoding: 175 175 114
Width: 1024
GlyphClass: 2
Flags: W
LayerCount: 2
Fore
SplineSet
128 960 m 1,0,-1
 128 1024 l 1,1,-1
 448 1024 l 1,2,-1
 768 1024 l 1,3,-1
 768 960 l 1,4,-1
 768 896 l 1,5,-1
 448 896 l 1,6,-1
 128 896 l 1,7,-1
 128 960 l 1,0,-1
EndSplineSet
EndChar

StartChar: degree
Encoding: 176 176 115
Width: 1024
GlyphClass: 2
Flags: W
LayerCount: 2
Fore
SplineSet
384 960 m 1,0,-1
 384 1024 l 1,1,-1
 448 1024 l 1,2,-1
 512 1024 l 1,3,-1
 512 960 l 1,4,-1
 512 896 l 1,5,-1
 576 896 l 1,6,-1
 640 896 l 1,7,-1
 640 832 l 1,8,-1
 640 768 l 1,9,-1
 576 768 l 1,10,-1
 512 768 l 1,11,-1
 512 704 l 1,12,-1
 512 640 l 1,13,-1
 448 640 l 1,14,-1
 384 640 l 1,15,-1
 384 704 l 1,16,-1
 384 768 l 1,17,-1
 320 768 l 1,18,-1
 256 768 l 1,19,-1
 256 832 l 1,20,-1
 256 896 l 1,21,-1
 320 896 l 1,22,-1
 384 896 l 1,23,-1
 384 960 l 1,0,-1
512 832 m 1,24,-1
 512 896 l 1,25,-1
 448 896 l 1,26,-1
 384 896 l 1,27,-1
 384 832 l 1,28,-1
 384 768 l 1,29,-1
 448 768 l 1,30,-1
 512 768 l 1,31,-1
 512 832 l 1,24,-1
EndSplineSet
EndChar

StartChar: plusminus
Encoding: 177 177 116
Width: 1024
GlyphClass: 2
Flags: W
LayerCount: 2
Fore
SplineSet
128 192 m 1,0,-1
 128 256 l 1,1,-1
 512 256 l 1,2,-1
 896 256 l 1,3,-1
 896 192 l 1,4,-1
 896 128 l 1,5,-1
 512 128 l 1,6,-1
 128 128 l 1,7,-1
 128 192 l 1,0,-1
384 896 m 1,8,-1
 384 1024 l 1,9,-1
 512 1024 l 1,10,-1
 640 1024 l 1,11,-1
 640 896 l 1,12,-1
 640 768 l 1,13,-1
 768 768 l 1,14,-1
 896 768 l 1,15,-1
 896 704 l 1,16,-1
 896 640 l 1,17,-1
 768 640 l 1,18,-1
 640 640 l 1,19,-1
 640 512 l 1,20,-1
 640 384 l 1,21,-1
 512 384 l 1,22,-1
 384 384 l 1,23,-1
 384 512 l 1,24,-1
 384 640 l 1,25,-1
 256 640 l 1,26,-1
 128 640 l 1,27,-1
 128 704 l 1,28,-1
 128 768 l 1,29,-1
 256 768 l 1,30,-1
 384 768 l 1,31,-1
 384 896 l 1,8,-1
EndSplineSet
EndChar

StartChar: uni00B2
Encoding: 178 178 117
Width: 1024
GlyphClass: 2
Flags: W
LayerCount: 2
Fore
SplineSet
256 960 m 1,0,-1
 256 1024 l 1,1,-1
 448 1024 l 1,2,-1
 640 1024 l 1,3,-1
 640 960 l 1,4,-1
 640 896 l 1,5,-1
 704 896 l 1,6,-1
 768 896 l 1,7,-1
 768 832 l 1,8,-1
 768 768 l 1,9,-1
 704 768 l 1,10,-1
 640 768 l 1,11,-1
 640 704 l 1,12,-1
 640 640 l 1,13,-1
 704 640 l 1,14,-1
 768 640 l 1,15,-1
 768 576 l 1,16,-1
 768 512 l 1,17,-1
 512 512 l 1,18,-1
 256 512 l 1,19,-1
 256 576 l 1,20,-1
 256 640 l 1,21,-1
 320 640 l 1,22,-1
 384 640 l 1,23,-1
 384 704 l 1,24,-1
 384 768 l 1,25,-1
 448 768 l 1,26,-1
 512 768 l 1,27,-1
 512 832 l 1,28,-1
 512 896 l 1,29,-1
 384 896 l 1,30,-1
 256 896 l 1,31,-1
 256 960 l 1,0,-1
EndSplineSet
EndChar

StartChar: uni00B3
Encoding: 179 179 118
Width: 1024
GlyphClass: 2
Flags: W
LayerCount: 2
Fore
SplineSet
256 960 m 1,0,-1
 256 1024 l 1,1,-1
 512 1024 l 1,2,-1
 768 1024 l 1,3,-1
 768 960 l 1,4,-1
 768 896 l 1,5,-1
 704 896 l 1,6,-1
 640 896 l 1,7,-1
 640 832 l 1,8,-1
 640 768 l 1,9,-1
 704 768 l 1,10,-1
 768 768 l 1,11,-1
 768 704 l 1,12,-1
 768 640 l 1,13,-1
 704 640 l 1,14,-1
 640 640 l 1,15,-1
 640 576 l 1,16,-1
 640 512 l 1,17,-1
 448 512 l 1,18,-1
 256 512 l 1,19,-1
 256 576 l 1,20,-1
 256 640 l 1,21,-1
 384 640 l 1,22,-1
 512 640 l 1,23,-1
 512 704 l 1,24,-1
 512 768 l 1,25,-1
 448 768 l 1,26,-1
 384 768 l 1,27,-1
 384 832 l 1,28,-1
 384 896 l 1,29,-1
 320 896 l 1,30,-1
 256 896 l 1,31,-1
 256 960 l 1,0,-1
EndSplineSet
EndChar

StartChar: acute
Encoding: 180 180 119
Width: 1024
GlyphClass: 2
Flags: W
LayerCount: 2
Fore
SplineSet
512 960 m 1,0,-1
 512 1024 l 1,1,-1
 576 1024 l 1,2,-1
 640 1024 l 1,3,-1
 640 960 l 1,4,-1
 640 896 l 1,5,-1
 576 896 l 1,6,-1
 512 896 l 1,7,-1
 512 832 l 1,8,-1
 512 768 l 1,9,-1
 448 768 l 1,10,-1
 384 768 l 1,11,-1
 384 832 l 1,12,-1
 384 896 l 1,13,-1
 448 896 l 1,14,-1
 512 896 l 1,15,-1
 512 960 l 1,0,-1
EndSplineSet
EndChar

StartChar: uni00B5
Encoding: 181 181 120
Width: 1024
GlyphClass: 2
Flags: W
LayerCount: 2
Fore
SplineSet
0 384 m 1,0,-1
 0 768 l 1,1,-1
 128 768 l 1,2,-1
 256 768 l 1,3,-1
 256 512 l 1,4,-1
 256 256 l 1,5,-1
 384 256 l 1,6,-1
 512 256 l 1,7,-1
 512 512 l 1,8,-1
 512 768 l 1,9,-1
 640 768 l 1,10,-1
 768 768 l 1,11,-1
 768 512 l 1,12,-1
 768 256 l 1,13,-1
 832 256 l 1,14,-1
 896 256 l 1,15,-1
 896 192 l 1,16,-1
 896 128 l 1,17,-1
 768 128 l 1,18,-1
 640 128 l 1,19,-1
 640 192 l 1,20,-1
 640 256 l 1,21,-1
 576 256 l 1,22,-1
 512 256 l 1,23,-1
 512 192 l 1,24,-1
 512 128 l 1,25,-1
 384 128 l 1,26,-1
 256 128 l 1,27,-1
 256 64 l 1,28,-1
 256 0 l 1,29,-1
 128 0 l 1,30,-1
 0 0 l 1,31,-1
 0 384 l 1,0,-1
EndSplineSet
EndChar

StartChar: paragraph
Encoding: 182 182 121
Width: 1024
GlyphClass: 2
Flags: W
LayerCount: 2
Fore
SplineSet
256 960 m 1,0,-1
 256 1024 l 1,1,-1
 576 1024 l 1,2,-1
 896 1024 l 1,3,-1
 896 576 l 1,4,-1
 896 128 l 1,5,-1
 832 128 l 1,6,-1
 768 128 l 1,7,-1
 768 256 l 1,8,-1
 768 384 l 1,9,-1
 704 384 l 1,10,-1
 640 384 l 1,11,-1
 640 256 l 1,12,-1
 640 128 l 1,13,-1
 576 128 l 1,14,-1
 512 128 l 1,15,-1
 512 256 l 1,16,-1
 512 384 l 1,17,-1
 384 384 l 1,18,-1
 256 384 l 1,19,-1
 256 448 l 1,20,-1
 256 512 l 1,21,-1
 192 512 l 1,22,-1
 128 512 l 1,23,-1
 128 704 l 1,24,-1
 128 896 l 1,25,-1
 192 896 l 1,26,-1
 256 896 l 1,27,-1
 256 960 l 1,0,-1
512 704 m 1,28,-1
 512 896 l 1,29,-1
 448 896 l 1,30,-1
 384 896 l 1,31,-1
 384 832 l 1,32,-1
 384 768 l 1,33,-1
 320 768 l 1,34,-1
 256 768 l 1,35,-1
 256 704 l 1,36,-1
 256 640 l 1,37,-1
 320 640 l 1,38,-1
 384 640 l 1,39,-1
 384 576 l 1,40,-1
 384 512 l 1,41,-1
 448 512 l 1,42,-1
 512 512 l 1,43,-1
 512 704 l 1,28,-1
768 704 m 1,44,-1
 768 896 l 1,45,-1
 704 896 l 1,46,-1
 640 896 l 1,47,-1
 640 704 l 1,48,-1
 640 512 l 1,49,-1
 704 512 l 1,50,-1
 768 512 l 1,51,-1
 768 704 l 1,44,-1
EndSplineSet
EndChar

StartChar: periodcentered
Encoding: 183 183 122
Width: 1024
GlyphClass: 2
Flags: W
LayerCount: 2
Fore
SplineSet
256 512 m 1,0,-1
 256 640 l 1,1,-1
 384 640 l 1,2,-1
 512 640 l 1,3,-1
 512 512 l 1,4,-1
 512 384 l 1,5,-1
 384 384 l 1,6,-1
 256 384 l 1,7,-1
 256 512 l 1,0,-1
EndSplineSet
EndChar

StartChar: cedilla
Encoding: 184 184 123
Width: 1024
GlyphClass: 2
Flags: W
LayerCount: 2
Fore
SplineSet
512 192 m 1,0,-1
 512 256 l 1,1,-1
 576 256 l 1,2,-1
 640 256 l 1,3,-1
 640 192 l 1,4,-1
 640 128 l 1,5,-1
 576 128 l 1,6,-1
 512 128 l 1,7,-1
 512 64 l 1,8,-1
 512 0 l 1,9,-1
 384 0 l 1,10,-1
 256 0 l 1,11,-1
 256 64 l 1,12,-1
 256 128 l 1,13,-1
 384 128 l 1,14,-1
 512 128 l 1,15,-1
 512 192 l 1,0,-1
EndSplineSet
EndChar

StartChar: uni00B9
Encoding: 185 185 124
Width: 1024
GlyphClass: 2
Flags: W
LayerCount: 2
Fore
SplineSet
384 960 m 1,0,-1
 384 1024 l 1,1,-1
 512 1024 l 1,2,-1
 640 1024 l 1,3,-1
 640 832 l 1,4,-1
 640 640 l 1,5,-1
 704 640 l 1,6,-1
 768 640 l 1,7,-1
 768 576 l 1,8,-1
 768 512 l 1,9,-1
 512 512 l 1,10,-1
 256 512 l 1,11,-1
 256 576 l 1,12,-1
 256 640 l 1,13,-1
 320 640 l 1,14,-1
 384 640 l 1,15,-1
 384 704 l 1,16,-1
 384 768 l 1,17,-1
 320 768 l 1,18,-1
 256 768 l 1,19,-1
 256 832 l 1,20,-1
 256 896 l 1,21,-1
 320 896 l 1,22,-1
 384 896 l 1,23,-1
 384 960 l 1,0,-1
EndSplineSet
EndChar

StartChar: ordmasculine
Encoding: 186 186 125
Width: 1024
GlyphClass: 2
Flags: W
LayerCount: 2
Fore
SplineSet
256 960 m 1,0,-1
 256 1024 l 1,1,-1
 448 1024 l 1,2,-1
 640 1024 l 1,3,-1
 640 960 l 1,4,-1
 640 896 l 1,5,-1
 704 896 l 1,6,-1
 768 896 l 1,7,-1
 768 768 l 1,8,-1
 768 640 l 1,9,-1
 704 640 l 1,10,-1
 640 640 l 1,11,-1
 640 576 l 1,12,-1
 640 512 l 1,13,-1
 448 512 l 1,14,-1
 256 512 l 1,15,-1
 256 576 l 1,16,-1
 256 640 l 1,17,-1
 192 640 l 1,18,-1
 128 640 l 1,19,-1
 128 768 l 1,20,-1
 128 896 l 1,21,-1
 192 896 l 1,22,-1
 256 896 l 1,23,-1
 256 960 l 1,0,-1
512 768 m 1,24,-1
 512 896 l 1,25,-1
 448 896 l 1,26,-1
 384 896 l 1,27,-1
 384 768 l 1,28,-1
 384 640 l 1,29,-1
 448 640 l 1,30,-1
 512 640 l 1,31,-1
 512 768 l 1,24,-1
EndSplineSet
EndChar

StartChar: guillemotright
Encoding: 187 187 126
Width: 1024
GlyphClass: 2
Flags: W
LayerCount: 2
Fore
SplineSet
0 832 m 1,0,-1
 0 896 l 1,1,-1
 128 896 l 1,2,-1
 256 896 l 1,3,-1
 256 832 l 1,4,-1
 256 768 l 1,5,-1
 320 768 l 1,6,-1
 384 768 l 1,7,-1
 384 832 l 1,8,-1
 384 896 l 1,9,-1
 512 896 l 1,10,-1
 640 896 l 1,11,-1
 640 832 l 1,12,-1
 640 768 l 1,13,-1
 704 768 l 1,14,-1
 768 768 l 1,15,-1
 768 704 l 1,16,-1
 768 640 l 1,17,-1
 832 640 l 1,18,-1
 896 640 l 1,19,-1
 896 576 l 1,20,-1
 896 512 l 1,21,-1
 832 512 l 1,22,-1
 768 512 l 1,23,-1
 768 448 l 1,24,-1
 768 384 l 1,25,-1
 704 384 l 1,26,-1
 640 384 l 1,27,-1
 640 320 l 1,28,-1
 640 256 l 1,29,-1
 512 256 l 1,30,-1
 384 256 l 1,31,-1
 384 320 l 1,32,-1
 384 384 l 1,33,-1
 320 384 l 1,34,-1
 256 384 l 1,35,-1
 256 320 l 1,36,-1
 256 256 l 1,37,-1
 128 256 l 1,38,-1
 0 256 l 1,39,-1
 0 320 l 1,40,-1
 0 384 l 1,41,-1
 64 384 l 1,42,-1
 128 384 l 1,43,-1
 128 448 l 1,44,-1
 128 512 l 1,45,-1
 192 512 l 1,46,-1
 256 512 l 1,47,-1
 256 576 l 1,48,-1
 256 640 l 1,49,-1
 192 640 l 1,50,-1
 128 640 l 1,51,-1
 128 704 l 1,52,-1
 128 768 l 1,53,-1
 64 768 l 1,54,-1
 0 768 l 1,55,-1
 0 832 l 1,0,-1
512 704 m 1,56,-1
 512 768 l 1,57,-1
 448 768 l 1,58,-1
 384 768 l 1,59,-1
 384 704 l 1,60,-1
 384 640 l 1,61,-1
 448 640 l 1,62,-1
 512 640 l 1,63,-1
 512 576 l 1,64,-1
 512 512 l 1,65,-1
 448 512 l 1,66,-1
 384 512 l 1,67,-1
 384 448 l 1,68,-1
 384 384 l 1,69,-1
 448 384 l 1,70,-1
 512 384 l 1,71,-1
 512 448 l 1,72,-1
 512 512 l 1,73,-1
 576 512 l 1,74,-1
 640 512 l 1,75,-1
 640 576 l 1,76,-1
 640 640 l 1,77,-1
 576 640 l 1,78,-1
 512 640 l 1,79,-1
 512 704 l 1,56,-1
EndSplineSet
EndChar

StartChar: onequarter
Encoding: 188 188 127
Width: 1024
GlyphClass: 2
Flags: W
LayerCount: 2
Fore
SplineSet
768 576 m 1,0,-1
 768 640 l 1,1,-1
 832 640 l 1,2,-1
 896 640 l 1,3,-1
 896 384 l 1,4,-1
 896 128 l 1,5,-1
 832 128 l 1,6,-1
 768 128 l 1,7,-1
 768 192 l 1,8,-1
 768 256 l 1,9,-1
 640 256 l 1,10,-1
 512 256 l 1,11,-1
 512 320 l 1,12,-1
 512 384 l 1,13,-1
 576 384 l 1,14,-1
 640 384 l 1,15,-1
 640 448 l 1,16,-1
 640 512 l 1,17,-1
 704 512 l 1,18,-1
 768 512 l 1,19,-1
 768 576 l 1,0,-1
128 960 m 1,20,-1
 128 1024 l 1,21,-1
 192 1024 l 1,22,-1
 256 1024 l 1,23,-1
 256 768 l 1,24,-1
 256 512 l 1,25,-1
 320 512 l 1,26,-1
 384 512 l 1,27,-1
 384 576 l 1,28,-1
 384 640 l 1,29,-1
 448 640 l 1,30,-1
 512 640 l 1,31,-1
 512 704 l 1,32,-1
 512 768 l 1,33,-1
 576 768 l 1,34,-1
 640 768 l 1,35,-1
 640 832 l 1,36,-1
 640 896 l 1,37,-1
 704 896 l 1,38,-1
 768 896 l 1,39,-1
 768 960 l 1,40,-1
 768 1024 l 1,41,-1
 832 1024 l 1,42,-1
 896 1024 l 1,43,-1
 896 960 l 1,44,-1
 896 896 l 1,45,-1
 832 896 l 1,46,-1
 768 896 l 1,47,-1
 768 832 l 1,48,-1
 768 768 l 1,49,-1
 704 768 l 1,50,-1
 640 768 l 1,51,-1
 640 704 l 1,52,-1
 640 640 l 1,53,-1
 576 640 l 1,54,-1
 512 640 l 1,55,-1
 512 576 l 1,56,-1
 512 512 l 1,57,-1
 448 512 l 1,58,-1
 384 512 l 1,59,-1
 384 448 l 1,60,-1
 384 384 l 1,61,-1
 320 384 l 1,62,-1
 256 384 l 1,63,-1
 256 320 l 1,64,-1
 256 256 l 1,65,-1
 192 256 l 1,66,-1
 128 256 l 1,67,-1
 128 192 l 1,68,-1
 128 128 l 1,69,-1
 64 128 l 1,70,-1
 0 128 l 1,71,-1
 0 192 l 1,72,-1
 0 256 l 1,73,-1
 64 256 l 1,74,-1
 128 256 l 1,75,-1
 128 320 l 1,76,-1
 128 384 l 1,77,-1
 192 384 l 1,78,-1
 256 384 l 1,79,-1
 256 448 l 1,80,-1
 256 512 l 1,81,-1
 192 512 l 1,82,-1
 128 512 l 1,83,-1
 128 640 l 1,84,-1
 128 768 l 1,85,-1
 64 768 l 1,86,-1
 0 768 l 1,87,-1
 0 832 l 1,88,-1
 0 896 l 1,89,-1
 64 896 l 1,90,-1
 128 896 l 1,91,-1
 128 960 l 1,20,-1
EndSplineSet
EndChar

StartChar: onehalf
Encoding: 189 189 128
Width: 1024
GlyphClass: 2
Flags: W
LayerCount: 2
Fore
SplineSet
128 960 m 1,0,-1
 128 1024 l 1,1,-1
 192 1024 l 1,2,-1
 256 1024 l 1,3,-1
 256 768 l 1,4,-1
 256 512 l 1,5,-1
 320 512 l 1,6,-1
 384 512 l 1,7,-1
 384 576 l 1,8,-1
 384 640 l 1,9,-1
 448 640 l 1,10,-1
 512 640 l 1,11,-1
 512 704 l 1,12,-1
 512 768 l 1,13,-1
 576 768 l 1,14,-1
 640 768 l 1,15,-1
 640 832 l 1,16,-1
 640 896 l 1,17,-1
 704 896 l 1,18,-1
 768 896 l 1,19,-1
 768 960 l 1,20,-1
 768 1024 l 1,21,-1
 832 1024 l 1,22,-1
 896 1024 l 1,23,-1
 896 960 l 1,24,-1
 896 896 l 1,25,-1
 832 896 l 1,26,-1
 768 896 l 1,27,-1
 768 832 l 1,28,-1
 768 768 l 1,29,-1
 704 768 l 1,30,-1
 640 768 l 1,31,-1
 640 704 l 1,32,-1
 640 640 l 1,33,-1
 768 640 l 1,34,-1
 896 640 l 1,35,-1
 896 512 l 1,36,-1
 896 384 l 1,37,-1
 832 384 l 1,38,-1
 768 384 l 1,39,-1
 768 320 l 1,40,-1
 768 256 l 1,41,-1
 832 256 l 1,42,-1
 896 256 l 1,43,-1
 896 192 l 1,44,-1
 896 128 l 1,45,-1
 704 128 l 1,46,-1
 512 128 l 1,47,-1
 512 192 l 1,48,-1
 512 256 l 1,49,-1
 576 256 l 1,50,-1
 640 256 l 1,51,-1
 640 320 l 1,52,-1
 640 384 l 1,53,-1
 704 384 l 1,54,-1
 768 384 l 1,55,-1
 768 448 l 1,56,-1
 768 512 l 1,57,-1
 704 512 l 1,58,-1
 640 512 l 1,59,-1
 640 576 l 1,60,-1
 640 640 l 1,61,-1
 576 640 l 1,62,-1
 512 640 l 1,63,-1
 512 576 l 1,64,-1
 512 512 l 1,65,-1
 448 512 l 1,66,-1
 384 512 l 1,67,-1
 384 448 l 1,68,-1
 384 384 l 1,69,-1
 320 384 l 1,70,-1
 256 384 l 1,71,-1
 256 320 l 1,72,-1
 256 256 l 1,73,-1
 192 256 l 1,74,-1
 128 256 l 1,75,-1
 128 192 l 1,76,-1
 128 128 l 1,77,-1
 64 128 l 1,78,-1
 0 128 l 1,79,-1
 0 192 l 1,80,-1
 0 256 l 1,81,-1
 64 256 l 1,82,-1
 128 256 l 1,83,-1
 128 320 l 1,84,-1
 128 384 l 1,85,-1
 192 384 l 1,86,-1
 256 384 l 1,87,-1
 256 448 l 1,88,-1
 256 512 l 1,89,-1
 192 512 l 1,90,-1
 128 512 l 1,91,-1
 128 640 l 1,92,-1
 128 768 l 1,93,-1
 64 768 l 1,94,-1
 0 768 l 1,95,-1
 0 832 l 1,96,-1
 0 896 l 1,97,-1
 64 896 l 1,98,-1
 128 896 l 1,99,-1
 128 960 l 1,0,-1
EndSplineSet
EndChar

StartChar: threequarters
Encoding: 190 190 129
Width: 1024
GlyphClass: 2
Flags: W
LayerCount: 2
Fore
SplineSet
768 576 m 1,0,-1
 768 640 l 1,1,-1
 832 640 l 1,2,-1
 896 640 l 1,3,-1
 896 384 l 1,4,-1
 896 128 l 1,5,-1
 832 128 l 1,6,-1
 768 128 l 1,7,-1
 768 192 l 1,8,-1
 768 256 l 1,9,-1
 640 256 l 1,10,-1
 512 256 l 1,11,-1
 512 320 l 1,12,-1
 512 384 l 1,13,-1
 576 384 l 1,14,-1
 640 384 l 1,15,-1
 640 448 l 1,16,-1
 640 512 l 1,17,-1
 704 512 l 1,18,-1
 768 512 l 1,19,-1
 768 576 l 1,0,-1
0 960 m 1,20,-1
 0 1024 l 1,21,-1
 192 1024 l 1,22,-1
 384 1024 l 1,23,-1
 384 960 l 1,24,-1
 384 896 l 1,25,-1
 320 896 l 1,26,-1
 256 896 l 1,27,-1
 256 832 l 1,28,-1
 256 768 l 1,29,-1
 320 768 l 1,30,-1
 384 768 l 1,31,-1
 384 704 l 1,32,-1
 384 640 l 1,33,-1
 448 640 l 1,34,-1
 512 640 l 1,35,-1
 512 704 l 1,36,-1
 512 768 l 1,37,-1
 576 768 l 1,38,-1
 640 768 l 1,39,-1
 640 832 l 1,40,-1
 640 896 l 1,41,-1
 704 896 l 1,42,-1
 768 896 l 1,43,-1
 768 960 l 1,44,-1
 768 1024 l 1,45,-1
 832 1024 l 1,46,-1
 896 1024 l 1,47,-1
 896 960 l 1,48,-1
 896 896 l 1,49,-1
 832 896 l 1,50,-1
 768 896 l 1,51,-1
 768 832 l 1,52,-1
 768 768 l 1,53,-1
 704 768 l 1,54,-1
 640 768 l 1,55,-1
 640 704 l 1,56,-1
 640 640 l 1,57,-1
 576 640 l 1,58,-1
 512 640 l 1,59,-1
 512 576 l 1,60,-1
 512 512 l 1,61,-1
 448 512 l 1,62,-1
 384 512 l 1,63,-1
 384 448 l 1,64,-1
 384 384 l 1,65,-1
 320 384 l 1,66,-1
 256 384 l 1,67,-1
 256 320 l 1,68,-1
 256 256 l 1,69,-1
 192 256 l 1,70,-1
 128 256 l 1,71,-1
 128 192 l 1,72,-1
 128 128 l 1,73,-1
 64 128 l 1,74,-1
 0 128 l 1,75,-1
 0 192 l 1,76,-1
 0 256 l 1,77,-1
 64 256 l 1,78,-1
 128 256 l 1,79,-1
 128 320 l 1,80,-1
 128 384 l 1,81,-1
 192 384 l 1,82,-1
 256 384 l 1,83,-1
 256 448 l 1,84,-1
 256 512 l 1,85,-1
 128 512 l 1,86,-1
 0 512 l 1,87,-1
 0 576 l 1,88,-1
 0 640 l 1,89,-1
 128 640 l 1,90,-1
 256 640 l 1,91,-1
 256 704 l 1,92,-1
 256 768 l 1,93,-1
 192 768 l 1,94,-1
 128 768 l 1,95,-1
 128 832 l 1,96,-1
 128 896 l 1,97,-1
 64 896 l 1,98,-1
 0 896 l 1,99,-1
 0 960 l 1,20,-1
384 576 m 1,100,-1
 384 640 l 1,101,-1
 320 640 l 1,102,-1
 256 640 l 1,103,-1
 256 576 l 1,104,-1
 256 512 l 1,105,-1
 320 512 l 1,106,-1
 384 512 l 1,107,-1
 384 576 l 1,100,-1
EndSplineSet
EndChar

StartChar: questiondown
Encoding: 191 191 130
Width: 1024
GlyphClass: 2
Flags: W
LayerCount: 2
Fore
SplineSet
256 704 m 1,0,-1
 256 768 l 1,1,-1
 448 768 l 1,2,-1
 640 768 l 1,3,-1
 640 704 l 1,4,-1
 640 640 l 1,5,-1
 512 640 l 1,6,-1
 384 640 l 1,7,-1
 384 576 l 1,8,-1
 384 512 l 1,9,-1
 320 512 l 1,10,-1
 256 512 l 1,11,-1
 256 448 l 1,12,-1
 256 384 l 1,13,-1
 448 384 l 1,14,-1
 640 384 l 1,15,-1
 640 448 l 1,16,-1
 640 512 l 1,17,-1
 768 512 l 1,18,-1
 896 512 l 1,19,-1
 896 384 l 1,20,-1
 896 256 l 1,21,-1
 832 256 l 1,22,-1
 768 256 l 1,23,-1
 768 192 l 1,24,-1
 768 128 l 1,25,-1
 448 128 l 1,26,-1
 128 128 l 1,27,-1
 128 192 l 1,28,-1
 128 256 l 1,29,-1
 64 256 l 1,30,-1
 0 256 l 1,31,-1
 0 384 l 1,32,-1
 0 512 l 1,33,-1
 64 512 l 1,34,-1
 128 512 l 1,35,-1
 128 576 l 1,36,-1
 128 640 l 1,37,-1
 192 640 l 1,38,-1
 256 640 l 1,39,-1
 256 704 l 1,0,-1
256 960 m 1,40,-1
 256 1024 l 1,41,-1
 448 1024 l 1,42,-1
 640 1024 l 1,43,-1
 640 960 l 1,44,-1
 640 896 l 1,45,-1
 448 896 l 1,46,-1
 256 896 l 1,47,-1
 256 960 l 1,40,-1
EndSplineSet
EndChar

StartChar: Agrave
Encoding: 192 192 131
Width: 1024
GlyphClass: 2
Flags: W
LayerCount: 2
Fore
SplineSet
256 960 m 1,0,-1
 256 1024 l 1,1,-1
 320 1024 l 1,2,-1
 384 1024 l 1,3,-1
 384 960 l 1,4,-1
 384 896 l 1,5,-1
 448 896 l 1,6,-1
 512 896 l 1,7,-1
 512 832 l 1,8,-1
 512 768 l 1,9,-1
 576 768 l 1,10,-1
 640 768 l 1,11,-1
 640 704 l 1,12,-1
 640 640 l 1,13,-1
 704 640 l 1,14,-1
 768 640 l 1,15,-1
 768 576 l 1,16,-1
 768 512 l 1,17,-1
 832 512 l 1,18,-1
 896 512 l 1,19,-1
 896 320 l 1,20,-1
 896 128 l 1,21,-1
 768 128 l 1,22,-1
 640 128 l 1,23,-1
 640 192 l 1,24,-1
 640 256 l 1,25,-1
 448 256 l 1,26,-1
 256 256 l 1,27,-1
 256 192 l 1,28,-1
 256 128 l 1,29,-1
 128 128 l 1,30,-1
 0 128 l 1,31,-1
 0 320 l 1,32,-1
 0 512 l 1,33,-1
 64 512 l 1,34,-1
 128 512 l 1,35,-1
 128 576 l 1,36,-1
 128 640 l 1,37,-1
 192 640 l 1,38,-1
 256 640 l 1,39,-1
 256 704 l 1,40,-1
 256 768 l 1,41,-1
 320 768 l 1,42,-1
 384 768 l 1,43,-1
 384 832 l 1,44,-1
 384 896 l 1,45,-1
 320 896 l 1,46,-1
 256 896 l 1,47,-1
 256 960 l 1,0,-1
512 576 m 1,48,-1
 512 640 l 1,49,-1
 448 640 l 1,50,-1
 384 640 l 1,51,-1
 384 576 l 1,52,-1
 384 512 l 1,53,-1
 320 512 l 1,54,-1
 256 512 l 1,55,-1
 256 448 l 1,56,-1
 256 384 l 1,57,-1
 448 384 l 1,58,-1
 640 384 l 1,59,-1
 640 448 l 1,60,-1
 640 512 l 1,61,-1
 576 512 l 1,62,-1
 512 512 l 1,63,-1
 512 576 l 1,48,-1
EndSplineSet
EndChar

StartChar: Aacute
Encoding: 193 193 132
Width: 1024
GlyphClass: 2
Flags: W
LayerCount: 2
Fore
SplineSet
512 960 m 1,0,-1
 512 1024 l 1,1,-1
 576 1024 l 1,2,-1
 640 1024 l 1,3,-1
 640 960 l 1,4,-1
 640 896 l 1,5,-1
 576 896 l 1,6,-1
 512 896 l 1,7,-1
 512 832 l 1,8,-1
 512 768 l 1,9,-1
 576 768 l 1,10,-1
 640 768 l 1,11,-1
 640 704 l 1,12,-1
 640 640 l 1,13,-1
 704 640 l 1,14,-1
 768 640 l 1,15,-1
 768 576 l 1,16,-1
 768 512 l 1,17,-1
 832 512 l 1,18,-1
 896 512 l 1,19,-1
 896 320 l 1,20,-1
 896 128 l 1,21,-1
 768 128 l 1,22,-1
 640 128 l 1,23,-1
 640 192 l 1,24,-1
 640 256 l 1,25,-1
 448 256 l 1,26,-1
 256 256 l 1,27,-1
 256 192 l 1,28,-1
 256 128 l 1,29,-1
 128 128 l 1,30,-1
 0 128 l 1,31,-1
 0 320 l 1,32,-1
 0 512 l 1,33,-1
 64 512 l 1,34,-1
 128 512 l 1,35,-1
 128 576 l 1,36,-1
 128 640 l 1,37,-1
 192 640 l 1,38,-1
 256 640 l 1,39,-1
 256 704 l 1,40,-1
 256 768 l 1,41,-1
 320 768 l 1,42,-1
 384 768 l 1,43,-1
 384 832 l 1,44,-1
 384 896 l 1,45,-1
 448 896 l 1,46,-1
 512 896 l 1,47,-1
 512 960 l 1,0,-1
512 576 m 1,48,-1
 512 640 l 1,49,-1
 448 640 l 1,50,-1
 384 640 l 1,51,-1
 384 576 l 1,52,-1
 384 512 l 1,53,-1
 320 512 l 1,54,-1
 256 512 l 1,55,-1
 256 448 l 1,56,-1
 256 384 l 1,57,-1
 448 384 l 1,58,-1
 640 384 l 1,59,-1
 640 448 l 1,60,-1
 640 512 l 1,61,-1
 576 512 l 1,62,-1
 512 512 l 1,63,-1
 512 576 l 1,48,-1
EndSplineSet
EndChar

StartChar: Acircumflex
Encoding: 194 194 133
Width: 1024
GlyphClass: 2
Flags: W
LayerCount: 2
Fore
SplineSet
256 960 m 1,0,-1
 256 1024 l 1,1,-1
 448 1024 l 1,2,-1
 640 1024 l 1,3,-1
 640 960 l 1,4,-1
 640 896 l 1,5,-1
 704 896 l 1,6,-1
 768 896 l 1,7,-1
 768 832 l 1,8,-1
 768 768 l 1,9,-1
 704 768 l 1,10,-1
 640 768 l 1,11,-1
 640 704 l 1,12,-1
 640 640 l 1,13,-1
 704 640 l 1,14,-1
 768 640 l 1,15,-1
 768 576 l 1,16,-1
 768 512 l 1,17,-1
 832 512 l 1,18,-1
 896 512 l 1,19,-1
 896 320 l 1,20,-1
 896 128 l 1,21,-1
 768 128 l 1,22,-1
 640 128 l 1,23,-1
 640 192 l 1,24,-1
 640 256 l 1,25,-1
 448 256 l 1,26,-1
 256 256 l 1,27,-1
 256 192 l 1,28,-1
 256 128 l 1,29,-1
 128 128 l 1,30,-1
 0 128 l 1,31,-1
 0 320 l 1,32,-1
 0 512 l 1,33,-1
 64 512 l 1,34,-1
 128 512 l 1,35,-1
 128 576 l 1,36,-1
 128 640 l 1,37,-1
 192 640 l 1,38,-1
 256 640 l 1,39,-1
 256 704 l 1,40,-1
 256 768 l 1,41,-1
 192 768 l 1,42,-1
 128 768 l 1,43,-1
 128 832 l 1,44,-1
 128 896 l 1,45,-1
 192 896 l 1,46,-1
 256 896 l 1,47,-1
 256 960 l 1,0,-1
512 832 m 1,48,-1
 512 896 l 1,49,-1
 448 896 l 1,50,-1
 384 896 l 1,51,-1
 384 832 l 1,52,-1
 384 768 l 1,53,-1
 448 768 l 1,54,-1
 512 768 l 1,55,-1
 512 832 l 1,48,-1
512 576 m 1,56,-1
 512 640 l 1,57,-1
 448 640 l 1,58,-1
 384 640 l 1,59,-1
 384 576 l 1,60,-1
 384 512 l 1,61,-1
 320 512 l 1,62,-1
 256 512 l 1,63,-1
 256 448 l 1,64,-1
 256 384 l 1,65,-1
 448 384 l 1,66,-1
 640 384 l 1,67,-1
 640 448 l 1,68,-1
 640 512 l 1,69,-1
 576 512 l 1,70,-1
 512 512 l 1,71,-1
 512 576 l 1,56,-1
EndSplineSet
EndChar

StartChar: Atilde
Encoding: 195 195 134
Width: 1024
GlyphClass: 2
Flags: W
LayerCount: 2
Fore
SplineSet
256 960 m 1,0,-1
 256 1024 l 1,1,-1
 384 1024 l 1,2,-1
 512 1024 l 1,3,-1
 512 960 l 1,4,-1
 512 896 l 1,5,-1
 576 896 l 1,6,-1
 640 896 l 1,7,-1
 640 960 l 1,8,-1
 640 1024 l 1,9,-1
 704 1024 l 1,10,-1
 768 1024 l 1,11,-1
 768 960 l 1,12,-1
 768 896 l 1,13,-1
 704 896 l 1,14,-1
 640 896 l 1,15,-1
 640 768 l 1,16,-1
 640 640 l 1,17,-1
 704 640 l 1,18,-1
 768 640 l 1,19,-1
 768 576 l 1,20,-1
 768 512 l 1,21,-1
 832 512 l 1,22,-1
 896 512 l 1,23,-1
 896 320 l 1,24,-1
 896 128 l 1,25,-1
 768 128 l 1,26,-1
 640 128 l 1,27,-1
 640 192 l 1,28,-1
 640 256 l 1,29,-1
 448 256 l 1,30,-1
 256 256 l 1,31,-1
 256 192 l 1,32,-1
 256 128 l 1,33,-1
 128 128 l 1,34,-1
 0 128 l 1,35,-1
 0 320 l 1,36,-1
 0 512 l 1,37,-1
 64 512 l 1,38,-1
 128 512 l 1,39,-1
 128 576 l 1,40,-1
 128 640 l 1,41,-1
 192 640 l 1,42,-1
 256 640 l 1,43,-1
 256 704 l 1,44,-1
 256 768 l 1,45,-1
 192 768 l 1,46,-1
 128 768 l 1,47,-1
 128 832 l 1,48,-1
 128 896 l 1,49,-1
 192 896 l 1,50,-1
 256 896 l 1,51,-1
 256 960 l 1,0,-1
384 832 m 1,52,-1
 384 896 l 1,53,-1
 320 896 l 1,54,-1
 256 896 l 1,55,-1
 256 832 l 1,56,-1
 256 768 l 1,57,-1
 320 768 l 1,58,-1
 384 768 l 1,59,-1
 384 832 l 1,52,-1
512 576 m 1,60,-1
 512 640 l 1,61,-1
 448 640 l 1,62,-1
 384 640 l 1,63,-1
 384 576 l 1,64,-1
 384 512 l 1,65,-1
 320 512 l 1,66,-1
 256 512 l 1,67,-1
 256 448 l 1,68,-1
 256 384 l 1,69,-1
 448 384 l 1,70,-1
 640 384 l 1,71,-1
 640 448 l 1,72,-1
 640 512 l 1,73,-1
 576 512 l 1,74,-1
 512 512 l 1,75,-1
 512 576 l 1,60,-1
EndSplineSet
EndChar

StartChar: Adieresis
Encoding: 196 196 135
Width: 1024
GlyphClass: 2
Flags: W
LayerCount: 2
Fore
SplineSet
256 704 m 1,0,-1
 256 768 l 1,1,-1
 448 768 l 1,2,-1
 640 768 l 1,3,-1
 640 704 l 1,4,-1
 640 640 l 1,5,-1
 704 640 l 1,6,-1
 768 640 l 1,7,-1
 768 576 l 1,8,-1
 768 512 l 1,9,-1
 832 512 l 1,10,-1
 896 512 l 1,11,-1
 896 320 l 1,12,-1
 896 128 l 1,13,-1
 768 128 l 1,14,-1
 640 128 l 1,15,-1
 640 192 l 1,16,-1
 640 256 l 1,17,-1
 448 256 l 1,18,-1
 256 256 l 1,19,-1
 256 192 l 1,20,-1
 256 128 l 1,21,-1
 128 128 l 1,22,-1
 0 128 l 1,23,-1
 0 320 l 1,24,-1
 0 512 l 1,25,-1
 64 512 l 1,26,-1
 128 512 l 1,27,-1
 128 576 l 1,28,-1
 128 640 l 1,29,-1
 192 640 l 1,30,-1
 256 640 l 1,31,-1
 256 704 l 1,0,-1
512 576 m 1,32,-1
 512 640 l 1,33,-1
 448 640 l 1,34,-1
 384 640 l 1,35,-1
 384 576 l 1,36,-1
 384 512 l 1,37,-1
 320 512 l 1,38,-1
 256 512 l 1,39,-1
 256 448 l 1,40,-1
 256 384 l 1,41,-1
 448 384 l 1,42,-1
 640 384 l 1,43,-1
 640 448 l 1,44,-1
 640 512 l 1,45,-1
 576 512 l 1,46,-1
 512 512 l 1,47,-1
 512 576 l 1,32,-1
512 960 m 1,48,-1
 512 1024 l 1,49,-1
 640 1024 l 1,50,-1
 768 1024 l 1,51,-1
 768 960 l 1,52,-1
 768 896 l 1,53,-1
 640 896 l 1,54,-1
 512 896 l 1,55,-1
 512 960 l 1,48,-1
128 960 m 1,56,-1
 128 1024 l 1,57,-1
 256 1024 l 1,58,-1
 384 1024 l 1,59,-1
 384 960 l 1,60,-1
 384 896 l 1,61,-1
 256 896 l 1,62,-1
 128 896 l 1,63,-1
 128 960 l 1,56,-1
EndSplineSet
EndChar

StartChar: Aring
Encoding: 197 197 136
Width: 1024
GlyphClass: 2
Flags: W
LayerCount: 2
Fore
SplineSet
384 960 m 1,0,-1
 384 1024 l 1,1,-1
 448 1024 l 1,2,-1
 512 1024 l 1,3,-1
 512 960 l 1,4,-1
 512 896 l 1,5,-1
 576 896 l 1,6,-1
 640 896 l 1,7,-1
 640 768 l 1,8,-1
 640 640 l 1,9,-1
 704 640 l 1,10,-1
 768 640 l 1,11,-1
 768 576 l 1,12,-1
 768 512 l 1,13,-1
 832 512 l 1,14,-1
 896 512 l 1,15,-1
 896 320 l 1,16,-1
 896 128 l 1,17,-1
 768 128 l 1,18,-1
 640 128 l 1,19,-1
 640 192 l 1,20,-1
 640 256 l 1,21,-1
 448 256 l 1,22,-1
 256 256 l 1,23,-1
 256 192 l 1,24,-1
 256 128 l 1,25,-1
 128 128 l 1,26,-1
 0 128 l 1,27,-1
 0 320 l 1,28,-1
 0 512 l 1,29,-1
 64 512 l 1,30,-1
 128 512 l 1,31,-1
 128 576 l 1,32,-1
 128 640 l 1,33,-1
 192 640 l 1,34,-1
 256 640 l 1,35,-1
 256 768 l 1,36,-1
 256 896 l 1,37,-1
 320 896 l 1,38,-1
 384 896 l 1,39,-1
 384 960 l 1,0,-1
512 832 m 1,40,-1
 512 896 l 1,41,-1
 448 896 l 1,42,-1
 384 896 l 1,43,-1
 384 832 l 1,44,-1
 384 768 l 1,45,-1
 448 768 l 1,46,-1
 512 768 l 1,47,-1
 512 832 l 1,40,-1
512 576 m 1,48,-1
 512 640 l 1,49,-1
 448 640 l 1,50,-1
 384 640 l 1,51,-1
 384 576 l 1,52,-1
 384 512 l 1,53,-1
 320 512 l 1,54,-1
 256 512 l 1,55,-1
 256 448 l 1,56,-1
 256 384 l 1,57,-1
 448 384 l 1,58,-1
 640 384 l 1,59,-1
 640 448 l 1,60,-1
 640 512 l 1,61,-1
 576 512 l 1,62,-1
 512 512 l 1,63,-1
 512 576 l 1,48,-1
EndSplineSet
EndChar

StartChar: AE
Encoding: 198 198 137
Width: 1024
GlyphClass: 2
Flags: W
LayerCount: 2
Fore
SplineSet
256 960 m 1,0,-1
 256 1024 l 1,1,-1
 576 1024 l 1,2,-1
 896 1024 l 1,3,-1
 896 960 l 1,4,-1
 896 896 l 1,5,-1
 768 896 l 1,6,-1
 640 896 l 1,7,-1
 640 768 l 1,8,-1
 640 640 l 1,9,-1
 768 640 l 1,10,-1
 896 640 l 1,11,-1
 896 576 l 1,12,-1
 896 512 l 1,13,-1
 768 512 l 1,14,-1
 640 512 l 1,15,-1
 640 384 l 1,16,-1
 640 256 l 1,17,-1
 768 256 l 1,18,-1
 896 256 l 1,19,-1
 896 192 l 1,20,-1
 896 128 l 1,21,-1
 640 128 l 1,22,-1
 384 128 l 1,23,-1
 384 256 l 1,24,-1
 384 384 l 1,25,-1
 320 384 l 1,26,-1
 256 384 l 1,27,-1
 256 256 l 1,28,-1
 256 128 l 1,29,-1
 128 128 l 1,30,-1
 0 128 l 1,31,-1
 0 448 l 1,32,-1
 0 768 l 1,33,-1
 64 768 l 1,34,-1
 128 768 l 1,35,-1
 128 832 l 1,36,-1
 128 896 l 1,37,-1
 192 896 l 1,38,-1
 256 896 l 1,39,-1
 256 960 l 1,0,-1
384 640 m 1,40,-1
 384 768 l 1,41,-1
 320 768 l 1,42,-1
 256 768 l 1,43,-1
 256 640 l 1,44,-1
 256 512 l 1,45,-1
 320 512 l 1,46,-1
 384 512 l 1,47,-1
 384 640 l 1,40,-1
EndSplineSet
EndChar

StartChar: Ccedilla
Encoding: 199 199 138
Width: 1024
GlyphClass: 2
Flags: W
LayerCount: 2
Fore
SplineSet
256 960 m 1,0,-1
 256 1024 l 1,1,-1
 512 1024 l 1,2,-1
 768 1024 l 1,3,-1
 768 960 l 1,4,-1
 768 896 l 1,5,-1
 832 896 l 1,6,-1
 896 896 l 1,7,-1
 896 832 l 1,8,-1
 896 768 l 1,9,-1
 768 768 l 1,10,-1
 640 768 l 1,11,-1
 640 832 l 1,12,-1
 640 896 l 1,13,-1
 512 896 l 1,14,-1
 384 896 l 1,15,-1
 384 832 l 1,16,-1
 384 768 l 1,17,-1
 320 768 l 1,18,-1
 256 768 l 1,19,-1
 256 640 l 1,20,-1
 256 512 l 1,21,-1
 320 512 l 1,22,-1
 384 512 l 1,23,-1
 384 448 l 1,24,-1
 384 384 l 1,25,-1
 512 384 l 1,26,-1
 640 384 l 1,27,-1
 640 448 l 1,28,-1
 640 512 l 1,29,-1
 768 512 l 1,30,-1
 896 512 l 1,31,-1
 896 448 l 1,32,-1
 896 384 l 1,33,-1
 832 384 l 1,34,-1
 768 384 l 1,35,-1
 768 320 l 1,36,-1
 768 256 l 1,37,-1
 704 256 l 1,38,-1
 640 256 l 1,39,-1
 640 192 l 1,40,-1
 640 128 l 1,41,-1
 576 128 l 1,42,-1
 512 128 l 1,43,-1
 512 64 l 1,44,-1
 512 0 l 1,45,-1
 384 0 l 1,46,-1
 256 0 l 1,47,-1
 256 64 l 1,48,-1
 256 128 l 1,49,-1
 384 128 l 1,50,-1
 512 128 l 1,51,-1
 512 192 l 1,52,-1
 512 256 l 1,53,-1
 384 256 l 1,54,-1
 256 256 l 1,55,-1
 256 320 l 1,56,-1
 256 384 l 1,57,-1
 192 384 l 1,58,-1
 128 384 l 1,59,-1
 128 448 l 1,60,-1
 128 512 l 1,61,-1
 64 512 l 1,62,-1
 0 512 l 1,63,-1
 0 640 l 1,64,-1
 0 768 l 1,65,-1
 64 768 l 1,66,-1
 128 768 l 1,67,-1
 128 832 l 1,68,-1
 128 896 l 1,69,-1
 192 896 l 1,70,-1
 256 896 l 1,71,-1
 256 960 l 1,0,-1
EndSplineSet
EndChar

StartChar: Egrave
Encoding: 200 200 139
Width: 1024
GlyphClass: 2
Flags: W
LayerCount: 2
Fore
SplineSet
256 960 m 1,0,-1
 256 1024 l 1,1,-1
 320 1024 l 1,2,-1
 384 1024 l 1,3,-1
 384 960 l 1,4,-1
 384 896 l 1,5,-1
 448 896 l 1,6,-1
 512 896 l 1,7,-1
 512 832 l 1,8,-1
 512 768 l 1,9,-1
 704 768 l 1,10,-1
 896 768 l 1,11,-1
 896 704 l 1,12,-1
 896 640 l 1,13,-1
 576 640 l 1,14,-1
 256 640 l 1,15,-1
 256 576 l 1,16,-1
 256 512 l 1,17,-1
 512 512 l 1,18,-1
 768 512 l 1,19,-1
 768 448 l 1,20,-1
 768 384 l 1,21,-1
 512 384 l 1,22,-1
 256 384 l 1,23,-1
 256 320 l 1,24,-1
 256 256 l 1,25,-1
 576 256 l 1,26,-1
 896 256 l 1,27,-1
 896 192 l 1,28,-1
 896 128 l 1,29,-1
 448 128 l 1,30,-1
 0 128 l 1,31,-1
 0 448 l 1,32,-1
 0 768 l 1,33,-1
 192 768 l 1,34,-1
 384 768 l 1,35,-1
 384 832 l 1,36,-1
 384 896 l 1,37,-1
 320 896 l 1,38,-1
 256 896 l 1,39,-1
 256 960 l 1,0,-1
EndSplineSet
EndChar

StartChar: Eacute
Encoding: 201 201 140
Width: 1024
GlyphClass: 2
Flags: W
LayerCount: 2
Fore
SplineSet
512 960 m 1,0,-1
 512 1024 l 1,1,-1
 576 1024 l 1,2,-1
 640 1024 l 1,3,-1
 640 960 l 1,4,-1
 640 896 l 1,5,-1
 576 896 l 1,6,-1
 512 896 l 1,7,-1
 512 832 l 1,8,-1
 512 768 l 1,9,-1
 704 768 l 1,10,-1
 896 768 l 1,11,-1
 896 704 l 1,12,-1
 896 640 l 1,13,-1
 576 640 l 1,14,-1
 256 640 l 1,15,-1
 256 576 l 1,16,-1
 256 512 l 1,17,-1
 512 512 l 1,18,-1
 768 512 l 1,19,-1
 768 448 l 1,20,-1
 768 384 l 1,21,-1
 512 384 l 1,22,-1
 256 384 l 1,23,-1
 256 320 l 1,24,-1
 256 256 l 1,25,-1
 576 256 l 1,26,-1
 896 256 l 1,27,-1
 896 192 l 1,28,-1
 896 128 l 1,29,-1
 448 128 l 1,30,-1
 0 128 l 1,31,-1
 0 448 l 1,32,-1
 0 768 l 1,33,-1
 192 768 l 1,34,-1
 384 768 l 1,35,-1
 384 832 l 1,36,-1
 384 896 l 1,37,-1
 448 896 l 1,38,-1
 512 896 l 1,39,-1
 512 960 l 1,0,-1
EndSplineSet
EndChar

StartChar: Ecircumflex
Encoding: 202 202 141
Width: 1024
GlyphClass: 2
Flags: W
LayerCount: 2
Fore
SplineSet
256 960 m 1,0,-1
 256 1024 l 1,1,-1
 448 1024 l 1,2,-1
 640 1024 l 1,3,-1
 640 960 l 1,4,-1
 640 896 l 1,5,-1
 704 896 l 1,6,-1
 768 896 l 1,7,-1
 768 832 l 1,8,-1
 768 768 l 1,9,-1
 832 768 l 1,10,-1
 896 768 l 1,11,-1
 896 704 l 1,12,-1
 896 640 l 1,13,-1
 576 640 l 1,14,-1
 256 640 l 1,15,-1
 256 576 l 1,16,-1
 256 512 l 1,17,-1
 512 512 l 1,18,-1
 768 512 l 1,19,-1
 768 448 l 1,20,-1
 768 384 l 1,21,-1
 512 384 l 1,22,-1
 256 384 l 1,23,-1
 256 320 l 1,24,-1
 256 256 l 1,25,-1
 576 256 l 1,26,-1
 896 256 l 1,27,-1
 896 192 l 1,28,-1
 896 128 l 1,29,-1
 448 128 l 1,30,-1
 0 128 l 1,31,-1
 0 448 l 1,32,-1
 0 768 l 1,33,-1
 64 768 l 1,34,-1
 128 768 l 1,35,-1
 128 832 l 1,36,-1
 128 896 l 1,37,-1
 192 896 l 1,38,-1
 256 896 l 1,39,-1
 256 960 l 1,0,-1
512 832 m 1,40,-1
 512 896 l 1,41,-1
 448 896 l 1,42,-1
 384 896 l 1,43,-1
 384 832 l 1,44,-1
 384 768 l 1,45,-1
 448 768 l 1,46,-1
 512 768 l 1,47,-1
 512 832 l 1,40,-1
EndSplineSet
EndChar

StartChar: Edieresis
Encoding: 203 203 142
Width: 1024
GlyphClass: 2
Flags: W
LayerCount: 2
Fore
SplineSet
0 448 m 1,0,-1
 0 768 l 1,1,-1
 448 768 l 1,2,-1
 896 768 l 1,3,-1
 896 704 l 1,4,-1
 896 640 l 1,5,-1
 576 640 l 1,6,-1
 256 640 l 1,7,-1
 256 576 l 1,8,-1
 256 512 l 1,9,-1
 512 512 l 1,10,-1
 768 512 l 1,11,-1
 768 448 l 1,12,-1
 768 384 l 1,13,-1
 512 384 l 1,14,-1
 256 384 l 1,15,-1
 256 320 l 1,16,-1
 256 256 l 1,17,-1
 576 256 l 1,18,-1
 896 256 l 1,19,-1
 896 192 l 1,20,-1
 896 128 l 1,21,-1
 448 128 l 1,22,-1
 0 128 l 1,23,-1
 0 448 l 1,0,-1
512 960 m 1,24,-1
 512 1024 l 1,25,-1
 640 1024 l 1,26,-1
 768 1024 l 1,27,-1
 768 960 l 1,28,-1
 768 896 l 1,29,-1
 640 896 l 1,30,-1
 512 896 l 1,31,-1
 512 960 l 1,24,-1
128 960 m 1,32,-1
 128 1024 l 1,33,-1
 256 1024 l 1,34,-1
 384 1024 l 1,35,-1
 384 960 l 1,36,-1
 384 896 l 1,37,-1
 256 896 l 1,38,-1
 128 896 l 1,39,-1
 128 960 l 1,32,-1
EndSplineSet
EndChar

StartChar: Igrave
Encoding: 204 204 143
Width: 1024
GlyphClass: 2
Flags: W
LayerCount: 2
Fore
SplineSet
384 960 m 1,0,-1
 384 1024 l 1,1,-1
 448 1024 l 1,2,-1
 512 1024 l 1,3,-1
 512 960 l 1,4,-1
 512 896 l 1,5,-1
 576 896 l 1,6,-1
 640 896 l 1,7,-1
 640 832 l 1,8,-1
 640 768 l 1,9,-1
 768 768 l 1,10,-1
 896 768 l 1,11,-1
 896 704 l 1,12,-1
 896 640 l 1,13,-1
 768 640 l 1,14,-1
 640 640 l 1,15,-1
 640 448 l 1,16,-1
 640 256 l 1,17,-1
 768 256 l 1,18,-1
 896 256 l 1,19,-1
 896 192 l 1,20,-1
 896 128 l 1,21,-1
 512 128 l 1,22,-1
 128 128 l 1,23,-1
 128 192 l 1,24,-1
 128 256 l 1,25,-1
 256 256 l 1,26,-1
 384 256 l 1,27,-1
 384 448 l 1,28,-1
 384 640 l 1,29,-1
 256 640 l 1,30,-1
 128 640 l 1,31,-1
 128 704 l 1,32,-1
 128 768 l 1,33,-1
 320 768 l 1,34,-1
 512 768 l 1,35,-1
 512 832 l 1,36,-1
 512 896 l 1,37,-1
 448 896 l 1,38,-1
 384 896 l 1,39,-1
 384 960 l 1,0,-1
EndSplineSet
EndChar

StartChar: Iacute
Encoding: 205 205 144
Width: 1024
GlyphClass: 2
Flags: W
LayerCount: 2
Fore
SplineSet
512 960 m 1,0,-1
 512 1024 l 1,1,-1
 576 1024 l 1,2,-1
 640 1024 l 1,3,-1
 640 960 l 1,4,-1
 640 896 l 1,5,-1
 576 896 l 1,6,-1
 512 896 l 1,7,-1
 512 832 l 1,8,-1
 512 768 l 1,9,-1
 704 768 l 1,10,-1
 896 768 l 1,11,-1
 896 704 l 1,12,-1
 896 640 l 1,13,-1
 768 640 l 1,14,-1
 640 640 l 1,15,-1
 640 448 l 1,16,-1
 640 256 l 1,17,-1
 768 256 l 1,18,-1
 896 256 l 1,19,-1
 896 192 l 1,20,-1
 896 128 l 1,21,-1
 512 128 l 1,22,-1
 128 128 l 1,23,-1
 128 192 l 1,24,-1
 128 256 l 1,25,-1
 256 256 l 1,26,-1
 384 256 l 1,27,-1
 384 448 l 1,28,-1
 384 640 l 1,29,-1
 256 640 l 1,30,-1
 128 640 l 1,31,-1
 128 704 l 1,32,-1
 128 768 l 1,33,-1
 256 768 l 1,34,-1
 384 768 l 1,35,-1
 384 832 l 1,36,-1
 384 896 l 1,37,-1
 448 896 l 1,38,-1
 512 896 l 1,39,-1
 512 960 l 1,0,-1
EndSplineSet
EndChar

StartChar: Icircumflex
Encoding: 206 206 145
Width: 1024
GlyphClass: 2
Flags: W
LayerCount: 2
Fore
SplineSet
384 960 m 1,0,-1
 384 1024 l 1,1,-1
 512 1024 l 1,2,-1
 640 1024 l 1,3,-1
 640 960 l 1,4,-1
 640 896 l 1,5,-1
 704 896 l 1,6,-1
 768 896 l 1,7,-1
 768 832 l 1,8,-1
 768 768 l 1,9,-1
 832 768 l 1,10,-1
 896 768 l 1,11,-1
 896 704 l 1,12,-1
 896 640 l 1,13,-1
 768 640 l 1,14,-1
 640 640 l 1,15,-1
 640 448 l 1,16,-1
 640 256 l 1,17,-1
 768 256 l 1,18,-1
 896 256 l 1,19,-1
 896 192 l 1,20,-1
 896 128 l 1,21,-1
 512 128 l 1,22,-1
 128 128 l 1,23,-1
 128 192 l 1,24,-1
 128 256 l 1,25,-1
 256 256 l 1,26,-1
 384 256 l 1,27,-1
 384 448 l 1,28,-1
 384 640 l 1,29,-1
 256 640 l 1,30,-1
 128 640 l 1,31,-1
 128 704 l 1,32,-1
 128 768 l 1,33,-1
 192 768 l 1,34,-1
 256 768 l 1,35,-1
 256 832 l 1,36,-1
 256 896 l 1,37,-1
 320 896 l 1,38,-1
 384 896 l 1,39,-1
 384 960 l 1,0,-1
EndSplineSet
EndChar

StartChar: Idieresis
Encoding: 207 207 146
Width: 1024
GlyphClass: 2
Flags: W
LayerCount: 2
Fore
SplineSet
128 704 m 1,0,-1
 128 768 l 1,1,-1
 512 768 l 1,2,-1
 896 768 l 1,3,-1
 896 704 l 1,4,-1
 896 640 l 1,5,-1
 768 640 l 1,6,-1
 640 640 l 1,7,-1
 640 448 l 1,8,-1
 640 256 l 1,9,-1
 768 256 l 1,10,-1
 896 256 l 1,11,-1
 896 192 l 1,12,-1
 896 128 l 1,13,-1
 512 128 l 1,14,-1
 128 128 l 1,15,-1
 128 192 l 1,16,-1
 128 256 l 1,17,-1
 256 256 l 1,18,-1
 384 256 l 1,19,-1
 384 448 l 1,20,-1
 384 640 l 1,21,-1
 256 640 l 1,22,-1
 128 640 l 1,23,-1
 128 704 l 1,0,-1
640 960 m 1,24,-1
 640 1024 l 1,25,-1
 768 1024 l 1,26,-1
 896 1024 l 1,27,-1
 896 960 l 1,28,-1
 896 896 l 1,29,-1
 768 896 l 1,30,-1
 640 896 l 1,31,-1
 640 960 l 1,24,-1
128 960 m 1,32,-1
 128 1024 l 1,33,-1
 256 1024 l 1,34,-1
 384 1024 l 1,35,-1
 384 960 l 1,36,-1
 384 896 l 1,37,-1
 256 896 l 1,38,-1
 128 896 l 1,39,-1
 128 960 l 1,32,-1
EndSplineSet
EndChar

StartChar: Eth
Encoding: 208 208 147
Width: 1024
GlyphClass: 2
Flags: W
LayerCount: 2
Fore
SplineSet
128 832 m 1,0,-1
 128 1024 l 1,1,-1
 384 1024 l 1,2,-1
 640 1024 l 1,3,-1
 640 960 l 1,4,-1
 640 896 l 1,5,-1
 704 896 l 1,6,-1
 768 896 l 1,7,-1
 768 832 l 1,8,-1
 768 768 l 1,9,-1
 832 768 l 1,10,-1
 896 768 l 1,11,-1
 896 576 l 1,12,-1
 896 384 l 1,13,-1
 832 384 l 1,14,-1
 768 384 l 1,15,-1
 768 320 l 1,16,-1
 768 256 l 1,17,-1
 704 256 l 1,18,-1
 640 256 l 1,19,-1
 640 192 l 1,20,-1
 640 128 l 1,21,-1
 384 128 l 1,22,-1
 128 128 l 1,23,-1
 128 320 l 1,24,-1
 128 512 l 1,25,-1
 64 512 l 1,26,-1
 0 512 l 1,27,-1
 0 576 l 1,28,-1
 0 640 l 1,29,-1
 64 640 l 1,30,-1
 128 640 l 1,31,-1
 128 832 l 1,0,-1
512 832 m 1,32,-1
 512 896 l 1,33,-1
 448 896 l 1,34,-1
 384 896 l 1,35,-1
 384 768 l 1,36,-1
 384 640 l 1,37,-1
 448 640 l 1,38,-1
 512 640 l 1,39,-1
 512 576 l 1,40,-1
 512 512 l 1,41,-1
 448 512 l 1,42,-1
 384 512 l 1,43,-1
 384 384 l 1,44,-1
 384 256 l 1,45,-1
 448 256 l 1,46,-1
 512 256 l 1,47,-1
 512 320 l 1,48,-1
 512 384 l 1,49,-1
 576 384 l 1,50,-1
 640 384 l 1,51,-1
 640 576 l 1,52,-1
 640 768 l 1,53,-1
 576 768 l 1,54,-1
 512 768 l 1,55,-1
 512 832 l 1,32,-1
EndSplineSet
EndChar

StartChar: Ntilde
Encoding: 209 209 148
Width: 1024
GlyphClass: 2
Flags: W
LayerCount: 2
Fore
SplineSet
256 960 m 1,0,-1
 256 1024 l 1,1,-1
 384 1024 l 1,2,-1
 512 1024 l 1,3,-1
 512 960 l 1,4,-1
 512 896 l 1,5,-1
 576 896 l 1,6,-1
 640 896 l 1,7,-1
 640 960 l 1,8,-1
 640 1024 l 1,9,-1
 704 1024 l 1,10,-1
 768 1024 l 1,11,-1
 768 960 l 1,12,-1
 768 896 l 1,13,-1
 704 896 l 1,14,-1
 640 896 l 1,15,-1
 640 832 l 1,16,-1
 640 768 l 1,17,-1
 768 768 l 1,18,-1
 896 768 l 1,19,-1
 896 448 l 1,20,-1
 896 128 l 1,21,-1
 704 128 l 1,22,-1
 512 128 l 1,23,-1
 512 192 l 1,24,-1
 512 256 l 1,25,-1
 448 256 l 1,26,-1
 384 256 l 1,27,-1
 384 320 l 1,28,-1
 384 384 l 1,29,-1
 320 384 l 1,30,-1
 256 384 l 1,31,-1
 256 256 l 1,32,-1
 256 128 l 1,33,-1
 128 128 l 1,34,-1
 0 128 l 1,35,-1
 0 448 l 1,36,-1
 0 768 l 1,37,-1
 64 768 l 1,38,-1
 128 768 l 1,39,-1
 128 832 l 1,40,-1
 128 896 l 1,41,-1
 192 896 l 1,42,-1
 256 896 l 1,43,-1
 256 960 l 1,0,-1
384 832 m 1,44,-1
 384 896 l 1,45,-1
 320 896 l 1,46,-1
 256 896 l 1,47,-1
 256 832 l 1,48,-1
 256 768 l 1,49,-1
 320 768 l 1,50,-1
 384 768 l 1,51,-1
 384 704 l 1,52,-1
 384 640 l 1,53,-1
 448 640 l 1,54,-1
 512 640 l 1,55,-1
 512 576 l 1,56,-1
 512 512 l 1,57,-1
 576 512 l 1,58,-1
 640 512 l 1,59,-1
 640 640 l 1,60,-1
 640 768 l 1,61,-1
 512 768 l 1,62,-1
 384 768 l 1,63,-1
 384 832 l 1,44,-1
EndSplineSet
EndChar

StartChar: Ograve
Encoding: 210 210 149
Width: 1024
GlyphClass: 2
Flags: W
LayerCount: 2
Fore
SplineSet
256 960 m 1,0,-1
 256 1024 l 1,1,-1
 320 1024 l 1,2,-1
 384 1024 l 1,3,-1
 384 960 l 1,4,-1
 384 896 l 1,5,-1
 448 896 l 1,6,-1
 512 896 l 1,7,-1
 512 832 l 1,8,-1
 512 768 l 1,9,-1
 640 768 l 1,10,-1
 768 768 l 1,11,-1
 768 704 l 1,12,-1
 768 640 l 1,13,-1
 832 640 l 1,14,-1
 896 640 l 1,15,-1
 896 448 l 1,16,-1
 896 256 l 1,17,-1
 832 256 l 1,18,-1
 768 256 l 1,19,-1
 768 192 l 1,20,-1
 768 128 l 1,21,-1
 448 128 l 1,22,-1
 128 128 l 1,23,-1
 128 192 l 1,24,-1
 128 256 l 1,25,-1
 64 256 l 1,26,-1
 0 256 l 1,27,-1
 0 448 l 1,28,-1
 0 640 l 1,29,-1
 64 640 l 1,30,-1
 128 640 l 1,31,-1
 128 704 l 1,32,-1
 128 768 l 1,33,-1
 256 768 l 1,34,-1
 384 768 l 1,35,-1
 384 832 l 1,36,-1
 384 896 l 1,37,-1
 320 896 l 1,38,-1
 256 896 l 1,39,-1
 256 960 l 1,0,-1
640 448 m 1,40,-1
 640 640 l 1,41,-1
 448 640 l 1,42,-1
 256 640 l 1,43,-1
 256 448 l 1,44,-1
 256 256 l 1,45,-1
 448 256 l 1,46,-1
 640 256 l 1,47,-1
 640 448 l 1,40,-1
EndSplineSet
EndChar

StartChar: Oacute
Encoding: 211 211 150
Width: 1024
GlyphClass: 2
Flags: W
LayerCount: 2
Fore
SplineSet
512 960 m 1,0,-1
 512 1024 l 1,1,-1
 576 1024 l 1,2,-1
 640 1024 l 1,3,-1
 640 960 l 1,4,-1
 640 896 l 1,5,-1
 576 896 l 1,6,-1
 512 896 l 1,7,-1
 512 832 l 1,8,-1
 512 768 l 1,9,-1
 640 768 l 1,10,-1
 768 768 l 1,11,-1
 768 704 l 1,12,-1
 768 640 l 1,13,-1
 832 640 l 1,14,-1
 896 640 l 1,15,-1
 896 448 l 1,16,-1
 896 256 l 1,17,-1
 832 256 l 1,18,-1
 768 256 l 1,19,-1
 768 192 l 1,20,-1
 768 128 l 1,21,-1
 448 128 l 1,22,-1
 128 128 l 1,23,-1
 128 192 l 1,24,-1
 128 256 l 1,25,-1
 64 256 l 1,26,-1
 0 256 l 1,27,-1
 0 448 l 1,28,-1
 0 640 l 1,29,-1
 64 640 l 1,30,-1
 128 640 l 1,31,-1
 128 704 l 1,32,-1
 128 768 l 1,33,-1
 256 768 l 1,34,-1
 384 768 l 1,35,-1
 384 832 l 1,36,-1
 384 896 l 1,37,-1
 448 896 l 1,38,-1
 512 896 l 1,39,-1
 512 960 l 1,0,-1
640 448 m 1,40,-1
 640 640 l 1,41,-1
 448 640 l 1,42,-1
 256 640 l 1,43,-1
 256 448 l 1,44,-1
 256 256 l 1,45,-1
 448 256 l 1,46,-1
 640 256 l 1,47,-1
 640 448 l 1,40,-1
EndSplineSet
EndChar

StartChar: Ocircumflex
Encoding: 212 212 151
Width: 1024
GlyphClass: 2
Flags: W
LayerCount: 2
Fore
SplineSet
256 960 m 1,0,-1
 256 1024 l 1,1,-1
 448 1024 l 1,2,-1
 640 1024 l 1,3,-1
 640 960 l 1,4,-1
 640 896 l 1,5,-1
 704 896 l 1,6,-1
 768 896 l 1,7,-1
 768 768 l 1,8,-1
 768 640 l 1,9,-1
 832 640 l 1,10,-1
 896 640 l 1,11,-1
 896 448 l 1,12,-1
 896 256 l 1,13,-1
 832 256 l 1,14,-1
 768 256 l 1,15,-1
 768 192 l 1,16,-1
 768 128 l 1,17,-1
 448 128 l 1,18,-1
 128 128 l 1,19,-1
 128 192 l 1,20,-1
 128 256 l 1,21,-1
 64 256 l 1,22,-1
 0 256 l 1,23,-1
 0 448 l 1,24,-1
 0 640 l 1,25,-1
 64 640 l 1,26,-1
 128 640 l 1,27,-1
 128 768 l 1,28,-1
 128 896 l 1,29,-1
 192 896 l 1,30,-1
 256 896 l 1,31,-1
 256 960 l 1,0,-1
512 832 m 1,32,-1
 512 896 l 1,33,-1
 448 896 l 1,34,-1
 384 896 l 1,35,-1
 384 832 l 1,36,-1
 384 768 l 1,37,-1
 448 768 l 1,38,-1
 512 768 l 1,39,-1
 512 832 l 1,32,-1
640 448 m 1,40,-1
 640 640 l 1,41,-1
 448 640 l 1,42,-1
 256 640 l 1,43,-1
 256 448 l 1,44,-1
 256 256 l 1,45,-1
 448 256 l 1,46,-1
 640 256 l 1,47,-1
 640 448 l 1,40,-1
EndSplineSet
EndChar

StartChar: Otilde
Encoding: 213 213 152
Width: 1024
GlyphClass: 2
Flags: W
LayerCount: 2
Fore
SplineSet
256 960 m 1,0,-1
 256 1024 l 1,1,-1
 384 1024 l 1,2,-1
 512 1024 l 1,3,-1
 512 960 l 1,4,-1
 512 896 l 1,5,-1
 576 896 l 1,6,-1
 640 896 l 1,7,-1
 640 960 l 1,8,-1
 640 1024 l 1,9,-1
 704 1024 l 1,10,-1
 768 1024 l 1,11,-1
 768 960 l 1,12,-1
 768 896 l 1,13,-1
 704 896 l 1,14,-1
 640 896 l 1,15,-1
 640 832 l 1,16,-1
 640 768 l 1,17,-1
 704 768 l 1,18,-1
 768 768 l 1,19,-1
 768 704 l 1,20,-1
 768 640 l 1,21,-1
 832 640 l 1,22,-1
 896 640 l 1,23,-1
 896 448 l 1,24,-1
 896 256 l 1,25,-1
 832 256 l 1,26,-1
 768 256 l 1,27,-1
 768 192 l 1,28,-1
 768 128 l 1,29,-1
 448 128 l 1,30,-1
 128 128 l 1,31,-1
 128 192 l 1,32,-1
 128 256 l 1,33,-1
 64 256 l 1,34,-1
 0 256 l 1,35,-1
 0 448 l 1,36,-1
 0 640 l 1,37,-1
 64 640 l 1,38,-1
 128 640 l 1,39,-1
 128 768 l 1,40,-1
 128 896 l 1,41,-1
 192 896 l 1,42,-1
 256 896 l 1,43,-1
 256 960 l 1,0,-1
384 832 m 1,44,-1
 384 896 l 1,45,-1
 320 896 l 1,46,-1
 256 896 l 1,47,-1
 256 832 l 1,48,-1
 256 768 l 1,49,-1
 320 768 l 1,50,-1
 384 768 l 1,51,-1
 384 832 l 1,44,-1
640 448 m 1,52,-1
 640 640 l 1,53,-1
 448 640 l 1,54,-1
 256 640 l 1,55,-1
 256 448 l 1,56,-1
 256 256 l 1,57,-1
 448 256 l 1,58,-1
 640 256 l 1,59,-1
 640 448 l 1,52,-1
EndSplineSet
EndChar

StartChar: Odieresis
Encoding: 214 214 153
Width: 1024
GlyphClass: 2
Flags: W
LayerCount: 2
Fore
SplineSet
128 704 m 1,0,-1
 128 768 l 1,1,-1
 448 768 l 1,2,-1
 768 768 l 1,3,-1
 768 704 l 1,4,-1
 768 640 l 1,5,-1
 832 640 l 1,6,-1
 896 640 l 1,7,-1
 896 448 l 1,8,-1
 896 256 l 1,9,-1
 832 256 l 1,10,-1
 768 256 l 1,11,-1
 768 192 l 1,12,-1
 768 128 l 1,13,-1
 448 128 l 1,14,-1
 128 128 l 1,15,-1
 128 192 l 1,16,-1
 128 256 l 1,17,-1
 64 256 l 1,18,-1
 0 256 l 1,19,-1
 0 448 l 1,20,-1
 0 640 l 1,21,-1
 64 640 l 1,22,-1
 128 640 l 1,23,-1
 128 704 l 1,0,-1
640 448 m 1,24,-1
 640 640 l 1,25,-1
 448 640 l 1,26,-1
 256 640 l 1,27,-1
 256 448 l 1,28,-1
 256 256 l 1,29,-1
 448 256 l 1,30,-1
 640 256 l 1,31,-1
 640 448 l 1,24,-1
512 960 m 1,32,-1
 512 1024 l 1,33,-1
 640 1024 l 1,34,-1
 768 1024 l 1,35,-1
 768 960 l 1,36,-1
 768 896 l 1,37,-1
 640 896 l 1,38,-1
 512 896 l 1,39,-1
 512 960 l 1,32,-1
128 960 m 1,40,-1
 128 1024 l 1,41,-1
 256 1024 l 1,42,-1
 384 1024 l 1,43,-1
 384 960 l 1,44,-1
 384 896 l 1,45,-1
 256 896 l 1,46,-1
 128 896 l 1,47,-1
 128 960 l 1,40,-1
EndSplineSet
EndChar

StartChar: multiply
Encoding: 215 215 154
Width: 1024
GlyphClass: 2
Flags: W
LayerCount: 2
Fore
SplineSet
128 832 m 1,0,-1
 128 896 l 1,1,-1
 192 896 l 1,2,-1
 256 896 l 1,3,-1
 256 832 l 1,4,-1
 256 768 l 1,5,-1
 320 768 l 1,6,-1
 384 768 l 1,7,-1
 384 704 l 1,8,-1
 384 640 l 1,9,-1
 448 640 l 1,10,-1
 512 640 l 1,11,-1
 512 704 l 1,12,-1
 512 768 l 1,13,-1
 576 768 l 1,14,-1
 640 768 l 1,15,-1
 640 832 l 1,16,-1
 640 896 l 1,17,-1
 704 896 l 1,18,-1
 768 896 l 1,19,-1
 768 832 l 1,20,-1
 768 768 l 1,21,-1
 704 768 l 1,22,-1
 640 768 l 1,23,-1
 640 704 l 1,24,-1
 640 640 l 1,25,-1
 576 640 l 1,26,-1
 512 640 l 1,27,-1
 512 576 l 1,28,-1
 512 512 l 1,29,-1
 576 512 l 1,30,-1
 640 512 l 1,31,-1
 640 448 l 1,32,-1
 640 384 l 1,33,-1
 704 384 l 1,34,-1
 768 384 l 1,35,-1
 768 320 l 1,36,-1
 768 256 l 1,37,-1
 704 256 l 1,38,-1
 640 256 l 1,39,-1
 640 320 l 1,40,-1
 640 384 l 1,41,-1
 576 384 l 1,42,-1
 512 384 l 1,43,-1
 512 448 l 1,44,-1
 512 512 l 1,45,-1
 448 512 l 1,46,-1
 384 512 l 1,47,-1
 384 448 l 1,48,-1
 384 384 l 1,49,-1
 320 384 l 1,50,-1
 256 384 l 1,51,-1
 256 320 l 1,52,-1
 256 256 l 1,53,-1
 192 256 l 1,54,-1
 128 256 l 1,55,-1
 128 320 l 1,56,-1
 128 384 l 1,57,-1
 192 384 l 1,58,-1
 256 384 l 1,59,-1
 256 448 l 1,60,-1
 256 512 l 1,61,-1
 320 512 l 1,62,-1
 384 512 l 1,63,-1
 384 576 l 1,64,-1
 384 640 l 1,65,-1
 320 640 l 1,66,-1
 256 640 l 1,67,-1
 256 704 l 1,68,-1
 256 768 l 1,69,-1
 192 768 l 1,70,-1
 128 768 l 1,71,-1
 128 832 l 1,0,-1
EndSplineSet
EndChar

StartChar: Oslash
Encoding: 216 216 155
Width: 1024
GlyphClass: 2
Flags: W
LayerCount: 2
Fore
SplineSet
384 576 m 1,0,-1
 384 640 l 1,1,-1
 448 640 l 1,2,-1
 512 640 l 1,3,-1
 512 576 l 1,4,-1
 512 512 l 1,5,-1
 448 512 l 1,6,-1
 384 512 l 1,7,-1
 384 576 l 1,0,-1
128 960 m 1,8,-1
 128 1024 l 1,9,-1
 448 1024 l 1,10,-1
 768 1024 l 1,11,-1
 768 960 l 1,12,-1
 768 896 l 1,13,-1
 832 896 l 1,14,-1
 896 896 l 1,15,-1
 896 576 l 1,16,-1
 896 256 l 1,17,-1
 832 256 l 1,18,-1
 768 256 l 1,19,-1
 768 192 l 1,20,-1
 768 128 l 1,21,-1
 448 128 l 1,22,-1
 128 128 l 1,23,-1
 128 192 l 1,24,-1
 128 256 l 1,25,-1
 64 256 l 1,26,-1
 0 256 l 1,27,-1
 0 576 l 1,28,-1
 0 896 l 1,29,-1
 64 896 l 1,30,-1
 128 896 l 1,31,-1
 128 960 l 1,8,-1
640 832 m 1,32,-1
 640 896 l 1,33,-1
 448 896 l 1,34,-1
 256 896 l 1,35,-1
 256 704 l 1,36,-1
 256 512 l 1,37,-1
 320 512 l 1,38,-1
 384 512 l 1,39,-1
 384 448 l 1,40,-1
 384 384 l 1,41,-1
 320 384 l 1,42,-1
 256 384 l 1,43,-1
 256 320 l 1,44,-1
 256 256 l 1,45,-1
 448 256 l 1,46,-1
 640 256 l 1,47,-1
 640 448 l 1,48,-1
 640 640 l 1,49,-1
 576 640 l 1,50,-1
 512 640 l 1,51,-1
 512 704 l 1,52,-1
 512 768 l 1,53,-1
 576 768 l 1,54,-1
 640 768 l 1,55,-1
 640 832 l 1,32,-1
EndSplineSet
EndChar

StartChar: Ugrave
Encoding: 217 217 156
Width: 1024
GlyphClass: 2
Flags: W
LayerCount: 2
Fore
SplineSet
0 512 m 1,0,-1
 0 768 l 1,1,-1
 128 768 l 1,2,-1
 256 768 l 1,3,-1
 256 512 l 1,4,-1
 256 256 l 1,5,-1
 448 256 l 1,6,-1
 640 256 l 1,7,-1
 640 512 l 1,8,-1
 640 768 l 1,9,-1
 768 768 l 1,10,-1
 896 768 l 1,11,-1
 896 512 l 1,12,-1
 896 256 l 1,13,-1
 832 256 l 1,14,-1
 768 256 l 1,15,-1
 768 192 l 1,16,-1
 768 128 l 1,17,-1
 448 128 l 1,18,-1
 128 128 l 1,19,-1
 128 192 l 1,20,-1
 128 256 l 1,21,-1
 64 256 l 1,22,-1
 0 256 l 1,23,-1
 0 512 l 1,0,-1
256 960 m 1,24,-1
 256 1024 l 1,25,-1
 320 1024 l 1,26,-1
 384 1024 l 1,27,-1
 384 960 l 1,28,-1
 384 896 l 1,29,-1
 448 896 l 1,30,-1
 512 896 l 1,31,-1
 512 832 l 1,32,-1
 512 768 l 1,33,-1
 448 768 l 1,34,-1
 384 768 l 1,35,-1
 384 832 l 1,36,-1
 384 896 l 1,37,-1
 320 896 l 1,38,-1
 256 896 l 1,39,-1
 256 960 l 1,24,-1
EndSplineSet
EndChar

StartChar: Uacute
Encoding: 218 218 157
Width: 1024
GlyphClass: 2
Flags: W
LayerCount: 2
Fore
SplineSet
0 512 m 1,0,-1
 0 768 l 1,1,-1
 128 768 l 1,2,-1
 256 768 l 1,3,-1
 256 512 l 1,4,-1
 256 256 l 1,5,-1
 448 256 l 1,6,-1
 640 256 l 1,7,-1
 640 512 l 1,8,-1
 640 768 l 1,9,-1
 768 768 l 1,10,-1
 896 768 l 1,11,-1
 896 512 l 1,12,-1
 896 256 l 1,13,-1
 832 256 l 1,14,-1
 768 256 l 1,15,-1
 768 192 l 1,16,-1
 768 128 l 1,17,-1
 448 128 l 1,18,-1
 128 128 l 1,19,-1
 128 192 l 1,20,-1
 128 256 l 1,21,-1
 64 256 l 1,22,-1
 0 256 l 1,23,-1
 0 512 l 1,0,-1
512 960 m 1,24,-1
 512 1024 l 1,25,-1
 576 1024 l 1,26,-1
 640 1024 l 1,27,-1
 640 960 l 1,28,-1
 640 896 l 1,29,-1
 576 896 l 1,30,-1
 512 896 l 1,31,-1
 512 832 l 1,32,-1
 512 768 l 1,33,-1
 448 768 l 1,34,-1
 384 768 l 1,35,-1
 384 832 l 1,36,-1
 384 896 l 1,37,-1
 448 896 l 1,38,-1
 512 896 l 1,39,-1
 512 960 l 1,24,-1
EndSplineSet
EndChar

StartChar: Ucircumflex
Encoding: 219 219 158
Width: 1024
GlyphClass: 2
Flags: W
LayerCount: 2
Fore
SplineSet
0 448 m 1,0,-1
 0 640 l 1,1,-1
 128 640 l 1,2,-1
 256 640 l 1,3,-1
 256 448 l 1,4,-1
 256 256 l 1,5,-1
 448 256 l 1,6,-1
 640 256 l 1,7,-1
 640 448 l 1,8,-1
 640 640 l 1,9,-1
 768 640 l 1,10,-1
 896 640 l 1,11,-1
 896 448 l 1,12,-1
 896 256 l 1,13,-1
 832 256 l 1,14,-1
 768 256 l 1,15,-1
 768 192 l 1,16,-1
 768 128 l 1,17,-1
 448 128 l 1,18,-1
 128 128 l 1,19,-1
 128 192 l 1,20,-1
 128 256 l 1,21,-1
 64 256 l 1,22,-1
 0 256 l 1,23,-1
 0 448 l 1,0,-1
256 960 m 1,24,-1
 256 1024 l 1,25,-1
 448 1024 l 1,26,-1
 640 1024 l 1,27,-1
 640 960 l 1,28,-1
 640 896 l 1,29,-1
 704 896 l 1,30,-1
 768 896 l 1,31,-1
 768 832 l 1,32,-1
 768 768 l 1,33,-1
 640 768 l 1,34,-1
 512 768 l 1,35,-1
 512 832 l 1,36,-1
 512 896 l 1,37,-1
 448 896 l 1,38,-1
 384 896 l 1,39,-1
 384 832 l 1,40,-1
 384 768 l 1,41,-1
 256 768 l 1,42,-1
 128 768 l 1,43,-1
 128 832 l 1,44,-1
 128 896 l 1,45,-1
 192 896 l 1,46,-1
 256 896 l 1,47,-1
 256 960 l 1,24,-1
EndSplineSet
EndChar

StartChar: Udieresis
Encoding: 220 220 159
Width: 1024
GlyphClass: 2
Flags: W
LayerCount: 2
Fore
SplineSet
0 512 m 1,0,-1
 0 768 l 1,1,-1
 128 768 l 1,2,-1
 256 768 l 1,3,-1
 256 512 l 1,4,-1
 256 256 l 1,5,-1
 448 256 l 1,6,-1
 640 256 l 1,7,-1
 640 512 l 1,8,-1
 640 768 l 1,9,-1
 768 768 l 1,10,-1
 896 768 l 1,11,-1
 896 512 l 1,12,-1
 896 256 l 1,13,-1
 832 256 l 1,14,-1
 768 256 l 1,15,-1
 768 192 l 1,16,-1
 768 128 l 1,17,-1
 448 128 l 1,18,-1
 128 128 l 1,19,-1
 128 192 l 1,20,-1
 128 256 l 1,21,-1
 64 256 l 1,22,-1
 0 256 l 1,23,-1
 0 512 l 1,0,-1
512 960 m 1,24,-1
 512 1024 l 1,25,-1
 640 1024 l 1,26,-1
 768 1024 l 1,27,-1
 768 960 l 1,28,-1
 768 896 l 1,29,-1
 640 896 l 1,30,-1
 512 896 l 1,31,-1
 512 960 l 1,24,-1
128 960 m 1,32,-1
 128 1024 l 1,33,-1
 256 1024 l 1,34,-1
 384 1024 l 1,35,-1
 384 960 l 1,36,-1
 384 896 l 1,37,-1
 256 896 l 1,38,-1
 128 896 l 1,39,-1
 128 960 l 1,32,-1
EndSplineSet
EndChar

StartChar: Yacute
Encoding: 221 221 160
Width: 1024
GlyphClass: 2
Flags: W
LayerCount: 2
Fore
SplineSet
512 960 m 1,0,-1
 512 1024 l 1,1,-1
 576 1024 l 1,2,-1
 640 1024 l 1,3,-1
 640 960 l 1,4,-1
 640 896 l 1,5,-1
 576 896 l 1,6,-1
 512 896 l 1,7,-1
 512 832 l 1,8,-1
 512 768 l 1,9,-1
 448 768 l 1,10,-1
 384 768 l 1,11,-1
 384 640 l 1,12,-1
 384 512 l 1,13,-1
 512 512 l 1,14,-1
 640 512 l 1,15,-1
 640 640 l 1,16,-1
 640 768 l 1,17,-1
 768 768 l 1,18,-1
 896 768 l 1,19,-1
 896 640 l 1,20,-1
 896 512 l 1,21,-1
 832 512 l 1,22,-1
 768 512 l 1,23,-1
 768 448 l 1,24,-1
 768 384 l 1,25,-1
 704 384 l 1,26,-1
 640 384 l 1,27,-1
 640 256 l 1,28,-1
 640 128 l 1,29,-1
 512 128 l 1,30,-1
 384 128 l 1,31,-1
 384 256 l 1,32,-1
 384 384 l 1,33,-1
 320 384 l 1,34,-1
 256 384 l 1,35,-1
 256 448 l 1,36,-1
 256 512 l 1,37,-1
 192 512 l 1,38,-1
 128 512 l 1,39,-1
 128 640 l 1,40,-1
 128 768 l 1,41,-1
 256 768 l 1,42,-1
 384 768 l 1,43,-1
 384 832 l 1,44,-1
 384 896 l 1,45,-1
 448 896 l 1,46,-1
 512 896 l 1,47,-1
 512 960 l 1,0,-1
EndSplineSet
EndChar

StartChar: Thorn
Encoding: 222 222 161
Width: 1024
GlyphClass: 2
Flags: W
LayerCount: 2
Fore
SplineSet
0 576 m 1,0,-1
 0 1024 l 1,1,-1
 128 1024 l 1,2,-1
 256 1024 l 1,3,-1
 256 960 l 1,4,-1
 256 896 l 1,5,-1
 512 896 l 1,6,-1
 768 896 l 1,7,-1
 768 832 l 1,8,-1
 768 768 l 1,9,-1
 832 768 l 1,10,-1
 896 768 l 1,11,-1
 896 576 l 1,12,-1
 896 384 l 1,13,-1
 832 384 l 1,14,-1
 768 384 l 1,15,-1
 768 320 l 1,16,-1
 768 256 l 1,17,-1
 512 256 l 1,18,-1
 256 256 l 1,19,-1
 256 192 l 1,20,-1
 256 128 l 1,21,-1
 128 128 l 1,22,-1
 0 128 l 1,23,-1
 0 576 l 1,0,-1
640 576 m 1,24,-1
 640 768 l 1,25,-1
 448 768 l 1,26,-1
 256 768 l 1,27,-1
 256 576 l 1,28,-1
 256 384 l 1,29,-1
 448 384 l 1,30,-1
 640 384 l 1,31,-1
 640 576 l 1,24,-1
EndSplineSet
EndChar

StartChar: germandbls
Encoding: 223 223 162
Width: 1024
GlyphClass: 2
Flags: W
LayerCount: 2
Fore
SplineSet
256 960 m 1,0,-1
 256 1024 l 1,1,-1
 512 1024 l 1,2,-1
 768 1024 l 1,3,-1
 768 960 l 1,4,-1
 768 896 l 1,5,-1
 832 896 l 1,6,-1
 896 896 l 1,7,-1
 896 768 l 1,8,-1
 896 640 l 1,9,-1
 832 640 l 1,10,-1
 768 640 l 1,11,-1
 768 576 l 1,12,-1
 768 512 l 1,13,-1
 832 512 l 1,14,-1
 896 512 l 1,15,-1
 896 384 l 1,16,-1
 896 256 l 1,17,-1
 832 256 l 1,18,-1
 768 256 l 1,19,-1
 768 192 l 1,20,-1
 768 128 l 1,21,-1
 640 128 l 1,22,-1
 512 128 l 1,23,-1
 512 192 l 1,24,-1
 512 256 l 1,25,-1
 448 256 l 1,26,-1
 384 256 l 1,27,-1
 384 192 l 1,28,-1
 384 128 l 1,29,-1
 256 128 l 1,30,-1
 128 128 l 1,31,-1
 128 512 l 1,32,-1
 128 896 l 1,33,-1
 192 896 l 1,34,-1
 256 896 l 1,35,-1
 256 960 l 1,0,-1
640 768 m 1,36,-1
 640 896 l 1,37,-1
 512 896 l 1,38,-1
 384 896 l 1,39,-1
 384 640 l 1,40,-1
 384 384 l 1,41,-1
 448 384 l 1,42,-1
 512 384 l 1,43,-1
 512 320 l 1,44,-1
 512 256 l 1,45,-1
 576 256 l 1,46,-1
 640 256 l 1,47,-1
 640 384 l 1,48,-1
 640 512 l 1,49,-1
 576 512 l 1,50,-1
 512 512 l 1,51,-1
 512 576 l 1,52,-1
 512 640 l 1,53,-1
 576 640 l 1,54,-1
 640 640 l 1,55,-1
 640 768 l 1,36,-1
EndSplineSet
EndChar

StartChar: agrave
Encoding: 224 224 163
Width: 1024
GlyphClass: 2
Flags: W
LayerCount: 2
Fore
SplineSet
256 960 m 1,0,-1
 256 1024 l 1,1,-1
 320 1024 l 1,2,-1
 384 1024 l 1,3,-1
 384 960 l 1,4,-1
 384 896 l 1,5,-1
 448 896 l 1,6,-1
 512 896 l 1,7,-1
 512 832 l 1,8,-1
 512 768 l 1,9,-1
 640 768 l 1,10,-1
 768 768 l 1,11,-1
 768 704 l 1,12,-1
 768 640 l 1,13,-1
 832 640 l 1,14,-1
 896 640 l 1,15,-1
 896 384 l 1,16,-1
 896 128 l 1,17,-1
 512 128 l 1,18,-1
 128 128 l 1,19,-1
 128 192 l 1,20,-1
 128 256 l 1,21,-1
 64 256 l 1,22,-1
 0 256 l 1,23,-1
 0 320 l 1,24,-1
 0 384 l 1,25,-1
 64 384 l 1,26,-1
 128 384 l 1,27,-1
 128 448 l 1,28,-1
 128 512 l 1,29,-1
 384 512 l 1,30,-1
 640 512 l 1,31,-1
 640 576 l 1,32,-1
 640 640 l 1,33,-1
 384 640 l 1,34,-1
 128 640 l 1,35,-1
 128 704 l 1,36,-1
 128 768 l 1,37,-1
 256 768 l 1,38,-1
 384 768 l 1,39,-1
 384 832 l 1,40,-1
 384 896 l 1,41,-1
 320 896 l 1,42,-1
 256 896 l 1,43,-1
 256 960 l 1,0,-1
640 320 m 1,44,-1
 640 384 l 1,45,-1
 448 384 l 1,46,-1
 256 384 l 1,47,-1
 256 320 l 1,48,-1
 256 256 l 1,49,-1
 448 256 l 1,50,-1
 640 256 l 1,51,-1
 640 320 l 1,44,-1
EndSplineSet
EndChar

StartChar: aacute
Encoding: 225 225 164
Width: 1024
GlyphClass: 2
Flags: W
LayerCount: 2
Fore
SplineSet
512 960 m 1,0,-1
 512 1024 l 1,1,-1
 576 1024 l 1,2,-1
 640 1024 l 1,3,-1
 640 960 l 1,4,-1
 640 896 l 1,5,-1
 576 896 l 1,6,-1
 512 896 l 1,7,-1
 512 832 l 1,8,-1
 512 768 l 1,9,-1
 640 768 l 1,10,-1
 768 768 l 1,11,-1
 768 704 l 1,12,-1
 768 640 l 1,13,-1
 832 640 l 1,14,-1
 896 640 l 1,15,-1
 896 384 l 1,16,-1
 896 128 l 1,17,-1
 512 128 l 1,18,-1
 128 128 l 1,19,-1
 128 192 l 1,20,-1
 128 256 l 1,21,-1
 64 256 l 1,22,-1
 0 256 l 1,23,-1
 0 320 l 1,24,-1
 0 384 l 1,25,-1
 64 384 l 1,26,-1
 128 384 l 1,27,-1
 128 448 l 1,28,-1
 128 512 l 1,29,-1
 384 512 l 1,30,-1
 640 512 l 1,31,-1
 640 576 l 1,32,-1
 640 640 l 1,33,-1
 384 640 l 1,34,-1
 128 640 l 1,35,-1
 128 704 l 1,36,-1
 128 768 l 1,37,-1
 256 768 l 1,38,-1
 384 768 l 1,39,-1
 384 832 l 1,40,-1
 384 896 l 1,41,-1
 448 896 l 1,42,-1
 512 896 l 1,43,-1
 512 960 l 1,0,-1
640 320 m 1,44,-1
 640 384 l 1,45,-1
 448 384 l 1,46,-1
 256 384 l 1,47,-1
 256 320 l 1,48,-1
 256 256 l 1,49,-1
 448 256 l 1,50,-1
 640 256 l 1,51,-1
 640 320 l 1,44,-1
EndSplineSet
EndChar

StartChar: acircumflex
Encoding: 226 226 165
Width: 1024
GlyphClass: 2
Flags: W
LayerCount: 2
Fore
SplineSet
256 960 m 1,0,-1
 256 1024 l 1,1,-1
 448 1024 l 1,2,-1
 640 1024 l 1,3,-1
 640 960 l 1,4,-1
 640 896 l 1,5,-1
 704 896 l 1,6,-1
 768 896 l 1,7,-1
 768 768 l 1,8,-1
 768 640 l 1,9,-1
 832 640 l 1,10,-1
 896 640 l 1,11,-1
 896 384 l 1,12,-1
 896 128 l 1,13,-1
 512 128 l 1,14,-1
 128 128 l 1,15,-1
 128 192 l 1,16,-1
 128 256 l 1,17,-1
 64 256 l 1,18,-1
 0 256 l 1,19,-1
 0 320 l 1,20,-1
 0 384 l 1,21,-1
 64 384 l 1,22,-1
 128 384 l 1,23,-1
 128 448 l 1,24,-1
 128 512 l 1,25,-1
 384 512 l 1,26,-1
 640 512 l 1,27,-1
 640 576 l 1,28,-1
 640 640 l 1,29,-1
 384 640 l 1,30,-1
 128 640 l 1,31,-1
 128 768 l 1,32,-1
 128 896 l 1,33,-1
 192 896 l 1,34,-1
 256 896 l 1,35,-1
 256 960 l 1,0,-1
512 832 m 1,36,-1
 512 896 l 1,37,-1
 448 896 l 1,38,-1
 384 896 l 1,39,-1
 384 832 l 1,40,-1
 384 768 l 1,41,-1
 448 768 l 1,42,-1
 512 768 l 1,43,-1
 512 832 l 1,36,-1
640 320 m 1,44,-1
 640 384 l 1,45,-1
 448 384 l 1,46,-1
 256 384 l 1,47,-1
 256 320 l 1,48,-1
 256 256 l 1,49,-1
 448 256 l 1,50,-1
 640 256 l 1,51,-1
 640 320 l 1,44,-1
EndSplineSet
EndChar

StartChar: atilde
Encoding: 227 227 166
Width: 1024
GlyphClass: 2
Flags: W
LayerCount: 2
Fore
SplineSet
256 960 m 1,0,-1
 256 1024 l 1,1,-1
 384 1024 l 1,2,-1
 512 1024 l 1,3,-1
 512 960 l 1,4,-1
 512 896 l 1,5,-1
 576 896 l 1,6,-1
 640 896 l 1,7,-1
 640 960 l 1,8,-1
 640 1024 l 1,9,-1
 704 1024 l 1,10,-1
 768 1024 l 1,11,-1
 768 960 l 1,12,-1
 768 896 l 1,13,-1
 704 896 l 1,14,-1
 640 896 l 1,15,-1
 640 832 l 1,16,-1
 640 768 l 1,17,-1
 704 768 l 1,18,-1
 768 768 l 1,19,-1
 768 704 l 1,20,-1
 768 640 l 1,21,-1
 832 640 l 1,22,-1
 896 640 l 1,23,-1
 896 384 l 1,24,-1
 896 128 l 1,25,-1
 512 128 l 1,26,-1
 128 128 l 1,27,-1
 128 192 l 1,28,-1
 128 256 l 1,29,-1
 64 256 l 1,30,-1
 0 256 l 1,31,-1
 0 320 l 1,32,-1
 0 384 l 1,33,-1
 64 384 l 1,34,-1
 128 384 l 1,35,-1
 128 448 l 1,36,-1
 128 512 l 1,37,-1
 384 512 l 1,38,-1
 640 512 l 1,39,-1
 640 576 l 1,40,-1
 640 640 l 1,41,-1
 384 640 l 1,42,-1
 128 640 l 1,43,-1
 128 768 l 1,44,-1
 128 896 l 1,45,-1
 192 896 l 1,46,-1
 256 896 l 1,47,-1
 256 960 l 1,0,-1
384 832 m 1,48,-1
 384 896 l 1,49,-1
 320 896 l 1,50,-1
 256 896 l 1,51,-1
 256 832 l 1,52,-1
 256 768 l 1,53,-1
 320 768 l 1,54,-1
 384 768 l 1,55,-1
 384 832 l 1,48,-1
640 320 m 1,56,-1
 640 384 l 1,57,-1
 448 384 l 1,58,-1
 256 384 l 1,59,-1
 256 320 l 1,60,-1
 256 256 l 1,61,-1
 448 256 l 1,62,-1
 640 256 l 1,63,-1
 640 320 l 1,56,-1
EndSplineSet
EndChar

StartChar: adieresis
Encoding: 228 228 167
Width: 1024
GlyphClass: 2
Flags: W
LayerCount: 2
Fore
SplineSet
128 704 m 1,0,-1
 128 768 l 1,1,-1
 448 768 l 1,2,-1
 768 768 l 1,3,-1
 768 704 l 1,4,-1
 768 640 l 1,5,-1
 832 640 l 1,6,-1
 896 640 l 1,7,-1
 896 384 l 1,8,-1
 896 128 l 1,9,-1
 512 128 l 1,10,-1
 128 128 l 1,11,-1
 128 192 l 1,12,-1
 128 256 l 1,13,-1
 64 256 l 1,14,-1
 0 256 l 1,15,-1
 0 320 l 1,16,-1
 0 384 l 1,17,-1
 64 384 l 1,18,-1
 128 384 l 1,19,-1
 128 448 l 1,20,-1
 128 512 l 1,21,-1
 384 512 l 1,22,-1
 640 512 l 1,23,-1
 640 576 l 1,24,-1
 640 640 l 1,25,-1
 384 640 l 1,26,-1
 128 640 l 1,27,-1
 128 704 l 1,0,-1
640 320 m 1,28,-1
 640 384 l 1,29,-1
 448 384 l 1,30,-1
 256 384 l 1,31,-1
 256 320 l 1,32,-1
 256 256 l 1,33,-1
 448 256 l 1,34,-1
 640 256 l 1,35,-1
 640 320 l 1,28,-1
512 960 m 1,36,-1
 512 1024 l 1,37,-1
 640 1024 l 1,38,-1
 768 1024 l 1,39,-1
 768 960 l 1,40,-1
 768 896 l 1,41,-1
 640 896 l 1,42,-1
 512 896 l 1,43,-1
 512 960 l 1,36,-1
128 960 m 1,44,-1
 128 1024 l 1,45,-1
 256 1024 l 1,46,-1
 384 1024 l 1,47,-1
 384 960 l 1,48,-1
 384 896 l 1,49,-1
 256 896 l 1,50,-1
 128 896 l 1,51,-1
 128 960 l 1,44,-1
EndSplineSet
EndChar

StartChar: aring
Encoding: 229 229 168
Width: 1024
GlyphClass: 2
Flags: W
LayerCount: 2
Fore
SplineSet
384 960 m 1,0,-1
 384 1024 l 1,1,-1
 448 1024 l 1,2,-1
 512 1024 l 1,3,-1
 512 960 l 1,4,-1
 512 896 l 1,5,-1
 576 896 l 1,6,-1
 640 896 l 1,7,-1
 640 832 l 1,8,-1
 640 768 l 1,9,-1
 704 768 l 1,10,-1
 768 768 l 1,11,-1
 768 704 l 1,12,-1
 768 640 l 1,13,-1
 832 640 l 1,14,-1
 896 640 l 1,15,-1
 896 384 l 1,16,-1
 896 128 l 1,17,-1
 512 128 l 1,18,-1
 128 128 l 1,19,-1
 128 192 l 1,20,-1
 128 256 l 1,21,-1
 64 256 l 1,22,-1
 0 256 l 1,23,-1
 0 320 l 1,24,-1
 0 384 l 1,25,-1
 64 384 l 1,26,-1
 128 384 l 1,27,-1
 128 448 l 1,28,-1
 128 512 l 1,29,-1
 384 512 l 1,30,-1
 640 512 l 1,31,-1
 640 576 l 1,32,-1
 640 640 l 1,33,-1
 384 640 l 1,34,-1
 128 640 l 1,35,-1
 128 704 l 1,36,-1
 128 768 l 1,37,-1
 192 768 l 1,38,-1
 256 768 l 1,39,-1
 256 832 l 1,40,-1
 256 896 l 1,41,-1
 320 896 l 1,42,-1
 384 896 l 1,43,-1
 384 960 l 1,0,-1
512 832 m 1,44,-1
 512 896 l 1,45,-1
 448 896 l 1,46,-1
 384 896 l 1,47,-1
 384 832 l 1,48,-1
 384 768 l 1,49,-1
 448 768 l 1,50,-1
 512 768 l 1,51,-1
 512 832 l 1,44,-1
640 320 m 1,52,-1
 640 384 l 1,53,-1
 448 384 l 1,54,-1
 256 384 l 1,55,-1
 256 320 l 1,56,-1
 256 256 l 1,57,-1
 448 256 l 1,58,-1
 640 256 l 1,59,-1
 640 320 l 1,52,-1
EndSplineSet
EndChar

StartChar: ae
Encoding: 230 230 169
Width: 1024
GlyphClass: 2
Flags: W
LayerCount: 2
Fore
SplineSet
128 704 m 1,0,-1
 128 768 l 1,1,-1
 448 768 l 1,2,-1
 768 768 l 1,3,-1
 768 704 l 1,4,-1
 768 640 l 1,5,-1
 832 640 l 1,6,-1
 896 640 l 1,7,-1
 896 512 l 1,8,-1
 896 384 l 1,9,-1
 704 384 l 1,10,-1
 512 384 l 1,11,-1
 512 320 l 1,12,-1
 512 256 l 1,13,-1
 640 256 l 1,14,-1
 768 256 l 1,15,-1
 768 192 l 1,16,-1
 768 128 l 1,17,-1
 448 128 l 1,18,-1
 128 128 l 1,19,-1
 128 192 l 1,20,-1
 128 256 l 1,21,-1
 64 256 l 1,22,-1
 0 256 l 1,23,-1
 0 320 l 1,24,-1
 0 384 l 1,25,-1
 64 384 l 1,26,-1
 128 384 l 1,27,-1
 128 448 l 1,28,-1
 128 512 l 1,29,-1
 256 512 l 1,30,-1
 384 512 l 1,31,-1
 384 576 l 1,32,-1
 384 640 l 1,33,-1
 256 640 l 1,34,-1
 128 640 l 1,35,-1
 128 704 l 1,0,-1
640 576 m 1,36,-1
 640 640 l 1,37,-1
 576 640 l 1,38,-1
 512 640 l 1,39,-1
 512 576 l 1,40,-1
 512 512 l 1,41,-1
 576 512 l 1,42,-1
 640 512 l 1,43,-1
 640 576 l 1,36,-1
384 320 m 1,44,-1
 384 384 l 1,45,-1
 320 384 l 1,46,-1
 256 384 l 1,47,-1
 256 320 l 1,48,-1
 256 256 l 1,49,-1
 320 256 l 1,50,-1
 384 256 l 1,51,-1
 384 320 l 1,44,-1
EndSplineSet
EndChar

StartChar: ccedilla
Encoding: 231 231 170
Width: 1024
GlyphClass: 2
Flags: W
LayerCount: 2
Fore
SplineSet
128 704 m 1,0,-1
 128 768 l 1,1,-1
 512 768 l 1,2,-1
 896 768 l 1,3,-1
 896 704 l 1,4,-1
 896 640 l 1,5,-1
 576 640 l 1,6,-1
 256 640 l 1,7,-1
 256 512 l 1,8,-1
 256 384 l 1,9,-1
 576 384 l 1,10,-1
 896 384 l 1,11,-1
 896 320 l 1,12,-1
 896 256 l 1,13,-1
 768 256 l 1,14,-1
 640 256 l 1,15,-1
 640 192 l 1,16,-1
 640 128 l 1,17,-1
 576 128 l 1,18,-1
 512 128 l 1,19,-1
 512 64 l 1,20,-1
 512 0 l 1,21,-1
 384 0 l 1,22,-1
 256 0 l 1,23,-1
 256 64 l 1,24,-1
 256 128 l 1,25,-1
 384 128 l 1,26,-1
 512 128 l 1,27,-1
 512 192 l 1,28,-1
 512 256 l 1,29,-1
 320 256 l 1,30,-1
 128 256 l 1,31,-1
 128 320 l 1,32,-1
 128 384 l 1,33,-1
 64 384 l 1,34,-1
 0 384 l 1,35,-1
 0 512 l 1,36,-1
 0 640 l 1,37,-1
 64 640 l 1,38,-1
 128 640 l 1,39,-1
 128 704 l 1,0,-1
EndSplineSet
EndChar

StartChar: egrave
Encoding: 232 232 171
Width: 1024
GlyphClass: 2
Flags: W
LayerCount: 2
Fore
SplineSet
256 960 m 1,0,-1
 256 1024 l 1,1,-1
 320 1024 l 1,2,-1
 384 1024 l 1,3,-1
 384 960 l 1,4,-1
 384 896 l 1,5,-1
 448 896 l 1,6,-1
 512 896 l 1,7,-1
 512 832 l 1,8,-1
 512 768 l 1,9,-1
 640 768 l 1,10,-1
 768 768 l 1,11,-1
 768 704 l 1,12,-1
 768 640 l 1,13,-1
 832 640 l 1,14,-1
 896 640 l 1,15,-1
 896 512 l 1,16,-1
 896 384 l 1,17,-1
 576 384 l 1,18,-1
 256 384 l 1,19,-1
 256 320 l 1,20,-1
 256 256 l 1,21,-1
 512 256 l 1,22,-1
 768 256 l 1,23,-1
 768 192 l 1,24,-1
 768 128 l 1,25,-1
 448 128 l 1,26,-1
 128 128 l 1,27,-1
 128 192 l 1,28,-1
 128 256 l 1,29,-1
 64 256 l 1,30,-1
 0 256 l 1,31,-1
 0 448 l 1,32,-1
 0 640 l 1,33,-1
 64 640 l 1,34,-1
 128 640 l 1,35,-1
 128 704 l 1,36,-1
 128 768 l 1,37,-1
 256 768 l 1,38,-1
 384 768 l 1,39,-1
 384 832 l 1,40,-1
 384 896 l 1,41,-1
 320 896 l 1,42,-1
 256 896 l 1,43,-1
 256 960 l 1,0,-1
640 576 m 1,44,-1
 640 640 l 1,45,-1
 448 640 l 1,46,-1
 256 640 l 1,47,-1
 256 576 l 1,48,-1
 256 512 l 1,49,-1
 448 512 l 1,50,-1
 640 512 l 1,51,-1
 640 576 l 1,44,-1
EndSplineSet
EndChar

StartChar: eacute
Encoding: 233 233 172
Width: 1024
GlyphClass: 2
Flags: W
LayerCount: 2
Fore
SplineSet
512 960 m 1,0,-1
 512 1024 l 1,1,-1
 576 1024 l 1,2,-1
 640 1024 l 1,3,-1
 640 960 l 1,4,-1
 640 896 l 1,5,-1
 576 896 l 1,6,-1
 512 896 l 1,7,-1
 512 832 l 1,8,-1
 512 768 l 1,9,-1
 640 768 l 1,10,-1
 768 768 l 1,11,-1
 768 704 l 1,12,-1
 768 640 l 1,13,-1
 832 640 l 1,14,-1
 896 640 l 1,15,-1
 896 512 l 1,16,-1
 896 384 l 1,17,-1
 576 384 l 1,18,-1
 256 384 l 1,19,-1
 256 320 l 1,20,-1
 256 256 l 1,21,-1
 512 256 l 1,22,-1
 768 256 l 1,23,-1
 768 192 l 1,24,-1
 768 128 l 1,25,-1
 448 128 l 1,26,-1
 128 128 l 1,27,-1
 128 192 l 1,28,-1
 128 256 l 1,29,-1
 64 256 l 1,30,-1
 0 256 l 1,31,-1
 0 448 l 1,32,-1
 0 640 l 1,33,-1
 64 640 l 1,34,-1
 128 640 l 1,35,-1
 128 704 l 1,36,-1
 128 768 l 1,37,-1
 256 768 l 1,38,-1
 384 768 l 1,39,-1
 384 832 l 1,40,-1
 384 896 l 1,41,-1
 448 896 l 1,42,-1
 512 896 l 1,43,-1
 512 960 l 1,0,-1
640 576 m 1,44,-1
 640 640 l 1,45,-1
 448 640 l 1,46,-1
 256 640 l 1,47,-1
 256 576 l 1,48,-1
 256 512 l 1,49,-1
 448 512 l 1,50,-1
 640 512 l 1,51,-1
 640 576 l 1,44,-1
EndSplineSet
EndChar

StartChar: ecircumflex
Encoding: 234 234 173
Width: 1024
GlyphClass: 2
Flags: W
LayerCount: 2
Fore
SplineSet
256 960 m 1,0,-1
 256 1024 l 1,1,-1
 448 1024 l 1,2,-1
 640 1024 l 1,3,-1
 640 960 l 1,4,-1
 640 896 l 1,5,-1
 704 896 l 1,6,-1
 768 896 l 1,7,-1
 768 768 l 1,8,-1
 768 640 l 1,9,-1
 832 640 l 1,10,-1
 896 640 l 1,11,-1
 896 512 l 1,12,-1
 896 384 l 1,13,-1
 576 384 l 1,14,-1
 256 384 l 1,15,-1
 256 320 l 1,16,-1
 256 256 l 1,17,-1
 512 256 l 1,18,-1
 768 256 l 1,19,-1
 768 192 l 1,20,-1
 768 128 l 1,21,-1
 448 128 l 1,22,-1
 128 128 l 1,23,-1
 128 192 l 1,24,-1
 128 256 l 1,25,-1
 64 256 l 1,26,-1
 0 256 l 1,27,-1
 0 448 l 1,28,-1
 0 640 l 1,29,-1
 64 640 l 1,30,-1
 128 640 l 1,31,-1
 128 768 l 1,32,-1
 128 896 l 1,33,-1
 192 896 l 1,34,-1
 256 896 l 1,35,-1
 256 960 l 1,0,-1
512 832 m 1,36,-1
 512 896 l 1,37,-1
 448 896 l 1,38,-1
 384 896 l 1,39,-1
 384 832 l 1,40,-1
 384 768 l 1,41,-1
 448 768 l 1,42,-1
 512 768 l 1,43,-1
 512 832 l 1,36,-1
640 576 m 1,44,-1
 640 640 l 1,45,-1
 448 640 l 1,46,-1
 256 640 l 1,47,-1
 256 576 l 1,48,-1
 256 512 l 1,49,-1
 448 512 l 1,50,-1
 640 512 l 1,51,-1
 640 576 l 1,44,-1
EndSplineSet
EndChar

StartChar: edieresis
Encoding: 235 235 174
Width: 1024
GlyphClass: 2
Flags: W
LayerCount: 2
Fore
SplineSet
128 704 m 1,0,-1
 128 768 l 1,1,-1
 448 768 l 1,2,-1
 768 768 l 1,3,-1
 768 704 l 1,4,-1
 768 640 l 1,5,-1
 832 640 l 1,6,-1
 896 640 l 1,7,-1
 896 512 l 1,8,-1
 896 384 l 1,9,-1
 576 384 l 1,10,-1
 256 384 l 1,11,-1
 256 320 l 1,12,-1
 256 256 l 1,13,-1
 512 256 l 1,14,-1
 768 256 l 1,15,-1
 768 192 l 1,16,-1
 768 128 l 1,17,-1
 448 128 l 1,18,-1
 128 128 l 1,19,-1
 128 192 l 1,20,-1
 128 256 l 1,21,-1
 64 256 l 1,22,-1
 0 256 l 1,23,-1
 0 448 l 1,24,-1
 0 640 l 1,25,-1
 64 640 l 1,26,-1
 128 640 l 1,27,-1
 128 704 l 1,0,-1
640 576 m 1,28,-1
 640 640 l 1,29,-1
 448 640 l 1,30,-1
 256 640 l 1,31,-1
 256 576 l 1,32,-1
 256 512 l 1,33,-1
 448 512 l 1,34,-1
 640 512 l 1,35,-1
 640 576 l 1,28,-1
512 960 m 1,36,-1
 512 1024 l 1,37,-1
 640 1024 l 1,38,-1
 768 1024 l 1,39,-1
 768 960 l 1,40,-1
 768 896 l 1,41,-1
 640 896 l 1,42,-1
 512 896 l 1,43,-1
 512 960 l 1,36,-1
128 960 m 1,44,-1
 128 1024 l 1,45,-1
 256 1024 l 1,46,-1
 384 1024 l 1,47,-1
 384 960 l 1,48,-1
 384 896 l 1,49,-1
 256 896 l 1,50,-1
 128 896 l 1,51,-1
 128 960 l 1,44,-1
EndSplineSet
EndChar

StartChar: igrave
Encoding: 236 236 175
Width: 1024
GlyphClass: 2
Flags: W
LayerCount: 2
Fore
SplineSet
256 576 m 1,0,-1
 256 640 l 1,1,-1
 448 640 l 1,2,-1
 640 640 l 1,3,-1
 640 448 l 1,4,-1
 640 256 l 1,5,-1
 768 256 l 1,6,-1
 896 256 l 1,7,-1
 896 192 l 1,8,-1
 896 128 l 1,9,-1
 512 128 l 1,10,-1
 128 128 l 1,11,-1
 128 192 l 1,12,-1
 128 256 l 1,13,-1
 256 256 l 1,14,-1
 384 256 l 1,15,-1
 384 384 l 1,16,-1
 384 512 l 1,17,-1
 320 512 l 1,18,-1
 256 512 l 1,19,-1
 256 576 l 1,0,-1
256 960 m 1,20,-1
 256 1024 l 1,21,-1
 320 1024 l 1,22,-1
 384 1024 l 1,23,-1
 384 960 l 1,24,-1
 384 896 l 1,25,-1
 448 896 l 1,26,-1
 512 896 l 1,27,-1
 512 832 l 1,28,-1
 512 768 l 1,29,-1
 448 768 l 1,30,-1
 384 768 l 1,31,-1
 384 832 l 1,32,-1
 384 896 l 1,33,-1
 320 896 l 1,34,-1
 256 896 l 1,35,-1
 256 960 l 1,20,-1
EndSplineSet
EndChar

StartChar: iacute
Encoding: 237 237 176
Width: 1024
GlyphClass: 2
Flags: W
LayerCount: 2
Fore
SplineSet
256 576 m 1,0,-1
 256 640 l 1,1,-1
 448 640 l 1,2,-1
 640 640 l 1,3,-1
 640 448 l 1,4,-1
 640 256 l 1,5,-1
 768 256 l 1,6,-1
 896 256 l 1,7,-1
 896 192 l 1,8,-1
 896 128 l 1,9,-1
 512 128 l 1,10,-1
 128 128 l 1,11,-1
 128 192 l 1,12,-1
 128 256 l 1,13,-1
 256 256 l 1,14,-1
 384 256 l 1,15,-1
 384 384 l 1,16,-1
 384 512 l 1,17,-1
 320 512 l 1,18,-1
 256 512 l 1,19,-1
 256 576 l 1,0,-1
512 960 m 1,20,-1
 512 1024 l 1,21,-1
 576 1024 l 1,22,-1
 640 1024 l 1,23,-1
 640 960 l 1,24,-1
 640 896 l 1,25,-1
 576 896 l 1,26,-1
 512 896 l 1,27,-1
 512 832 l 1,28,-1
 512 768 l 1,29,-1
 448 768 l 1,30,-1
 384 768 l 1,31,-1
 384 832 l 1,32,-1
 384 896 l 1,33,-1
 448 896 l 1,34,-1
 512 896 l 1,35,-1
 512 960 l 1,20,-1
EndSplineSet
EndChar

StartChar: icircumflex
Encoding: 238 238 177
Width: 1024
GlyphClass: 2
Flags: W
LayerCount: 2
Fore
SplineSet
256 576 m 1,0,-1
 256 640 l 1,1,-1
 448 640 l 1,2,-1
 640 640 l 1,3,-1
 640 448 l 1,4,-1
 640 256 l 1,5,-1
 768 256 l 1,6,-1
 896 256 l 1,7,-1
 896 192 l 1,8,-1
 896 128 l 1,9,-1
 512 128 l 1,10,-1
 128 128 l 1,11,-1
 128 192 l 1,12,-1
 128 256 l 1,13,-1
 256 256 l 1,14,-1
 384 256 l 1,15,-1
 384 384 l 1,16,-1
 384 512 l 1,17,-1
 320 512 l 1,18,-1
 256 512 l 1,19,-1
 256 576 l 1,0,-1
256 960 m 1,20,-1
 256 1024 l 1,21,-1
 448 1024 l 1,22,-1
 640 1024 l 1,23,-1
 640 960 l 1,24,-1
 640 896 l 1,25,-1
 704 896 l 1,26,-1
 768 896 l 1,27,-1
 768 832 l 1,28,-1
 768 768 l 1,29,-1
 640 768 l 1,30,-1
 512 768 l 1,31,-1
 512 832 l 1,32,-1
 512 896 l 1,33,-1
 448 896 l 1,34,-1
 384 896 l 1,35,-1
 384 832 l 1,36,-1
 384 768 l 1,37,-1
 256 768 l 1,38,-1
 128 768 l 1,39,-1
 128 832 l 1,40,-1
 128 896 l 1,41,-1
 192 896 l 1,42,-1
 256 896 l 1,43,-1
 256 960 l 1,20,-1
EndSplineSet
EndChar

StartChar: idieresis
Encoding: 239 239 178
Width: 1024
GlyphClass: 2
Flags: W
LayerCount: 2
Fore
SplineSet
256 704 m 1,0,-1
 256 768 l 1,1,-1
 448 768 l 1,2,-1
 640 768 l 1,3,-1
 640 512 l 1,4,-1
 640 256 l 1,5,-1
 768 256 l 1,6,-1
 896 256 l 1,7,-1
 896 192 l 1,8,-1
 896 128 l 1,9,-1
 512 128 l 1,10,-1
 128 128 l 1,11,-1
 128 192 l 1,12,-1
 128 256 l 1,13,-1
 256 256 l 1,14,-1
 384 256 l 1,15,-1
 384 448 l 1,16,-1
 384 640 l 1,17,-1
 320 640 l 1,18,-1
 256 640 l 1,19,-1
 256 704 l 1,0,-1
512 960 m 1,20,-1
 512 1024 l 1,21,-1
 640 1024 l 1,22,-1
 768 1024 l 1,23,-1
 768 960 l 1,24,-1
 768 896 l 1,25,-1
 640 896 l 1,26,-1
 512 896 l 1,27,-1
 512 960 l 1,20,-1
128 960 m 1,28,-1
 128 1024 l 1,29,-1
 256 1024 l 1,30,-1
 384 1024 l 1,31,-1
 384 960 l 1,32,-1
 384 896 l 1,33,-1
 256 896 l 1,34,-1
 128 896 l 1,35,-1
 128 960 l 1,28,-1
EndSplineSet
EndChar

StartChar: eth
Encoding: 240 240 179
Width: 1024
GlyphClass: 2
Flags: W
LayerCount: 2
Fore
SplineSet
128 896 m 1,0,-1
 128 1024 l 1,1,-1
 256 1024 l 1,2,-1
 384 1024 l 1,3,-1
 384 960 l 1,4,-1
 384 896 l 1,5,-1
 512 896 l 1,6,-1
 640 896 l 1,7,-1
 640 960 l 1,8,-1
 640 1024 l 1,9,-1
 704 1024 l 1,10,-1
 768 1024 l 1,11,-1
 768 960 l 1,12,-1
 768 896 l 1,13,-1
 704 896 l 1,14,-1
 640 896 l 1,15,-1
 640 768 l 1,16,-1
 640 640 l 1,17,-1
 704 640 l 1,18,-1
 768 640 l 1,19,-1
 768 576 l 1,20,-1
 768 512 l 1,21,-1
 832 512 l 1,22,-1
 896 512 l 1,23,-1
 896 384 l 1,24,-1
 896 256 l 1,25,-1
 832 256 l 1,26,-1
 768 256 l 1,27,-1
 768 192 l 1,28,-1
 768 128 l 1,29,-1
 448 128 l 1,30,-1
 128 128 l 1,31,-1
 128 192 l 1,32,-1
 128 256 l 1,33,-1
 64 256 l 1,34,-1
 0 256 l 1,35,-1
 0 384 l 1,36,-1
 0 512 l 1,37,-1
 64 512 l 1,38,-1
 128 512 l 1,39,-1
 128 576 l 1,40,-1
 128 640 l 1,41,-1
 64 640 l 1,42,-1
 0 640 l 1,43,-1
 0 704 l 1,44,-1
 0 768 l 1,45,-1
 64 768 l 1,46,-1
 128 768 l 1,47,-1
 128 896 l 1,0,-1
384 704 m 1,48,-1
 384 768 l 1,49,-1
 256 768 l 1,50,-1
 128 768 l 1,51,-1
 128 704 l 1,52,-1
 128 640 l 1,53,-1
 256 640 l 1,54,-1
 384 640 l 1,55,-1
 384 704 l 1,48,-1
640 384 m 1,56,-1
 640 512 l 1,57,-1
 448 512 l 1,58,-1
 256 512 l 1,59,-1
 256 384 l 1,60,-1
 256 256 l 1,61,-1
 448 256 l 1,62,-1
 640 256 l 1,63,-1
 640 384 l 1,56,-1
EndSplineSet
EndChar

StartChar: ntilde
Encoding: 241 241 180
Width: 1024
GlyphClass: 2
Flags: W
LayerCount: 2
Fore
SplineSet
256 960 m 1,0,-1
 256 1024 l 1,1,-1
 384 1024 l 1,2,-1
 512 1024 l 1,3,-1
 512 960 l 1,4,-1
 512 896 l 1,5,-1
 576 896 l 1,6,-1
 640 896 l 1,7,-1
 640 960 l 1,8,-1
 640 1024 l 1,9,-1
 704 1024 l 1,10,-1
 768 1024 l 1,11,-1
 768 960 l 1,12,-1
 768 896 l 1,13,-1
 704 896 l 1,14,-1
 640 896 l 1,15,-1
 640 832 l 1,16,-1
 640 768 l 1,17,-1
 704 768 l 1,18,-1
 768 768 l 1,19,-1
 768 704 l 1,20,-1
 768 640 l 1,21,-1
 832 640 l 1,22,-1
 896 640 l 1,23,-1
 896 384 l 1,24,-1
 896 128 l 1,25,-1
 768 128 l 1,26,-1
 640 128 l 1,27,-1
 640 384 l 1,28,-1
 640 640 l 1,29,-1
 448 640 l 1,30,-1
 256 640 l 1,31,-1
 256 384 l 1,32,-1
 256 128 l 1,33,-1
 128 128 l 1,34,-1
 0 128 l 1,35,-1
 0 448 l 1,36,-1
 0 768 l 1,37,-1
 64 768 l 1,38,-1
 128 768 l 1,39,-1
 128 832 l 1,40,-1
 128 896 l 1,41,-1
 192 896 l 1,42,-1
 256 896 l 1,43,-1
 256 960 l 1,0,-1
384 832 m 1,44,-1
 384 896 l 1,45,-1
 320 896 l 1,46,-1
 256 896 l 1,47,-1
 256 832 l 1,48,-1
 256 768 l 1,49,-1
 320 768 l 1,50,-1
 384 768 l 1,51,-1
 384 832 l 1,44,-1
EndSplineSet
EndChar

StartChar: ograve
Encoding: 242 242 181
Width: 1024
GlyphClass: 2
Flags: W
LayerCount: 2
Fore
SplineSet
256 960 m 1,0,-1
 256 1024 l 1,1,-1
 320 1024 l 1,2,-1
 384 1024 l 1,3,-1
 384 960 l 1,4,-1
 384 896 l 1,5,-1
 448 896 l 1,6,-1
 512 896 l 1,7,-1
 512 832 l 1,8,-1
 512 768 l 1,9,-1
 640 768 l 1,10,-1
 768 768 l 1,11,-1
 768 704 l 1,12,-1
 768 640 l 1,13,-1
 832 640 l 1,14,-1
 896 640 l 1,15,-1
 896 448 l 1,16,-1
 896 256 l 1,17,-1
 832 256 l 1,18,-1
 768 256 l 1,19,-1
 768 192 l 1,20,-1
 768 128 l 1,21,-1
 448 128 l 1,22,-1
 128 128 l 1,23,-1
 128 192 l 1,24,-1
 128 256 l 1,25,-1
 64 256 l 1,26,-1
 0 256 l 1,27,-1
 0 448 l 1,28,-1
 0 640 l 1,29,-1
 64 640 l 1,30,-1
 128 640 l 1,31,-1
 128 704 l 1,32,-1
 128 768 l 1,33,-1
 256 768 l 1,34,-1
 384 768 l 1,35,-1
 384 832 l 1,36,-1
 384 896 l 1,37,-1
 320 896 l 1,38,-1
 256 896 l 1,39,-1
 256 960 l 1,0,-1
640 448 m 1,40,-1
 640 640 l 1,41,-1
 448 640 l 1,42,-1
 256 640 l 1,43,-1
 256 448 l 1,44,-1
 256 256 l 1,45,-1
 448 256 l 1,46,-1
 640 256 l 1,47,-1
 640 448 l 1,40,-1
EndSplineSet
EndChar

StartChar: oacute
Encoding: 243 243 182
Width: 1024
GlyphClass: 2
Flags: W
LayerCount: 2
Fore
SplineSet
512 960 m 1,0,-1
 512 1024 l 1,1,-1
 576 1024 l 1,2,-1
 640 1024 l 1,3,-1
 640 960 l 1,4,-1
 640 896 l 1,5,-1
 576 896 l 1,6,-1
 512 896 l 1,7,-1
 512 832 l 1,8,-1
 512 768 l 1,9,-1
 640 768 l 1,10,-1
 768 768 l 1,11,-1
 768 704 l 1,12,-1
 768 640 l 1,13,-1
 832 640 l 1,14,-1
 896 640 l 1,15,-1
 896 448 l 1,16,-1
 896 256 l 1,17,-1
 832 256 l 1,18,-1
 768 256 l 1,19,-1
 768 192 l 1,20,-1
 768 128 l 1,21,-1
 448 128 l 1,22,-1
 128 128 l 1,23,-1
 128 192 l 1,24,-1
 128 256 l 1,25,-1
 64 256 l 1,26,-1
 0 256 l 1,27,-1
 0 448 l 1,28,-1
 0 640 l 1,29,-1
 64 640 l 1,30,-1
 128 640 l 1,31,-1
 128 704 l 1,32,-1
 128 768 l 1,33,-1
 256 768 l 1,34,-1
 384 768 l 1,35,-1
 384 832 l 1,36,-1
 384 896 l 1,37,-1
 448 896 l 1,38,-1
 512 896 l 1,39,-1
 512 960 l 1,0,-1
640 448 m 1,40,-1
 640 640 l 1,41,-1
 448 640 l 1,42,-1
 256 640 l 1,43,-1
 256 448 l 1,44,-1
 256 256 l 1,45,-1
 448 256 l 1,46,-1
 640 256 l 1,47,-1
 640 448 l 1,40,-1
EndSplineSet
EndChar

StartChar: ocircumflex
Encoding: 244 244 183
Width: 1024
GlyphClass: 2
Flags: W
LayerCount: 2
Fore
SplineSet
256 960 m 1,0,-1
 256 1024 l 1,1,-1
 448 1024 l 1,2,-1
 640 1024 l 1,3,-1
 640 960 l 1,4,-1
 640 896 l 1,5,-1
 704 896 l 1,6,-1
 768 896 l 1,7,-1
 768 768 l 1,8,-1
 768 640 l 1,9,-1
 832 640 l 1,10,-1
 896 640 l 1,11,-1
 896 448 l 1,12,-1
 896 256 l 1,13,-1
 832 256 l 1,14,-1
 768 256 l 1,15,-1
 768 192 l 1,16,-1
 768 128 l 1,17,-1
 448 128 l 1,18,-1
 128 128 l 1,19,-1
 128 192 l 1,20,-1
 128 256 l 1,21,-1
 64 256 l 1,22,-1
 0 256 l 1,23,-1
 0 448 l 1,24,-1
 0 640 l 1,25,-1
 64 640 l 1,26,-1
 128 640 l 1,27,-1
 128 768 l 1,28,-1
 128 896 l 1,29,-1
 192 896 l 1,30,-1
 256 896 l 1,31,-1
 256 960 l 1,0,-1
512 832 m 1,32,-1
 512 896 l 1,33,-1
 448 896 l 1,34,-1
 384 896 l 1,35,-1
 384 832 l 1,36,-1
 384 768 l 1,37,-1
 448 768 l 1,38,-1
 512 768 l 1,39,-1
 512 832 l 1,32,-1
640 448 m 1,40,-1
 640 640 l 1,41,-1
 448 640 l 1,42,-1
 256 640 l 1,43,-1
 256 448 l 1,44,-1
 256 256 l 1,45,-1
 448 256 l 1,46,-1
 640 256 l 1,47,-1
 640 448 l 1,40,-1
EndSplineSet
EndChar

StartChar: otilde
Encoding: 245 245 184
Width: 1024
GlyphClass: 2
Flags: W
LayerCount: 2
Fore
SplineSet
256 960 m 1,0,-1
 256 1024 l 1,1,-1
 384 1024 l 1,2,-1
 512 1024 l 1,3,-1
 512 960 l 1,4,-1
 512 896 l 1,5,-1
 576 896 l 1,6,-1
 640 896 l 1,7,-1
 640 960 l 1,8,-1
 640 1024 l 1,9,-1
 704 1024 l 1,10,-1
 768 1024 l 1,11,-1
 768 960 l 1,12,-1
 768 896 l 1,13,-1
 704 896 l 1,14,-1
 640 896 l 1,15,-1
 640 832 l 1,16,-1
 640 768 l 1,17,-1
 704 768 l 1,18,-1
 768 768 l 1,19,-1
 768 704 l 1,20,-1
 768 640 l 1,21,-1
 832 640 l 1,22,-1
 896 640 l 1,23,-1
 896 448 l 1,24,-1
 896 256 l 1,25,-1
 832 256 l 1,26,-1
 768 256 l 1,27,-1
 768 192 l 1,28,-1
 768 128 l 1,29,-1
 448 128 l 1,30,-1
 128 128 l 1,31,-1
 128 192 l 1,32,-1
 128 256 l 1,33,-1
 64 256 l 1,34,-1
 0 256 l 1,35,-1
 0 448 l 1,36,-1
 0 640 l 1,37,-1
 64 640 l 1,38,-1
 128 640 l 1,39,-1
 128 768 l 1,40,-1
 128 896 l 1,41,-1
 192 896 l 1,42,-1
 256 896 l 1,43,-1
 256 960 l 1,0,-1
384 832 m 1,44,-1
 384 896 l 1,45,-1
 320 896 l 1,46,-1
 256 896 l 1,47,-1
 256 832 l 1,48,-1
 256 768 l 1,49,-1
 320 768 l 1,50,-1
 384 768 l 1,51,-1
 384 832 l 1,44,-1
640 448 m 1,52,-1
 640 640 l 1,53,-1
 448 640 l 1,54,-1
 256 640 l 1,55,-1
 256 448 l 1,56,-1
 256 256 l 1,57,-1
 448 256 l 1,58,-1
 640 256 l 1,59,-1
 640 448 l 1,52,-1
EndSplineSet
EndChar

StartChar: odieresis
Encoding: 246 246 185
Width: 1024
GlyphClass: 2
Flags: W
LayerCount: 2
Fore
SplineSet
128 704 m 1,0,-1
 128 768 l 1,1,-1
 448 768 l 1,2,-1
 768 768 l 1,3,-1
 768 704 l 1,4,-1
 768 640 l 1,5,-1
 832 640 l 1,6,-1
 896 640 l 1,7,-1
 896 448 l 1,8,-1
 896 256 l 1,9,-1
 832 256 l 1,10,-1
 768 256 l 1,11,-1
 768 192 l 1,12,-1
 768 128 l 1,13,-1
 448 128 l 1,14,-1
 128 128 l 1,15,-1
 128 192 l 1,16,-1
 128 256 l 1,17,-1
 64 256 l 1,18,-1
 0 256 l 1,19,-1
 0 448 l 1,20,-1
 0 640 l 1,21,-1
 64 640 l 1,22,-1
 128 640 l 1,23,-1
 128 704 l 1,0,-1
640 448 m 1,24,-1
 640 640 l 1,25,-1
 448 640 l 1,26,-1
 256 640 l 1,27,-1
 256 448 l 1,28,-1
 256 256 l 1,29,-1
 448 256 l 1,30,-1
 640 256 l 1,31,-1
 640 448 l 1,24,-1
512 960 m 1,32,-1
 512 1024 l 1,33,-1
 640 1024 l 1,34,-1
 768 1024 l 1,35,-1
 768 960 l 1,36,-1
 768 896 l 1,37,-1
 640 896 l 1,38,-1
 512 896 l 1,39,-1
 512 960 l 1,32,-1
128 960 m 1,40,-1
 128 1024 l 1,41,-1
 256 1024 l 1,42,-1
 384 1024 l 1,43,-1
 384 960 l 1,44,-1
 384 896 l 1,45,-1
 256 896 l 1,46,-1
 128 896 l 1,47,-1
 128 960 l 1,40,-1
EndSplineSet
EndChar

StartChar: divide
Encoding: 247 247 186
Width: 1024
GlyphClass: 2
Flags: W
LayerCount: 2
Fore
SplineSet
384 320 m 1,0,-1
 384 384 l 1,1,-1
 512 384 l 1,2,-1
 640 384 l 1,3,-1
 640 320 l 1,4,-1
 640 256 l 1,5,-1
 512 256 l 1,6,-1
 384 256 l 1,7,-1
 384 320 l 1,0,-1
128 576 m 1,8,-1
 128 640 l 1,9,-1
 512 640 l 1,10,-1
 896 640 l 1,11,-1
 896 576 l 1,12,-1
 896 512 l 1,13,-1
 512 512 l 1,14,-1
 128 512 l 1,15,-1
 128 576 l 1,8,-1
384 832 m 1,16,-1
 384 896 l 1,17,-1
 512 896 l 1,18,-1
 640 896 l 1,19,-1
 640 832 l 1,20,-1
 640 768 l 1,21,-1
 512 768 l 1,22,-1
 384 768 l 1,23,-1
 384 832 l 1,16,-1
EndSplineSet
EndChar

StartChar: oslash
Encoding: 248 248 187
Width: 1024
GlyphClass: 2
Flags: W
LayerCount: 2
Fore
SplineSet
384 448 m 1,0,-1
 384 512 l 1,1,-1
 448 512 l 1,2,-1
 512 512 l 1,3,-1
 512 448 l 1,4,-1
 512 384 l 1,5,-1
 448 384 l 1,6,-1
 384 384 l 1,7,-1
 384 448 l 1,0,-1
128 704 m 1,8,-1
 128 768 l 1,9,-1
 448 768 l 1,10,-1
 768 768 l 1,11,-1
 768 704 l 1,12,-1
 768 640 l 1,13,-1
 832 640 l 1,14,-1
 896 640 l 1,15,-1
 896 448 l 1,16,-1
 896 256 l 1,17,-1
 832 256 l 1,18,-1
 768 256 l 1,19,-1
 768 192 l 1,20,-1
 768 128 l 1,21,-1
 448 128 l 1,22,-1
 128 128 l 1,23,-1
 128 192 l 1,24,-1
 128 256 l 1,25,-1
 64 256 l 1,26,-1
 0 256 l 1,27,-1
 0 448 l 1,28,-1
 0 640 l 1,29,-1
 64 640 l 1,30,-1
 128 640 l 1,31,-1
 128 704 l 1,8,-1
512 576 m 1,32,-1
 512 640 l 1,33,-1
 384 640 l 1,34,-1
 256 640 l 1,35,-1
 256 512 l 1,36,-1
 256 384 l 1,37,-1
 320 384 l 1,38,-1
 384 384 l 1,39,-1
 384 320 l 1,40,-1
 384 256 l 1,41,-1
 512 256 l 1,42,-1
 640 256 l 1,43,-1
 640 384 l 1,44,-1
 640 512 l 1,45,-1
 576 512 l 1,46,-1
 512 512 l 1,47,-1
 512 576 l 1,32,-1
EndSplineSet
EndChar

StartChar: ugrave
Encoding: 249 249 188
Width: 1024
GlyphClass: 2
Flags: W
LayerCount: 2
Fore
SplineSet
0 512 m 1,0,-1
 0 768 l 1,1,-1
 128 768 l 1,2,-1
 256 768 l 1,3,-1
 256 512 l 1,4,-1
 256 256 l 1,5,-1
 448 256 l 1,6,-1
 640 256 l 1,7,-1
 640 512 l 1,8,-1
 640 768 l 1,9,-1
 768 768 l 1,10,-1
 896 768 l 1,11,-1
 896 448 l 1,12,-1
 896 128 l 1,13,-1
 512 128 l 1,14,-1
 128 128 l 1,15,-1
 128 192 l 1,16,-1
 128 256 l 1,17,-1
 64 256 l 1,18,-1
 0 256 l 1,19,-1
 0 512 l 1,0,-1
256 960 m 1,20,-1
 256 1024 l 1,21,-1
 320 1024 l 1,22,-1
 384 1024 l 1,23,-1
 384 960 l 1,24,-1
 384 896 l 1,25,-1
 448 896 l 1,26,-1
 512 896 l 1,27,-1
 512 832 l 1,28,-1
 512 768 l 1,29,-1
 448 768 l 1,30,-1
 384 768 l 1,31,-1
 384 832 l 1,32,-1
 384 896 l 1,33,-1
 320 896 l 1,34,-1
 256 896 l 1,35,-1
 256 960 l 1,20,-1
EndSplineSet
EndChar

StartChar: uacute
Encoding: 250 250 189
Width: 1024
GlyphClass: 2
Flags: W
LayerCount: 2
Fore
SplineSet
0 512 m 1,0,-1
 0 768 l 1,1,-1
 128 768 l 1,2,-1
 256 768 l 1,3,-1
 256 512 l 1,4,-1
 256 256 l 1,5,-1
 448 256 l 1,6,-1
 640 256 l 1,7,-1
 640 512 l 1,8,-1
 640 768 l 1,9,-1
 768 768 l 1,10,-1
 896 768 l 1,11,-1
 896 448 l 1,12,-1
 896 128 l 1,13,-1
 512 128 l 1,14,-1
 128 128 l 1,15,-1
 128 192 l 1,16,-1
 128 256 l 1,17,-1
 64 256 l 1,18,-1
 0 256 l 1,19,-1
 0 512 l 1,0,-1
512 960 m 1,20,-1
 512 1024 l 1,21,-1
 576 1024 l 1,22,-1
 640 1024 l 1,23,-1
 640 960 l 1,24,-1
 640 896 l 1,25,-1
 576 896 l 1,26,-1
 512 896 l 1,27,-1
 512 832 l 1,28,-1
 512 768 l 1,29,-1
 448 768 l 1,30,-1
 384 768 l 1,31,-1
 384 832 l 1,32,-1
 384 896 l 1,33,-1
 448 896 l 1,34,-1
 512 896 l 1,35,-1
 512 960 l 1,20,-1
EndSplineSet
EndChar

StartChar: ucircumflex
Encoding: 251 251 190
Width: 1024
GlyphClass: 2
Flags: W
LayerCount: 2
Fore
SplineSet
0 448 m 1,0,-1
 0 640 l 1,1,-1
 128 640 l 1,2,-1
 256 640 l 1,3,-1
 256 448 l 1,4,-1
 256 256 l 1,5,-1
 448 256 l 1,6,-1
 640 256 l 1,7,-1
 640 448 l 1,8,-1
 640 640 l 1,9,-1
 768 640 l 1,10,-1
 896 640 l 1,11,-1
 896 384 l 1,12,-1
 896 128 l 1,13,-1
 512 128 l 1,14,-1
 128 128 l 1,15,-1
 128 192 l 1,16,-1
 128 256 l 1,17,-1
 64 256 l 1,18,-1
 0 256 l 1,19,-1
 0 448 l 1,0,-1
256 960 m 1,20,-1
 256 1024 l 1,21,-1
 448 1024 l 1,22,-1
 640 1024 l 1,23,-1
 640 960 l 1,24,-1
 640 896 l 1,25,-1
 704 896 l 1,26,-1
 768 896 l 1,27,-1
 768 832 l 1,28,-1
 768 768 l 1,29,-1
 640 768 l 1,30,-1
 512 768 l 1,31,-1
 512 832 l 1,32,-1
 512 896 l 1,33,-1
 448 896 l 1,34,-1
 384 896 l 1,35,-1
 384 832 l 1,36,-1
 384 768 l 1,37,-1
 256 768 l 1,38,-1
 128 768 l 1,39,-1
 128 832 l 1,40,-1
 128 896 l 1,41,-1
 192 896 l 1,42,-1
 256 896 l 1,43,-1
 256 960 l 1,20,-1
EndSplineSet
EndChar

StartChar: udieresis
Encoding: 252 252 191
Width: 1024
GlyphClass: 2
Flags: W
LayerCount: 2
Fore
SplineSet
0 512 m 1,0,-1
 0 768 l 1,1,-1
 128 768 l 1,2,-1
 256 768 l 1,3,-1
 256 512 l 1,4,-1
 256 256 l 1,5,-1
 448 256 l 1,6,-1
 640 256 l 1,7,-1
 640 512 l 1,8,-1
 640 768 l 1,9,-1
 768 768 l 1,10,-1
 896 768 l 1,11,-1
 896 448 l 1,12,-1
 896 128 l 1,13,-1
 512 128 l 1,14,-1
 128 128 l 1,15,-1
 128 192 l 1,16,-1
 128 256 l 1,17,-1
 64 256 l 1,18,-1
 0 256 l 1,19,-1
 0 512 l 1,0,-1
512 960 m 1,20,-1
 512 1024 l 1,21,-1
 640 1024 l 1,22,-1
 768 1024 l 1,23,-1
 768 960 l 1,24,-1
 768 896 l 1,25,-1
 640 896 l 1,26,-1
 512 896 l 1,27,-1
 512 960 l 1,20,-1
128 960 m 1,28,-1
 128 1024 l 1,29,-1
 256 1024 l 1,30,-1
 384 1024 l 1,31,-1
 384 960 l 1,32,-1
 384 896 l 1,33,-1
 256 896 l 1,34,-1
 128 896 l 1,35,-1
 128 960 l 1,28,-1
EndSplineSet
EndChar

StartChar: yacute
Encoding: 253 253 192
Width: 1024
GlyphClass: 2
Flags: W
LayerCount: 2
Fore
SplineSet
0 576 m 1,0,-1
 0 768 l 1,1,-1
 128 768 l 1,2,-1
 256 768 l 1,3,-1
 256 576 l 1,4,-1
 256 384 l 1,5,-1
 448 384 l 1,6,-1
 640 384 l 1,7,-1
 640 576 l 1,8,-1
 640 768 l 1,9,-1
 768 768 l 1,10,-1
 896 768 l 1,11,-1
 896 448 l 1,12,-1
 896 128 l 1,13,-1
 832 128 l 1,14,-1
 768 128 l 1,15,-1
 768 64 l 1,16,-1
 768 0 l 1,17,-1
 448 0 l 1,18,-1
 128 0 l 1,19,-1
 128 64 l 1,20,-1
 128 128 l 1,21,-1
 384 128 l 1,22,-1
 640 128 l 1,23,-1
 640 192 l 1,24,-1
 640 256 l 1,25,-1
 384 256 l 1,26,-1
 128 256 l 1,27,-1
 128 320 l 1,28,-1
 128 384 l 1,29,-1
 64 384 l 1,30,-1
 0 384 l 1,31,-1
 0 576 l 1,0,-1
512 960 m 1,32,-1
 512 1024 l 1,33,-1
 576 1024 l 1,34,-1
 640 1024 l 1,35,-1
 640 960 l 1,36,-1
 640 896 l 1,37,-1
 576 896 l 1,38,-1
 512 896 l 1,39,-1
 512 832 l 1,40,-1
 512 768 l 1,41,-1
 448 768 l 1,42,-1
 384 768 l 1,43,-1
 384 832 l 1,44,-1
 384 896 l 1,45,-1
 448 896 l 1,46,-1
 512 896 l 1,47,-1
 512 960 l 1,32,-1
EndSplineSet
EndChar

StartChar: thorn
Encoding: 254 254 193
Width: 1024
GlyphClass: 2
Flags: W
LayerCount: 2
Fore
SplineSet
0 512 m 1,0,-1
 0 1024 l 1,1,-1
 128 1024 l 1,2,-1
 256 1024 l 1,3,-1
 256 896 l 1,4,-1
 256 768 l 1,5,-1
 512 768 l 1,6,-1
 768 768 l 1,7,-1
 768 704 l 1,8,-1
 768 640 l 1,9,-1
 832 640 l 1,10,-1
 896 640 l 1,11,-1
 896 512 l 1,12,-1
 896 384 l 1,13,-1
 832 384 l 1,14,-1
 768 384 l 1,15,-1
 768 320 l 1,16,-1
 768 256 l 1,17,-1
 512 256 l 1,18,-1
 256 256 l 1,19,-1
 256 128 l 1,20,-1
 256 0 l 1,21,-1
 128 0 l 1,22,-1
 0 0 l 1,23,-1
 0 512 l 1,0,-1
640 512 m 1,24,-1
 640 640 l 1,25,-1
 448 640 l 1,26,-1
 256 640 l 1,27,-1
 256 512 l 1,28,-1
 256 384 l 1,29,-1
 448 384 l 1,30,-1
 640 384 l 1,31,-1
 640 512 l 1,24,-1
EndSplineSet
EndChar

StartChar: ydieresis
Encoding: 255 255 194
Width: 1024
GlyphClass: 2
Flags: W
LayerCount: 2
Fore
SplineSet
0 576 m 1,0,-1
 0 768 l 1,1,-1
 128 768 l 1,2,-1
 256 768 l 1,3,-1
 256 576 l 1,4,-1
 256 384 l 1,5,-1
 448 384 l 1,6,-1
 640 384 l 1,7,-1
 640 576 l 1,8,-1
 640 768 l 1,9,-1
 768 768 l 1,10,-1
 896 768 l 1,11,-1
 896 448 l 1,12,-1
 896 128 l 1,13,-1
 832 128 l 1,14,-1
 768 128 l 1,15,-1
 768 64 l 1,16,-1
 768 0 l 1,17,-1
 448 0 l 1,18,-1
 128 0 l 1,19,-1
 128 64 l 1,20,-1
 128 128 l 1,21,-1
 384 128 l 1,22,-1
 640 128 l 1,23,-1
 640 192 l 1,24,-1
 640 256 l 1,25,-1
 384 256 l 1,26,-1
 128 256 l 1,27,-1
 128 320 l 1,28,-1
 128 384 l 1,29,-1
 64 384 l 1,30,-1
 0 384 l 1,31,-1
 0 576 l 1,0,-1
512 960 m 1,32,-1
 512 1024 l 1,33,-1
 640 1024 l 1,34,-1
 768 1024 l 1,35,-1
 768 960 l 1,36,-1
 768 896 l 1,37,-1
 640 896 l 1,38,-1
 512 896 l 1,39,-1
 512 960 l 1,32,-1
128 960 m 1,40,-1
 128 1024 l 1,41,-1
 256 1024 l 1,42,-1
 384 1024 l 1,43,-1
 384 960 l 1,44,-1
 384 896 l 1,45,-1
 256 896 l 1,46,-1
 128 896 l 1,47,-1
 128 960 l 1,40,-1
EndSplineSet
EndChar

StartChar: Amacron
Encoding: 256 256 195
Width: 1024
GlyphClass: 2
Flags: W
LayerCount: 2
Fore
SplineSet
256 704 m 1,0,-1
 256 768 l 1,1,-1
 448 768 l 1,2,-1
 640 768 l 1,3,-1
 640 704 l 1,4,-1
 640 640 l 1,5,-1
 704 640 l 1,6,-1
 768 640 l 1,7,-1
 768 576 l 1,8,-1
 768 512 l 1,9,-1
 832 512 l 1,10,-1
 896 512 l 1,11,-1
 896 320 l 1,12,-1
 896 128 l 1,13,-1
 768 128 l 1,14,-1
 640 128 l 1,15,-1
 640 192 l 1,16,-1
 640 256 l 1,17,-1
 448 256 l 1,18,-1
 256 256 l 1,19,-1
 256 192 l 1,20,-1
 256 128 l 1,21,-1
 128 128 l 1,22,-1
 0 128 l 1,23,-1
 0 320 l 1,24,-1
 0 512 l 1,25,-1
 64 512 l 1,26,-1
 128 512 l 1,27,-1
 128 576 l 1,28,-1
 128 640 l 1,29,-1
 192 640 l 1,30,-1
 256 640 l 1,31,-1
 256 704 l 1,0,-1
512 576 m 1,32,-1
 512 640 l 1,33,-1
 448 640 l 1,34,-1
 384 640 l 1,35,-1
 384 576 l 1,36,-1
 384 512 l 1,37,-1
 320 512 l 1,38,-1
 256 512 l 1,39,-1
 256 448 l 1,40,-1
 256 384 l 1,41,-1
 448 384 l 1,42,-1
 640 384 l 1,43,-1
 640 448 l 1,44,-1
 640 512 l 1,45,-1
 576 512 l 1,46,-1
 512 512 l 1,47,-1
 512 576 l 1,32,-1
128 960 m 1,48,-1
 128 1024 l 1,49,-1
 448 1024 l 1,50,-1
 768 1024 l 1,51,-1
 768 960 l 1,52,-1
 768 896 l 1,53,-1
 448 896 l 1,54,-1
 128 896 l 1,55,-1
 128 960 l 1,48,-1
EndSplineSet
EndChar

StartChar: amacron
Encoding: 257 257 196
Width: 1024
GlyphClass: 2
Flags: W
LayerCount: 2
Fore
SplineSet
128 704 m 1,0,-1
 128 768 l 1,1,-1
 448 768 l 1,2,-1
 768 768 l 1,3,-1
 768 704 l 1,4,-1
 768 640 l 1,5,-1
 832 640 l 1,6,-1
 896 640 l 1,7,-1
 896 384 l 1,8,-1
 896 128 l 1,9,-1
 512 128 l 1,10,-1
 128 128 l 1,11,-1
 128 192 l 1,12,-1
 128 256 l 1,13,-1
 64 256 l 1,14,-1
 0 256 l 1,15,-1
 0 320 l 1,16,-1
 0 384 l 1,17,-1
 64 384 l 1,18,-1
 128 384 l 1,19,-1
 128 448 l 1,20,-1
 128 512 l 1,21,-1
 384 512 l 1,22,-1
 640 512 l 1,23,-1
 640 576 l 1,24,-1
 640 640 l 1,25,-1
 384 640 l 1,26,-1
 128 640 l 1,27,-1
 128 704 l 1,0,-1
640 320 m 1,28,-1
 640 384 l 1,29,-1
 448 384 l 1,30,-1
 256 384 l 1,31,-1
 256 320 l 1,32,-1
 256 256 l 1,33,-1
 448 256 l 1,34,-1
 640 256 l 1,35,-1
 640 320 l 1,28,-1
128 960 m 1,36,-1
 128 1024 l 1,37,-1
 448 1024 l 1,38,-1
 768 1024 l 1,39,-1
 768 960 l 1,40,-1
 768 896 l 1,41,-1
 448 896 l 1,42,-1
 128 896 l 1,43,-1
 128 960 l 1,36,-1
EndSplineSet
EndChar

StartChar: Abreve
Encoding: 258 258 197
Width: 1024
GlyphClass: 2
Flags: W
LayerCount: 2
Fore
SplineSet
128 960 m 1,0,-1
 128 1024 l 1,1,-1
 192 1024 l 1,2,-1
 256 1024 l 1,3,-1
 256 960 l 1,4,-1
 256 896 l 1,5,-1
 448 896 l 1,6,-1
 640 896 l 1,7,-1
 640 960 l 1,8,-1
 640 1024 l 1,9,-1
 704 1024 l 1,10,-1
 768 1024 l 1,11,-1
 768 960 l 1,12,-1
 768 896 l 1,13,-1
 704 896 l 1,14,-1
 640 896 l 1,15,-1
 640 768 l 1,16,-1
 640 640 l 1,17,-1
 704 640 l 1,18,-1
 768 640 l 1,19,-1
 768 576 l 1,20,-1
 768 512 l 1,21,-1
 832 512 l 1,22,-1
 896 512 l 1,23,-1
 896 320 l 1,24,-1
 896 128 l 1,25,-1
 768 128 l 1,26,-1
 640 128 l 1,27,-1
 640 192 l 1,28,-1
 640 256 l 1,29,-1
 448 256 l 1,30,-1
 256 256 l 1,31,-1
 256 192 l 1,32,-1
 256 128 l 1,33,-1
 128 128 l 1,34,-1
 0 128 l 1,35,-1
 0 320 l 1,36,-1
 0 512 l 1,37,-1
 64 512 l 1,38,-1
 128 512 l 1,39,-1
 128 576 l 1,40,-1
 128 640 l 1,41,-1
 192 640 l 1,42,-1
 256 640 l 1,43,-1
 256 768 l 1,44,-1
 256 896 l 1,45,-1
 192 896 l 1,46,-1
 128 896 l 1,47,-1
 128 960 l 1,0,-1
512 576 m 1,48,-1
 512 640 l 1,49,-1
 448 640 l 1,50,-1
 384 640 l 1,51,-1
 384 576 l 1,52,-1
 384 512 l 1,53,-1
 320 512 l 1,54,-1
 256 512 l 1,55,-1
 256 448 l 1,56,-1
 256 384 l 1,57,-1
 448 384 l 1,58,-1
 640 384 l 1,59,-1
 640 448 l 1,60,-1
 640 512 l 1,61,-1
 576 512 l 1,62,-1
 512 512 l 1,63,-1
 512 576 l 1,48,-1
EndSplineSet
EndChar

StartChar: abreve
Encoding: 259 259 198
Width: 1024
GlyphClass: 2
Flags: W
LayerCount: 2
Fore
SplineSet
128 960 m 1,0,-1
 128 1024 l 1,1,-1
 192 1024 l 1,2,-1
 256 1024 l 1,3,-1
 256 960 l 1,4,-1
 256 896 l 1,5,-1
 448 896 l 1,6,-1
 640 896 l 1,7,-1
 640 960 l 1,8,-1
 640 1024 l 1,9,-1
 704 1024 l 1,10,-1
 768 1024 l 1,11,-1
 768 960 l 1,12,-1
 768 896 l 1,13,-1
 704 896 l 1,14,-1
 640 896 l 1,15,-1
 640 832 l 1,16,-1
 640 768 l 1,17,-1
 704 768 l 1,18,-1
 768 768 l 1,19,-1
 768 704 l 1,20,-1
 768 640 l 1,21,-1
 832 640 l 1,22,-1
 896 640 l 1,23,-1
 896 384 l 1,24,-1
 896 128 l 1,25,-1
 512 128 l 1,26,-1
 128 128 l 1,27,-1
 128 192 l 1,28,-1
 128 256 l 1,29,-1
 64 256 l 1,30,-1
 0 256 l 1,31,-1
 0 320 l 1,32,-1
 0 384 l 1,33,-1
 64 384 l 1,34,-1
 128 384 l 1,35,-1
 128 448 l 1,36,-1
 128 512 l 1,37,-1
 384 512 l 1,38,-1
 640 512 l 1,39,-1
 640 576 l 1,40,-1
 640 640 l 1,41,-1
 384 640 l 1,42,-1
 128 640 l 1,43,-1
 128 704 l 1,44,-1
 128 768 l 1,45,-1
 192 768 l 1,46,-1
 256 768 l 1,47,-1
 256 832 l 1,48,-1
 256 896 l 1,49,-1
 192 896 l 1,50,-1
 128 896 l 1,51,-1
 128 960 l 1,0,-1
640 320 m 1,52,-1
 640 384 l 1,53,-1
 448 384 l 1,54,-1
 256 384 l 1,55,-1
 256 320 l 1,56,-1
 256 256 l 1,57,-1
 448 256 l 1,58,-1
 640 256 l 1,59,-1
 640 320 l 1,52,-1
EndSplineSet
EndChar

StartChar: Aogonek
Encoding: 260 260 199
Width: 1024
GlyphClass: 2
Flags: W
LayerCount: 2
Fore
SplineSet
256 960 m 1,0,-1
 256 1024 l 1,1,-1
 448 1024 l 1,2,-1
 640 1024 l 1,3,-1
 640 960 l 1,4,-1
 640 896 l 1,5,-1
 704 896 l 1,6,-1
 768 896 l 1,7,-1
 768 832 l 1,8,-1
 768 768 l 1,9,-1
 832 768 l 1,10,-1
 896 768 l 1,11,-1
 896 576 l 1,12,-1
 896 384 l 1,13,-1
 832 384 l 1,14,-1
 768 384 l 1,15,-1
 768 320 l 1,16,-1
 768 256 l 1,17,-1
 704 256 l 1,18,-1
 640 256 l 1,19,-1
 640 192 l 1,20,-1
 640 128 l 1,21,-1
 768 128 l 1,22,-1
 896 128 l 1,23,-1
 896 64 l 1,24,-1
 896 0 l 1,25,-1
 768 0 l 1,26,-1
 640 0 l 1,27,-1
 640 64 l 1,28,-1
 640 128 l 1,29,-1
 576 128 l 1,30,-1
 512 128 l 1,31,-1
 512 192 l 1,32,-1
 512 256 l 1,33,-1
 576 256 l 1,34,-1
 640 256 l 1,35,-1
 640 384 l 1,36,-1
 640 512 l 1,37,-1
 448 512 l 1,38,-1
 256 512 l 1,39,-1
 256 448 l 1,40,-1
 256 384 l 1,41,-1
 128 384 l 1,42,-1
 0 384 l 1,43,-1
 0 576 l 1,44,-1
 0 768 l 1,45,-1
 64 768 l 1,46,-1
 128 768 l 1,47,-1
 128 832 l 1,48,-1
 128 896 l 1,49,-1
 192 896 l 1,50,-1
 256 896 l 1,51,-1
 256 960 l 1,0,-1
512 832 m 1,52,-1
 512 896 l 1,53,-1
 448 896 l 1,54,-1
 384 896 l 1,55,-1
 384 832 l 1,56,-1
 384 768 l 1,57,-1
 320 768 l 1,58,-1
 256 768 l 1,59,-1
 256 704 l 1,60,-1
 256 640 l 1,61,-1
 448 640 l 1,62,-1
 640 640 l 1,63,-1
 640 704 l 1,64,-1
 640 768 l 1,65,-1
 576 768 l 1,66,-1
 512 768 l 1,67,-1
 512 832 l 1,52,-1
EndSplineSet
EndChar

StartChar: aogonek
Encoding: 261 261 200
Width: 1024
GlyphClass: 2
Flags: W
LayerCount: 2
Fore
SplineSet
128 960 m 1,0,-1
 128 1024 l 1,1,-1
 448 1024 l 1,2,-1
 768 1024 l 1,3,-1
 768 960 l 1,4,-1
 768 896 l 1,5,-1
 832 896 l 1,6,-1
 896 896 l 1,7,-1
 896 640 l 1,8,-1
 896 384 l 1,9,-1
 704 384 l 1,10,-1
 512 384 l 1,11,-1
 512 320 l 1,12,-1
 512 256 l 1,13,-1
 448 256 l 1,14,-1
 384 256 l 1,15,-1
 384 192 l 1,16,-1
 384 128 l 1,17,-1
 512 128 l 1,18,-1
 640 128 l 1,19,-1
 640 64 l 1,20,-1
 640 0 l 1,21,-1
 512 0 l 1,22,-1
 384 0 l 1,23,-1
 384 64 l 1,24,-1
 384 128 l 1,25,-1
 320 128 l 1,26,-1
 256 128 l 1,27,-1
 256 192 l 1,28,-1
 256 256 l 1,29,-1
 320 256 l 1,30,-1
 384 256 l 1,31,-1
 384 320 l 1,32,-1
 384 384 l 1,33,-1
 256 384 l 1,34,-1
 128 384 l 1,35,-1
 128 448 l 1,36,-1
 128 512 l 1,37,-1
 64 512 l 1,38,-1
 0 512 l 1,39,-1
 0 576 l 1,40,-1
 0 640 l 1,41,-1
 64 640 l 1,42,-1
 128 640 l 1,43,-1
 128 704 l 1,44,-1
 128 768 l 1,45,-1
 384 768 l 1,46,-1
 640 768 l 1,47,-1
 640 832 l 1,48,-1
 640 896 l 1,49,-1
 384 896 l 1,50,-1
 128 896 l 1,51,-1
 128 960 l 1,0,-1
640 576 m 1,52,-1
 640 640 l 1,53,-1
 448 640 l 1,54,-1
 256 640 l 1,55,-1
 256 576 l 1,56,-1
 256 512 l 1,57,-1
 448 512 l 1,58,-1
 640 512 l 1,59,-1
 640 576 l 1,52,-1
EndSplineSet
EndChar

StartChar: Cacute
Encoding: 262 262 201
Width: 1024
GlyphClass: 2
Flags: W
LayerCount: 2
Fore
SplineSet
512 960 m 1,0,-1
 512 1024 l 1,1,-1
 576 1024 l 1,2,-1
 640 1024 l 1,3,-1
 640 960 l 1,4,-1
 640 896 l 1,5,-1
 576 896 l 1,6,-1
 512 896 l 1,7,-1
 512 832 l 1,8,-1
 512 768 l 1,9,-1
 640 768 l 1,10,-1
 768 768 l 1,11,-1
 768 704 l 1,12,-1
 768 640 l 1,13,-1
 832 640 l 1,14,-1
 896 640 l 1,15,-1
 896 576 l 1,16,-1
 896 512 l 1,17,-1
 768 512 l 1,18,-1
 640 512 l 1,19,-1
 640 576 l 1,20,-1
 640 640 l 1,21,-1
 512 640 l 1,22,-1
 384 640 l 1,23,-1
 384 576 l 1,24,-1
 384 512 l 1,25,-1
 320 512 l 1,26,-1
 256 512 l 1,27,-1
 256 448 l 1,28,-1
 256 384 l 1,29,-1
 320 384 l 1,30,-1
 384 384 l 1,31,-1
 384 320 l 1,32,-1
 384 256 l 1,33,-1
 512 256 l 1,34,-1
 640 256 l 1,35,-1
 640 320 l 1,36,-1
 640 384 l 1,37,-1
 768 384 l 1,38,-1
 896 384 l 1,39,-1
 896 320 l 1,40,-1
 896 256 l 1,41,-1
 832 256 l 1,42,-1
 768 256 l 1,43,-1
 768 192 l 1,44,-1
 768 128 l 1,45,-1
 512 128 l 1,46,-1
 256 128 l 1,47,-1
 256 192 l 1,48,-1
 256 256 l 1,49,-1
 192 256 l 1,50,-1
 128 256 l 1,51,-1
 128 320 l 1,52,-1
 128 384 l 1,53,-1
 64 384 l 1,54,-1
 0 384 l 1,55,-1
 0 448 l 1,56,-1
 0 512 l 1,57,-1
 64 512 l 1,58,-1
 128 512 l 1,59,-1
 128 576 l 1,60,-1
 128 640 l 1,61,-1
 192 640 l 1,62,-1
 256 640 l 1,63,-1
 256 704 l 1,64,-1
 256 768 l 1,65,-1
 320 768 l 1,66,-1
 384 768 l 1,67,-1
 384 832 l 1,68,-1
 384 896 l 1,69,-1
 448 896 l 1,70,-1
 512 896 l 1,71,-1
 512 960 l 1,0,-1
EndSplineSet
EndChar

StartChar: cacute
Encoding: 263 263 202
Width: 1024
GlyphClass: 2
Flags: W
LayerCount: 2
Fore
SplineSet
512 960 m 1,0,-1
 512 1024 l 1,1,-1
 576 1024 l 1,2,-1
 640 1024 l 1,3,-1
 640 960 l 1,4,-1
 640 896 l 1,5,-1
 576 896 l 1,6,-1
 512 896 l 1,7,-1
 512 832 l 1,8,-1
 512 768 l 1,9,-1
 704 768 l 1,10,-1
 896 768 l 1,11,-1
 896 704 l 1,12,-1
 896 640 l 1,13,-1
 576 640 l 1,14,-1
 256 640 l 1,15,-1
 256 448 l 1,16,-1
 256 256 l 1,17,-1
 576 256 l 1,18,-1
 896 256 l 1,19,-1
 896 192 l 1,20,-1
 896 128 l 1,21,-1
 512 128 l 1,22,-1
 128 128 l 1,23,-1
 128 192 l 1,24,-1
 128 256 l 1,25,-1
 64 256 l 1,26,-1
 0 256 l 1,27,-1
 0 448 l 1,28,-1
 0 640 l 1,29,-1
 64 640 l 1,30,-1
 128 640 l 1,31,-1
 128 704 l 1,32,-1
 128 768 l 1,33,-1
 256 768 l 1,34,-1
 384 768 l 1,35,-1
 384 832 l 1,36,-1
 384 896 l 1,37,-1
 448 896 l 1,38,-1
 512 896 l 1,39,-1
 512 960 l 1,0,-1
EndSplineSet
EndChar

StartChar: Ccircumflex
Encoding: 264 264 203
Width: 1024
GlyphClass: 2
Flags: W
LayerCount: 2
Fore
SplineSet
256 960 m 1,0,-1
 256 1024 l 1,1,-1
 448 1024 l 1,2,-1
 640 1024 l 1,3,-1
 640 960 l 1,4,-1
 640 896 l 1,5,-1
 704 896 l 1,6,-1
 768 896 l 1,7,-1
 768 768 l 1,8,-1
 768 640 l 1,9,-1
 832 640 l 1,10,-1
 896 640 l 1,11,-1
 896 576 l 1,12,-1
 896 512 l 1,13,-1
 768 512 l 1,14,-1
 640 512 l 1,15,-1
 640 576 l 1,16,-1
 640 640 l 1,17,-1
 512 640 l 1,18,-1
 384 640 l 1,19,-1
 384 576 l 1,20,-1
 384 512 l 1,21,-1
 320 512 l 1,22,-1
 256 512 l 1,23,-1
 256 448 l 1,24,-1
 256 384 l 1,25,-1
 320 384 l 1,26,-1
 384 384 l 1,27,-1
 384 320 l 1,28,-1
 384 256 l 1,29,-1
 512 256 l 1,30,-1
 640 256 l 1,31,-1
 640 320 l 1,32,-1
 640 384 l 1,33,-1
 768 384 l 1,34,-1
 896 384 l 1,35,-1
 896 320 l 1,36,-1
 896 256 l 1,37,-1
 832 256 l 1,38,-1
 768 256 l 1,39,-1
 768 192 l 1,40,-1
 768 128 l 1,41,-1
 512 128 l 1,42,-1
 256 128 l 1,43,-1
 256 192 l 1,44,-1
 256 256 l 1,45,-1
 192 256 l 1,46,-1
 128 256 l 1,47,-1
 128 320 l 1,48,-1
 128 384 l 1,49,-1
 64 384 l 1,50,-1
 0 384 l 1,51,-1
 0 448 l 1,52,-1
 0 512 l 1,53,-1
 64 512 l 1,54,-1
 128 512 l 1,55,-1
 128 576 l 1,56,-1
 128 640 l 1,57,-1
 192 640 l 1,58,-1
 256 640 l 1,59,-1
 256 704 l 1,60,-1
 256 768 l 1,61,-1
 192 768 l 1,62,-1
 128 768 l 1,63,-1
 128 832 l 1,64,-1
 128 896 l 1,65,-1
 192 896 l 1,66,-1
 256 896 l 1,67,-1
 256 960 l 1,0,-1
512 832 m 1,68,-1
 512 896 l 1,69,-1
 448 896 l 1,70,-1
 384 896 l 1,71,-1
 384 832 l 1,72,-1
 384 768 l 1,73,-1
 448 768 l 1,74,-1
 512 768 l 1,75,-1
 512 832 l 1,68,-1
EndSplineSet
EndChar

StartChar: ccircumflex
Encoding: 265 265 204
Width: 1024
GlyphClass: 2
Flags: W
LayerCount: 2
Fore
SplineSet
256 960 m 1,0,-1
 256 1024 l 1,1,-1
 448 1024 l 1,2,-1
 640 1024 l 1,3,-1
 640 960 l 1,4,-1
 640 896 l 1,5,-1
 704 896 l 1,6,-1
 768 896 l 1,7,-1
 768 832 l 1,8,-1
 768 768 l 1,9,-1
 832 768 l 1,10,-1
 896 768 l 1,11,-1
 896 704 l 1,12,-1
 896 640 l 1,13,-1
 576 640 l 1,14,-1
 256 640 l 1,15,-1
 256 448 l 1,16,-1
 256 256 l 1,17,-1
 576 256 l 1,18,-1
 896 256 l 1,19,-1
 896 192 l 1,20,-1
 896 128 l 1,21,-1
 512 128 l 1,22,-1
 128 128 l 1,23,-1
 128 192 l 1,24,-1
 128 256 l 1,25,-1
 64 256 l 1,26,-1
 0 256 l 1,27,-1
 0 448 l 1,28,-1
 0 640 l 1,29,-1
 64 640 l 1,30,-1
 128 640 l 1,31,-1
 128 768 l 1,32,-1
 128 896 l 1,33,-1
 192 896 l 1,34,-1
 256 896 l 1,35,-1
 256 960 l 1,0,-1
512 832 m 1,36,-1
 512 896 l 1,37,-1
 448 896 l 1,38,-1
 384 896 l 1,39,-1
 384 832 l 1,40,-1
 384 768 l 1,41,-1
 448 768 l 1,42,-1
 512 768 l 1,43,-1
 512 832 l 1,36,-1
EndSplineSet
EndChar

StartChar: Cdotaccent
Encoding: 266 266 205
Width: 1024
GlyphClass: 2
Flags: W
LayerCount: 2
Fore
SplineSet
256 704 m 1,0,-1
 256 768 l 1,1,-1
 512 768 l 1,2,-1
 768 768 l 1,3,-1
 768 704 l 1,4,-1
 768 640 l 1,5,-1
 832 640 l 1,6,-1
 896 640 l 1,7,-1
 896 576 l 1,8,-1
 896 512 l 1,9,-1
 768 512 l 1,10,-1
 640 512 l 1,11,-1
 640 576 l 1,12,-1
 640 640 l 1,13,-1
 512 640 l 1,14,-1
 384 640 l 1,15,-1
 384 576 l 1,16,-1
 384 512 l 1,17,-1
 320 512 l 1,18,-1
 256 512 l 1,19,-1
 256 448 l 1,20,-1
 256 384 l 1,21,-1
 320 384 l 1,22,-1
 384 384 l 1,23,-1
 384 320 l 1,24,-1
 384 256 l 1,25,-1
 512 256 l 1,26,-1
 640 256 l 1,27,-1
 640 320 l 1,28,-1
 640 384 l 1,29,-1
 768 384 l 1,30,-1
 896 384 l 1,31,-1
 896 320 l 1,32,-1
 896 256 l 1,33,-1
 832 256 l 1,34,-1
 768 256 l 1,35,-1
 768 192 l 1,36,-1
 768 128 l 1,37,-1
 512 128 l 1,38,-1
 256 128 l 1,39,-1
 256 192 l 1,40,-1
 256 256 l 1,41,-1
 192 256 l 1,42,-1
 128 256 l 1,43,-1
 128 320 l 1,44,-1
 128 384 l 1,45,-1
 64 384 l 1,46,-1
 0 384 l 1,47,-1
 0 448 l 1,48,-1
 0 512 l 1,49,-1
 64 512 l 1,50,-1
 128 512 l 1,51,-1
 128 576 l 1,52,-1
 128 640 l 1,53,-1
 192 640 l 1,54,-1
 256 640 l 1,55,-1
 256 704 l 1,0,-1
384 960 m 1,56,-1
 384 1024 l 1,57,-1
 512 1024 l 1,58,-1
 640 1024 l 1,59,-1
 640 960 l 1,60,-1
 640 896 l 1,61,-1
 512 896 l 1,62,-1
 384 896 l 1,63,-1
 384 960 l 1,56,-1
EndSplineSet
EndChar

StartChar: cdotaccent
Encoding: 267 267 206
Width: 1024
GlyphClass: 2
Flags: W
LayerCount: 2
Fore
SplineSet
128 704 m 1,0,-1
 128 768 l 1,1,-1
 512 768 l 1,2,-1
 896 768 l 1,3,-1
 896 704 l 1,4,-1
 896 640 l 1,5,-1
 576 640 l 1,6,-1
 256 640 l 1,7,-1
 256 448 l 1,8,-1
 256 256 l 1,9,-1
 576 256 l 1,10,-1
 896 256 l 1,11,-1
 896 192 l 1,12,-1
 896 128 l 1,13,-1
 512 128 l 1,14,-1
 128 128 l 1,15,-1
 128 192 l 1,16,-1
 128 256 l 1,17,-1
 64 256 l 1,18,-1
 0 256 l 1,19,-1
 0 448 l 1,20,-1
 0 640 l 1,21,-1
 64 640 l 1,22,-1
 128 640 l 1,23,-1
 128 704 l 1,0,-1
384 960 m 1,24,-1
 384 1024 l 1,25,-1
 512 1024 l 1,26,-1
 640 1024 l 1,27,-1
 640 960 l 1,28,-1
 640 896 l 1,29,-1
 512 896 l 1,30,-1
 384 896 l 1,31,-1
 384 960 l 1,24,-1
EndSplineSet
EndChar

StartChar: Ccaron
Encoding: 268 268 207
Width: 1024
GlyphClass: 2
Flags: W
LayerCount: 2
Fore
SplineSet
128 960 m 1,0,-1
 128 1024 l 1,1,-1
 256 1024 l 1,2,-1
 384 1024 l 1,3,-1
 384 960 l 1,4,-1
 384 896 l 1,5,-1
 512 896 l 1,6,-1
 640 896 l 1,7,-1
 640 960 l 1,8,-1
 640 1024 l 1,9,-1
 768 1024 l 1,10,-1
 896 1024 l 1,11,-1
 896 960 l 1,12,-1
 896 896 l 1,13,-1
 832 896 l 1,14,-1
 768 896 l 1,15,-1
 768 768 l 1,16,-1
 768 640 l 1,17,-1
 832 640 l 1,18,-1
 896 640 l 1,19,-1
 896 576 l 1,20,-1
 896 512 l 1,21,-1
 768 512 l 1,22,-1
 640 512 l 1,23,-1
 640 576 l 1,24,-1
 640 640 l 1,25,-1
 512 640 l 1,26,-1
 384 640 l 1,27,-1
 384 576 l 1,28,-1
 384 512 l 1,29,-1
 320 512 l 1,30,-1
 256 512 l 1,31,-1
 256 448 l 1,32,-1
 256 384 l 1,33,-1
 320 384 l 1,34,-1
 384 384 l 1,35,-1
 384 320 l 1,36,-1
 384 256 l 1,37,-1
 512 256 l 1,38,-1
 640 256 l 1,39,-1
 640 320 l 1,40,-1
 640 384 l 1,41,-1
 768 384 l 1,42,-1
 896 384 l 1,43,-1
 896 320 l 1,44,-1
 896 256 l 1,45,-1
 832 256 l 1,46,-1
 768 256 l 1,47,-1
 768 192 l 1,48,-1
 768 128 l 1,49,-1
 512 128 l 1,50,-1
 256 128 l 1,51,-1
 256 192 l 1,52,-1
 256 256 l 1,53,-1
 192 256 l 1,54,-1
 128 256 l 1,55,-1
 128 320 l 1,56,-1
 128 384 l 1,57,-1
 64 384 l 1,58,-1
 0 384 l 1,59,-1
 0 448 l 1,60,-1
 0 512 l 1,61,-1
 64 512 l 1,62,-1
 128 512 l 1,63,-1
 128 576 l 1,64,-1
 128 640 l 1,65,-1
 192 640 l 1,66,-1
 256 640 l 1,67,-1
 256 768 l 1,68,-1
 256 896 l 1,69,-1
 192 896 l 1,70,-1
 128 896 l 1,71,-1
 128 960 l 1,0,-1
EndSplineSet
EndChar

StartChar: ccaron
Encoding: 269 269 208
Width: 1024
GlyphClass: 2
Flags: W
LayerCount: 2
Fore
SplineSet
128 960 m 1,0,-1
 128 1024 l 1,1,-1
 256 1024 l 1,2,-1
 384 1024 l 1,3,-1
 384 960 l 1,4,-1
 384 896 l 1,5,-1
 448 896 l 1,6,-1
 512 896 l 1,7,-1
 512 960 l 1,8,-1
 512 1024 l 1,9,-1
 640 1024 l 1,10,-1
 768 1024 l 1,11,-1
 768 960 l 1,12,-1
 768 896 l 1,13,-1
 704 896 l 1,14,-1
 640 896 l 1,15,-1
 640 832 l 1,16,-1
 640 768 l 1,17,-1
 768 768 l 1,18,-1
 896 768 l 1,19,-1
 896 704 l 1,20,-1
 896 640 l 1,21,-1
 576 640 l 1,22,-1
 256 640 l 1,23,-1
 256 448 l 1,24,-1
 256 256 l 1,25,-1
 576 256 l 1,26,-1
 896 256 l 1,27,-1
 896 192 l 1,28,-1
 896 128 l 1,29,-1
 512 128 l 1,30,-1
 128 128 l 1,31,-1
 128 192 l 1,32,-1
 128 256 l 1,33,-1
 64 256 l 1,34,-1
 0 256 l 1,35,-1
 0 448 l 1,36,-1
 0 640 l 1,37,-1
 64 640 l 1,38,-1
 128 640 l 1,39,-1
 128 704 l 1,40,-1
 128 768 l 1,41,-1
 192 768 l 1,42,-1
 256 768 l 1,43,-1
 256 832 l 1,44,-1
 256 896 l 1,45,-1
 192 896 l 1,46,-1
 128 896 l 1,47,-1
 128 960 l 1,0,-1
EndSplineSet
EndChar

StartChar: Dcaron
Encoding: 270 270 209
Width: 1024
GlyphClass: 2
Flags: W
LayerCount: 2
Fore
SplineSet
128 960 m 1,0,-1
 128 1024 l 1,1,-1
 256 1024 l 1,2,-1
 384 1024 l 1,3,-1
 384 960 l 1,4,-1
 384 896 l 1,5,-1
 448 896 l 1,6,-1
 512 896 l 1,7,-1
 512 960 l 1,8,-1
 512 1024 l 1,9,-1
 640 1024 l 1,10,-1
 768 1024 l 1,11,-1
 768 960 l 1,12,-1
 768 896 l 1,13,-1
 704 896 l 1,14,-1
 640 896 l 1,15,-1
 640 768 l 1,16,-1
 640 640 l 1,17,-1
 704 640 l 1,18,-1
 768 640 l 1,19,-1
 768 576 l 1,20,-1
 768 512 l 1,21,-1
 832 512 l 1,22,-1
 896 512 l 1,23,-1
 896 448 l 1,24,-1
 896 384 l 1,25,-1
 832 384 l 1,26,-1
 768 384 l 1,27,-1
 768 320 l 1,28,-1
 768 256 l 1,29,-1
 704 256 l 1,30,-1
 640 256 l 1,31,-1
 640 192 l 1,32,-1
 640 128 l 1,33,-1
 320 128 l 1,34,-1
 0 128 l 1,35,-1
 0 448 l 1,36,-1
 0 768 l 1,37,-1
 128 768 l 1,38,-1
 256 768 l 1,39,-1
 256 832 l 1,40,-1
 256 896 l 1,41,-1
 192 896 l 1,42,-1
 128 896 l 1,43,-1
 128 960 l 1,0,-1
512 576 m 1,44,-1
 512 640 l 1,45,-1
 384 640 l 1,46,-1
 256 640 l 1,47,-1
 256 448 l 1,48,-1
 256 256 l 1,49,-1
 384 256 l 1,50,-1
 512 256 l 1,51,-1
 512 320 l 1,52,-1
 512 384 l 1,53,-1
 576 384 l 1,54,-1
 640 384 l 1,55,-1
 640 448 l 1,56,-1
 640 512 l 1,57,-1
 576 512 l 1,58,-1
 512 512 l 1,59,-1
 512 576 l 1,44,-1
EndSplineSet
EndChar

